<mxfile host="app.diagrams.net" modified="2023-09-27T22:50:39.273Z" agent="Mozilla/5.0 (Windows NT 10.0; Win64; x64) AppleWebKit/537.36 (KHTML, like Gecko) Chrome/117.0.0.0 Safari/537.36" etag="XMU1V-3fDdrd9TVhp7QM" version="21.8.2" type="github">
  <diagram name="PÃ¡gina-1" id="Z7LSm5HWZqEUJkI3TfCg">
    <mxGraphModel dx="1280" dy="2966" grid="1" gridSize="10" guides="1" tooltips="1" connect="1" arrows="1" fold="1" page="1" pageScale="1" pageWidth="827" pageHeight="1169" math="0" shadow="0">
      <root>
        <mxCell id="0" />
        <mxCell id="1" parent="0" />
        <mxCell id="tWc4xuuW74gezJHSD0tG-5" value="" style="rounded=0;whiteSpace=wrap;html=1;shadow=0;glass=0;strokeColor=none;align=left;verticalAlign=middle;fontFamily=Helvetica;fontSize=12;fontColor=default;fillColor=#FFFFFF;gradientColor=#C9D5E8;" vertex="1" parent="1">
          <mxGeometry x="594.51" y="-1594" width="180" height="169" as="geometry" />
        </mxCell>
        <mxCell id="tWc4xuuW74gezJHSD0tG-3" value="" style="ellipse;whiteSpace=wrap;html=1;aspect=fixed;strokeColor=#267a38;" vertex="1" parent="1">
          <mxGeometry x="650.5" y="-1663" width="67" height="67" as="geometry" />
        </mxCell>
        <mxCell id="L57hU3vJhA9-MwYrpEn6-111" value="&lt;h1&gt;&lt;font color=&quot;#334354&quot; style=&quot;font-size: 17px;&quot;&gt;Login&lt;/font&gt;&lt;/h1&gt;" style="text;strokeColor=none;fillColor=none;html=1;fontSize=12;fontStyle=1;verticalAlign=middle;align=center;fontFamily=Helvetica;fontColor=default;rounded=0;" parent="1" vertex="1">
          <mxGeometry x="675" y="-2244" width="50" height="26" as="geometry" />
        </mxCell>
        <mxCell id="L57hU3vJhA9-MwYrpEn6-14" value="" style="verticalLabelPosition=bottom;verticalAlign=top;html=1;shadow=0;dashed=0;strokeWidth=1;shape=mxgraph.android.phone2;strokeColor=#c0c0c0;" parent="1" vertex="1">
          <mxGeometry x="40" y="-2320" width="200" height="390" as="geometry" />
        </mxCell>
        <mxCell id="L57hU3vJhA9-MwYrpEn6-19" value="Criar conta" style="rounded=1;html=1;shadow=0;dashed=0;whiteSpace=wrap;fontSize=10;fillColor=#666666;align=center;strokeColor=#4D4D4D;fontColor=#ffffff;" parent="1" vertex="1">
          <mxGeometry x="367.25" y="-2110" width="105.5" height="20" as="geometry" />
        </mxCell>
        <mxCell id="L57hU3vJhA9-MwYrpEn6-20" value="Login" style="rounded=1;html=1;shadow=0;dashed=0;whiteSpace=wrap;fontSize=10;fillColor=#666666;align=center;strokeColor=#4D4D4D;fontColor=#ffffff;" parent="1" vertex="1">
          <mxGeometry x="367.25" y="-2145" width="105.5" height="20" as="geometry" />
        </mxCell>
        <mxCell id="L57hU3vJhA9-MwYrpEn6-30" value="" style="verticalLabelPosition=bottom;verticalAlign=top;html=1;shadow=0;dashed=0;strokeWidth=1;shape=mxgraph.android.phone2;strokeColor=#c0c0c0;" parent="1" vertex="1">
          <mxGeometry x="320" y="-2320" width="200" height="390" as="geometry" />
        </mxCell>
        <mxCell id="L57hU3vJhA9-MwYrpEn6-31" value="" style="shape=image;html=1;verticalLabelPosition=bottom;verticalAlign=top;imageAspect=0;image=data:image/png,iVBORw0KGgoAAAANSUhEUgAAAfQAAAH0CAYAAADL1t+KAAAAAXNSR0IArs4c6QAAAARzQklUCAgICHwIZIgAAAAJcEhZcwAADsQAAA7EAZUrDhsAAARpaVRYdFhNTDpjb20uYWRvYmUueG1wAAAAAAA8P3hwYWNrZXQgYmVnaW49J++7vycgaWQ9J1c1TTBNcENlaGlIenJlU3pOVGN6a2M5ZCc/Pgo8eDp4bXBtZXRhIHhtbG5zOng9J2Fkb2JlOm5zOm1ldGEvJz4KPHJkZjpSREYgeG1sbnM6cmRmPSdodHRwOi8vd3d3LnczLm9yZy8xOTk5LzAyLzIyLXJkZi1zeW50YXgtbnMjJz4KCiA8cmRmOkRlc2NyaXB0aW9uIHJkZjphYm91dD0nJwogIHhtbG5zOkF0dHJpYj0naHR0cDovL25zLmF0dHJpYnV0aW9uLmNvbS9hZHMvMS4wLyc+CiAgPEF0dHJpYjpBZHM+CiAgIDxyZGY6U2VxPgogICAgPHJkZjpsaSByZGY6cGFyc2VUeXBlPSdSZXNvdXJjZSc+CiAgICAgPEF0dHJpYjpDcmVhdGVkPjIwMjMtMDktMjc8L0F0dHJpYjpDcmVhdGVkPgogICAgIDxBdHRyaWI6RXh0SWQ+MjkxZDM2MDctOTc0MC00NjNkLTgzMjItZjM4NWZkNTk5NjVhPC9BdHRyaWI6RXh0SWQ+CiAgICAgPEF0dHJpYjpGYklkPjUyNTI2NTkxNDE3OTU4MDwvQXR0cmliOkZiSWQ+CiAgICAgPEF0dHJpYjpUb3VjaFR5cGU+MjwvQXR0cmliOlRvdWNoVHlwZT4KICAgIDwvcmRmOmxpPgogICA8L3JkZjpTZXE+CiAgPC9BdHRyaWI6QWRzPgogPC9yZGY6RGVzY3JpcHRpb24+CgogPHJkZjpEZXNjcmlwdGlvbiByZGY6YWJvdXQ9JycKICB4bWxuczpkYz0naHR0cDovL3B1cmwub3JnL2RjL2VsZW1lbnRzLzEuMS8nPgogIDxkYzp0aXRsZT4KICAgPHJkZjpBbHQ+CiAgICA8cmRmOmxpIHhtbDpsYW5nPSd4LWRlZmF1bHQnPmFzY2QgLSAxPC9yZGY6bGk+CiAgIDwvcmRmOkFsdD4KICA8L2RjOnRpdGxlPgogPC9yZGY6RGVzY3JpcHRpb24+CgogPHJkZjpEZXNjcmlwdGlvbiByZGY6YWJvdXQ9JycKICB4bWxuczpwZGY9J2h0dHA6Ly9ucy5hZG9iZS5jb20vcGRmLzEuMy8nPgogIDxwZGY6QXV0aG9yPkxhaXMgRmVycmVpcmE8L3BkZjpBdXRob3I+CiA8L3JkZjpEZXNjcmlwdGlvbj4KCiA8cmRmOkRlc2NyaXB0aW9uIHJkZjphYm91dD0nJwogIHhtbG5zOnhtcD0naHR0cDovL25zLmFkb2JlLmNvbS94YXAvMS4wLyc+CiAgPHhtcDpDcmVhdG9yVG9vbD5DYW52YTwveG1wOkNyZWF0b3JUb29sPgogPC9yZGY6RGVzY3JpcHRpb24+CjwvcmRmOlJERj4KPC94OnhtcG1ldGE+Cjw/eHBhY2tldCBlbmQ9J3InPz5/CGAjAAAgAElEQVR4nOydd3wcxdnHf7PX1S25yr3bGDAGDLYxxZjeO6aFjiEEeCkBAgkltCRgWkggQOgdTGimGgw2Bowx1QZ3y0WyJatLp+s77x/b907S3en2JO09Xz5mtbszs3On1f72meeZZxjnnIMgCIIgiF6N0N0dIAiCIAii65CgEwRBEIQNIEEnCIIgCBtAgk4QBEEQNoAEnSAIgiBsAAk6QRAEQdgAEnSCIAiCsAEk6ARBEARhA0jQCYIgCMIGkKATBEEQhA0gQScIgiAIG0CCThAEQRA2gASdIAiCIGwACTpBEARB2AASdIIgCIKwASToBEEQBGEDSNAJgiAIwgaQoBMEQRCEDSBBJwiCIAgbQIJOEARBEDaABJ0gCIIgbAAJOkEQBEHYABJ0giAIgrABJOgEQRAEYQNI0AmCIAjCBpCgEwRBEIQNIEEnCIIgCBtAgk4QBEEQNoAEnSAIgiBsAAk6QRAEQdgAEnSCIAiCsAEk6ARBEARhA0jQCYIgCMIGkKATBEEQhA0gQScIgiAIG0CCThAEQRA2gASdIAiCIGwACTpBEARB2AASdIIgCIKwASToBEEQBGEDSNAJgiAIwgaQoBMEQRCEDSBBJwiCIAgbQIJOEARBEDaABJ0gCIIgbAAJOkEQBEHYABJ0giAIgrABJOgEQRAEYQNI0AmCIAjCBpCgEwRBEIQNIEEnCIIgCBtAgk4QBEEQNoAEnSAIgiBsAAk6QRAEQdgAEnSCIAiCsAEk6ARBEARhA0jQCYIgCMIGkKATBEEQhA0gQScIgiAIG0CCThAEQRA2gASdIAiCIGwACTpBEARB2AASdIIgCIKwASToBEEQBGEDSNAJgiAIwgaQoBMEQRCEDSBBJwiCIAgbQIJOEARBEDaABJ0gCIIgbAAJOkEQBEHYABJ0giAIgrABJOgEQRAEYQNI0AmCIAjCBpCgEwRBEIQNIEEnCIIgCBtAgk4QBEEQNoAEnSAIgiBsAAk6QRAEQdgAEnSCIAiCsAEk6ARBEARhA0jQCYIgCMIGkKATBEEQhA0gQScIgiAIG0CCThAEQRA2gASdIAiCIGwACTpBEARB2AASdIIgCIKwASToBEEQBGEDSNAJgiAIwgaQoBMEQRCEDSBBJwiCIAgbQIJOEARBEDaABJ0gCIIgbAAJOkEQBEHYABJ0giAIgrABJOgEQRAEYQNI0AmCIAjCBpCgEwRBEIQNIEEnCIIgCBtAgk4QBEEQNoAEnSAIgiBsAAk6QRAEQdgAEnSCIAiCsAEk6ARBEARhA0jQCYIgCMIGkKATBEEQhA0gQScIgiAIG0CCThAEQRA2wNndHSAIIvM0t7ViyS/L8OOGldi0YwsAYOTAYdhz7G44YLdpyPfmdXMPCYLINCToBGEjft28Fo+8/TQWLFvYYblTDjgGlx7zO4wdPDJLPSMIwmoY55x3dycIgugawXAIf3/1X3jqw5dTqjf36HNwzSlz4XV7LOoZQRDZggSdILJAZe0OvPvNx1j041eorN2OrTurUOjLR/+Svhg/dDQuO/Zc7D5ql7Ta3rRjCy554Hqs3bYhrfoTho7BE9fch2H9B6dV/+eNv+Lf7zyLtds2oKaxFuFoBAP69MOQvoNw8JSZOGbaIRhUOiCttgmCSB4SdIKwmNufvz8py3nW5Bm48qSLsOeY3ZJqt8nfjKc/ehX/ee95tIUCXepjgS8fFx91Fs4/fA6K8wuTqvP9+l/w8JtPYtFPX3Vadu7R5+CmM6/sUh8JgugYEnSCsIjt9dU4/96r8duWdSnV23vcZBwz7RDsPW4P7DZygnp8S00lttdX4+eNv+H7dT/j0x++RCgSzmifvW4PZk+Zib3HTcZuIydiYGl/DO1XDgAIRUJYs3UDvl3zI9775hP8sH5lSm3vPmoXPP3HB9C3qDSjfSYIQoIEnSAsYHt9NU65/WJsq93e3V3pUQzrPxhv3vZf9Csu6+6uEITtoHnoBJFhahrrcNodc0nME7ClphIn334Rahpru7srBGE7SNAJIoPUNTfglL9ehC01ld3dlR7L5uptOPWvl6CuuaG7u0IQtoIEnSAyxPqqCpx+51xsrt7W3V3p8VRUb8Wcuy5Tk94QBNF1yIdOEF2kua0V973+KJ79+LXu7kqv5IIjzsC1p8xFgS+/u7tCEL0aEnSCAPDd2p+wdNVyiKIIACjOL8TR+x6CAX36tVtn4feL8e43n+DD5YsQDIey1VVb4vN4ceTUg3HcjMMxa/KMdstVN+zEgmUL0eRvAQA4BAdmTNobe4+bnK2uEkSPhQSdyFkqqrfi1c/fwVtLP0BVXXXCMmMHj8R+k6aipKAYIhexuXob1ldWYNXmNVnube7gcbkxdvBIjBk8EsP7DwFjDA2tTVi68lusr6pIWGdI30E4ceaROO3A49JOkEMQvR0SdCInmffGY3j4f//t7m4QFnDjnCtw2bG/6+5uEETWIUEnco4/PHIz3v364+7uBmEhZ8w6AX+76Obu7gZBZBWKcidyipueusfWYs4YA2MMAhMgMAEOQYDT4YDT4YBDkPYFJqjl7MrLi97C/W/8p7u7QRBZhSx0Imf4ZMViXHT/td3djZQpK+qD8rKBGNxX+te3qBRlRaUoLSxBaWEJ+sjbkoIiAFKO90AoiEA4hGA4iEAoiJgYQ743D163Fz6PFz5563G50dzWgvqWRjS0NMrbJtS3NGJnUx0qa3egqm4HttVux87Gum7+JlJn/q1PUsAckTOQoBM5w35XHddjs7eVFpZgzOCRGFM+AmPKR2J0+QgM61+O8rKBqGuux7rKCqyr3Ij1VRXYXL0NbcE2BGSxVrb+YFta1zYKvQc+jxd5Hh+G9huMMeUjMHbISIwpH4mBpf1RVVeNrTsrsaGqAusrK7BhewXWVW5CbVN9Zr+QDDFiwFB8cf+b3d0NgsgKJOhETvD4ghdw10sPdWsfGGMoLxuIsYM10R5TPgJjBo9EaWEJNlRJ4riuchPWV1VgfeUmbKiqQCAc7NZ+65k4bKza5zHlIzB28CiMHzoaTf5mrK+swPoqqe/rKjdhfeUmbKvdju5+xNxy9tW48Mgzu7UPBJENSNAJ27OlphJH3nQWWgP+brl+vjcP0ybuhWkT98Q+E6Zg1xETUFW3A0t+WYZvfluB37asw7rKTd3St0wxatAwjB86BtMn7oX9Jk3F6PIRWL11PZb99j2Wrf4BX/26HI2tzd3St0JfPj762ysY3Hdgt1yfILIFCTpha9pCAZx46wVYvXV9Vq87YsBQzN5zJmZN3g/7TpiCyrpqfPPbCnzz2/dYuurbXumPToWSgiLM2GUqpu+yF/adsCfGDB6J79f9jEU/LsVnPy5NeUnZrrL7qF3wxi2Pw+PyZPW6BJFNSNAJ29Lkb8E5f78CP21YZfm1XE4Xpk/cC7P22A+z9tgPohjDN799j2Wrv8eXK7/N+YVIivOLMH0XaZRi2sS9UFJQjEU/LsWiH5fiy5Xfoi0UsLwPU8fvgedueBh5Hp/l1yKI7oAEnbAlX/+6Alc/eiu21yfOAJcJ+hQU4+ApMzF7ykwcuPt0VNbuwDtff4T/Lf0QlT00+K6n0K+kDMdNPwzHzzgC44eMxtJV3+LTH77Epz98iR31NZZdd/iAIXjo93dgyphdLbsGQXQXJOiErahrbsCdLz6IN79835L2xwweiSOnzsLsKTMxefQkVNVW452vP8LbX32U9WF9uzC0XzlOnHkUTphxOEaXj8BvW9Zh4fdL8OHyRVi1eY0lQXVnzT4JfzrjShTSgjCEjSBBJ3o9q7eux5crv1WHb61g2sQ9cfpBx+OofWYjEA5iwbKFePPL97Fi7c+WXC9X2XXEBBw/43AcO/0wlBWW4KMVX+CVRW9h6arlGRd2j8uD/SbtjYMmz8ABu0/DyIHDMto+QWQbEnSiR9MS8OOVRW9hVcUabK7ehk07tqChtQk+jxejBg7Hhu0Vlq101qegGHNmnYDTDjwO/UvK8OHyRXjn64/xxc9fW3I9wsjU8Xvg+BmH4+h9D0FbMIBXPn8br37+Nmoaay25XoEvH8P7D1HvqT4FxRg1aDiGDxiC3UZOwOkHHY98b54l1yaITECCTvRYHnvvOTz45hMIhLI7D9vn9uKcQ0/BJUedjQ3bK/DCwvl495tPstoHwsjBU2bi9AOPw36TpuKpD1/Bfz98GU3+7E6Dy/fm4cY5f8DvDj01q9cliGQhQSd6HMFwCBfcdzWWrlqe1esW+PJx/uFzcOGRZ+C7NT/h4beexM8bf8tqH4iOGTVoOK444QIcvvdBeP6TN/D4+y+irjm7WeoO3esAPHnNvKxekyCSgQSd6HGcfPtF+G7tT1m7XnF+ES4+6kycd9jpWPj9Evzrnad7faIXu1NeNhCXHfs7nLDfEZi/ZAEeefvprKafnT1lJp667oGsXY8gkoEEnehR3PHCA3jyg5eycq2ivEJccMQcnHPIKfhg+Wf49zvPoqpuR1auTWSGsqI+uOjIM3Hagcfh7a8+wmPvPWeZj93Mn864ApceQ+uuEz0HEnSix7Bq8xocddPZll9HEfLTDzoeb3/1IZ54/8WcT/zS2ynMK8C5h56Ks2afjA++/QyPvP0U6lsaLb/u0ofewZC+gyy/DkEkAwk60WM4/c5L8c1vKyxr3+lw4NzDTsM5h5yK+UvewzMfv4aWtlbLrkdkH6/bgzmzTsA5s0/G/C/fx9MfvmLp4jYn7HcEHvr9HZa1TxCpQIJO9AhqGusw9fIjLGt/5q774I7zbsDC7xfj/jf+06NWMCOs4YoTLsApBxyDB998Am8t/dCyVd9+fvwzFOcXWtI2QaQCCTrRI3hh4Xzc/PTfMt7u+KGjccvZ18Dn9uKGJ++kYLcco7xsAP520c0oyivE7c/Pww/rV2b8GvdceBPOPPjEjLdLEKlCgk70CM7+2x+w5JdlGWvP5/bihjmX4+h9D8E9L//TslSwRO9g9pT98ddz/4jv1v6I256bh4bWpoy1fdDkGXj2+ocy1h5BpIvQ3R0giG212zMq5gfsNg2f3vsaHIIDs647hcScwKc/LMHBfzwFW3dW4bP73sBJM4/KWNuf//SVpQvKEESykIVOdDvXP3EHXv38nS6307+kL/581lUYPmAobnzyrqyvud2jYLqfeTv7OfqXP3zAEPztwpsQFWO45Zl/YNOOrV1u83eHnoo7zrs+A70jiPQhQSe6lWWrv8dpd8ztUhuMMZw9+2TMPeYc/Ovtp/Hyorcy1LsehiLCLMG+YcsAzlPYN21hOm9TjtpnNm4680q8+vk7ePTdZxCNxbrU3vxbn8Te4yZnqHcEkTok6ES3saWmEsf8+Rw0+VvSbqMwrwB3X/An9CsuxR8euTmr2cIshbW/H6fdmbomN2q9+Vyi8r2dfG8eHrjsdhT48nHNY7d1aei8f0lfvH/3C+hXXJbBHhJE8pAPnegWGlqbcNY9l3dJzPebNBUL//4q1lVuwpy7Luu9Ys7kfwKTt9o+l/e5YV/aMoHJBjUz1U9xK9dX2zNdBwxx+4C+vv6D9C78wTZc8sAfsWDZQiy483kcsuf+abdV01iLM+++HK0BfwZ7SBDJQxY6kXU2bN+M8/5xFbbUVKZV3+1y409zrsDR+87G3AdvwA/rf8lwD7MAM22hjXarxw2+b/mA3jTXm8iKaa3fV86by/ME5ePG1zs4b35i6C16bjzemxg3ZBSevGYelq5ajjteeABtoUBa7YwdPArPXP8gZZAjsg4JOpFVnvzgJcx7/bG0H5b9Ssrw5DXz0NzWgj/88+asL6HZJVSxZuDgYPot55roquPeCfZNxznX6ifcgoMhwbad8pKI694m9NdtZ1+tr2sXoskH30ueMj63F/fNvQW7DB+HC+ddi43bN6fVTnF+Ia4/7XKcfcjJGe4hQbQPCTphOU3+Fryx+F088/FraVvlADBt4p545A934/H3X8DjC17IYA8tghl/jrPAE5bVWeLyvl784yLYmGk/4Vahk3JmsTa9BBjFHroPxNu1zFmi473giXPy/kfjT3OuwO3Pz8O733ySdjvjh47GuYeehpNmHgWfx5vBHhJEPCToRMYJhkP4dvUPeGPJe1i2+ocuz9FljOGyY8/FWQefhEsfugG/bOrha5THWeLKKLdsiQsJLHCzxZ3Acjfst2Oxxx1PZtuOqKvX68gS78hyV8pBOW223M3D+j2L4QOG4Mlr5mHxL9/g7pceQkwUu9ReedkA7DNhCk6eeTT2nTgFHpcnQz0lCAkSdCJjbK7ehsfeew7zlyxAKBLOSJv53jz8+8p7IIoirvz3X3ruYio6y9sQfa4T9zifN7gUZKY2YBZ5BZ2lzUz7ynn1rUGnrabuqdKtL84TtWe6tPk81+3L5/XirX0RJp+7bhvnc+/BT6G7LrgRowYOw1X/viVjS7N63R6cNPMoXH78+eRrJzIGCTqREf751lO47/VHM9rm4L6D8N9r52Hh94tx3+uPZbTtjGAePjf5xlWLVWeRd+o778SHbvCFJ/SZK+Id7ztXOmo435EPPklLvF3L3FwuznLXtnHi38M4Y9YJ+MPxF+CSB/+IVRVrMtaux+XGtadeirlHn5OxNonchQSd6DJzH7weHy5flNE2Z0yain9feQ/uefnhjGSRyygmIedxwq4vqxN3s8+bmS1vuT3EW9jqeaWqoqWCBaPW7bWnGy1n+nJcVwC6jut98dw0rJ+oPm+v3Z7BEVNn4cHf/xVXPvJnfLzii4y2fdqBx+HeS/6S0TaJ3IMEnegSf/rv3Xjps/9ltM05s07A3Rf8CZc+eH3GH5xdQhVlnU88kVgnstQTWd5gYAKHAwC4CDBgcH4IkQhDWV4UJa4IYlGO0X0jCIdFlORz7NIngI2NXpTlRyFGRHy/swDvbO9viE9rf6tc33RcT1w9TaSl6vH78dHt7VjmjIGLpnK68gzKeQAitPM9iL3HTcaz1z+Ex957Ho+8/VRGl2T9/XHn4YbTL89Ye0TuQYJOpM0Hyz/DpQ/ekLH2nA4n7jr/Bhw7/TBccN/V+Oa37zPWdpdh0IxP+Wf1OBDvE9f5wAUmgnEG0cEwsagVDX6GCX1D2KN/G3hUxNi+YexSFkCIC/A6AI9ThAjA7ZD1jHMIApMNWy5rpCSCoSjDkW+PRytzxxnKSaPXYNPHSmgl805+1r+zAIaXAmXf4HM3B8hx7V2iJ1rsE4aOwUs3/Qsr1v2C//v3LfAH2zLW9mt/+Q/2nbBnxtojcgsSdCJtpl5+BGoa6zLSFmMMD152O/bfbRrm3HUp1m7bmJF2u9YpZWuyuBWfuG7LOZcyrXEO5mAYmd8GfwgYURTCcWMbMbokiJaQA5MGhOFgIjgAIc5i7xzlz5XJLwycM7y9rgh3rRwO3p5pniiaPUFUuzm6XQugM+/DKLKmfSb302CRd+JL7/S8qIl9T2BIv3K8evNj2LRjC86/72pEopGMtDt28Egs/MdrGWmLyD1I0Im0ePurj3Dlv/6ckbacDgfmzb0VU8fvgVPvmIvK2u0ZabdL6KxwQ7pTk0XuETicLIp8D7BLSQsm92nBhP5hjO8fQZ5LBMATzzLTwTmXhFBgumOQxFBgaj0xwhEOAU434PIwtVx9wIHLFo3AxnB+4s+R6l94Bz508z5r53jCLaDNS+fK/+QPx02+dp64HfV6PeCpVVZUiudveBj1LY245IE/pp0syQxZ6US6UC53Ii0+/+mrjLTjdrnx6FV/x7gho3HsX87tGWKu5E5nTN0CkuA6wFHgjKLM2YbTxtbgySPW4aPTV+OFY9bh77OrcOaezdhzSBB57hgY46p4a/5nHud3jYaAtmYgGtKOi1GOtiZA1C0AFotJZcWo3lIHyvJiuHi3nXAmyvkOxOdmb2+rdDZRrnfE77NEuebl7w9M2XJ1nzGAMzkGgckjHMoIApMtesa1793UDy13PYz96ibqmutx6h2XwOlw4IUbH0G+Ny8j7S7+eVlG2iFyD2d3d4Donfy6eW2X23C73Hjmjw/CIThw0m0XIhAOZqBnaaKzwBVRUpLCuFkUXiGGUcUBHDe+CYeNagRjgENnURc7JOVVhpoVS1JviAIM0TBHsJXD7QU8+bKVLUoiHYtpf5BMkOvHAO6Q2nR5GaIhDlEEmM5Jzjlw6LAWvLu5EUsb+qiBeMltoSa74TqntZaZTts3Ore185oLXBJvwzx3XRS/4vs3bAUGprSnHufqlkF3PVP7PWGqmz/Yhjl3XYb//N8/8PwN/8T5913d5XTEP25YmaHeEbkGWehEWuxs6prv3O1y44mr70MkGsHpd87tGWIuW5pMYHAxEWXOIM4cvwPPHLMeH5yxGo8evQVHjW2CU2AGMQc4YhGOYAsHF7XjsTBHa72IQLNmTUtCxKDXI5ecEZTHdJa3IB2PRRUxla7jyWdwmF7DmSzCJw+rhRsx1eKVLNsOtkxnASuxAarFrp1nun3N4jfXh6m+7HtXLHj5+1Utd2Vfvq4Um6DtK5a7Zqmb+id/cKX9lIIALWDug9djw/bNeOmmfyHP4+tSWxuqNmeoV0SuQT50Ii2GnzU17bqKmPcpLMapf704Y1nlUkYeulUsTMaA/r4w9ujbjJMmNmLXAQE4Ta+8nHMt+lrQLHF/E4cYBXxFgNOtWd6t9dKfV0EpAxOkIfS2Jg6HE/AWagFnkSAQCwPeIi3gTRSl8g6nXtQBMcbBHEYrHQBiMYYjPxiHWnjj/PbKGwSTLWHFtW5sQfFpm/b1vu5E+4YMcWjfh272uSd9Xvaxt5eEhsu++QQ++2zz5DXzUFJQhN/9/cou+dQ3v7g8g70icgWy0ImU6coCKw5BwBNX34fysgE4+54/dLOYSzLUzxvBOeOrcM+MDXj8iA3468E7sMegeDGPRjlCrUCgCQi2GNtyy2m5Yzr/Nhjg9snD50pRgcOTZ/SNK8PpDjcMws0EwOmMNz4FB4sTcwAQBI7fT9wO5pDdBbLbQLF8mc4S5kw+zzi4oPm09ecNlrhqwSfY1/ngFQve4IPX+8BNPnfN1w7ddbWtwceu9EffLmC05JXfbTdx0f3XIhKN4LkbHu6Spb69vjqDvSJyBRJ0ImV+3LAqrXoOQcAjV9yNcUNGYc5dl6G5raXzSplGtsqdTMSI/FZcudc2vHbyGvxhej1mjW3DwKIopMA1IBqWhtK5WpUhEpLEOBqFIemJ0wM4nNKwuXopJkWjKxHr0jEGp4fBaRZvBrg80PmtVbd78sFfDJgxqA2DvUFDwJt+GDzhPtB+AB0z7nNmElXd8L7+pUApJ7WhfzmATtS53Kb2e1FfCuQtN/fXnKxHCbyTj3NB11Y3ceG8a5Hn8eG5Gx6Gz53eCmvp/o0RuQ0JOpEyS1d+m1a9P591NfadMAWn3zkXdc31Ge5VEjBgeGEQx46swV0HbMLzJ2/Embs3IM+tH6+VEGNAoBkItWmnBAeHW2d06QVZssaZToXlw07AkwcwB9MXlQLiTEPDUjBd+krEAPTPi+KKcTvgFDiM0eYJtky3D/N5efxbbzHL+8wgzjqfd3s+er0I619QFB+9Opug/f4qAXzxLw9KOxzxFnvaX2WXaAsFcNY9l6OsqA/mXXorBJZ6R77+dYUFPSPsDgk6kRKtAT/+t/TDlOudPftknH7QcZhz12VdGrJPlzwWxhkTqvHvozfh5lnVOHB0G1wO7XwswhEOcnBp6jgcTsDhBmIRo3Xt9jEIDklb9KtpSpa3olVGK9vlYVK7+oP6rfl4F5ld3owCFpUtXCTeMtM/QWc5Sx8o4bB5QssdkiUdX88kvoxL5dSpbMbhdUM/dN+ReeTA8JIQ5xbQXj4MgXhZpqG1CXPuugx7j5uM60//fcr131r6IQKhbgwUJXolJOhESjz14SsIRUIp1dl/t31x05lX4py/X5HVDHAOiJg+oBFXTN6Kd85ahyun16AsL4pEiUlCAckvHo1wVQC00VKddS0AHp+8qlmCvx6X12S5y+WYI76sVTBwnD5oh244HUafs35fZwknnFcui6smjoqlDF1UOmTLXS+m7Vjuqgjr+2PcMgYk8rGzBJa6Fg1vtNDVzwMYRyOySHXDTsy56zKcNfskzJl1Qkp1m/zNeHlRZtdIIOwPRbkTSVPTWIeZ/3d8SoI+cuBQvHfn87jsoRux+JdvLOydBmPA5LJmnL/HTkwdFoCDcYN+i1Eg0CrC6WTwFEhP+XAbR6gNyC8BBKd0jItS9LqvQJ4qJgsCF4FgK4e3kHV3bpN2+XmnB+f9PCG5ldj0weuJziXYZ4AW7W8umyBKXXUlcBii45Vj7UWvqxHspuPGqHZde1ye167uJyrfzvdgEXuMnoTnb/wnzr/3any39qek6xXnF2LJA2+hOL/Iwt4RdoIsdCJprn70lpTEvLSwBE//8SHc9NQ9WRFzARweMYI/T6vAP47Yhn2HByCAIyZy8Jj2FOcAxCiDPv22U06lGg0zTQQZh8stWbx65WKCFATXkxlfGsYhfeqlv/BkMsUB8cPr5mF31TKX55nrhscNw9uGDHHt+NzN88r1FrbJ0oZg8omr7SgWu2apq8P86nHE+9Sz/BL244ZVmPvgDXj86ntRXjYg6XpN/hZc/8SdFvaMsBtkoRNJcdNT9+DFT99MurzABPz32nn4ZdNq3D//Pxb2TBLcMYV+HDmqHifs3iwHuUlwDgSbOaIRbS44FzkCLZKlnV/CZGOOI+yXhMlbwAz1weOH1xPlZO9p/NyQh4t/HI2QomQcaGeCuq6WvM8Ne8b54e39rDuWyKrWl5fOcyg53JV55oplzcx1ld+Dad/QXlx53bz1jupniTMPPhFnzT4Jp9x+cUqJlK444QJcd+plFvaMsAsk6ESHhCIhXP7Pm/DJisUp1btxzh8wZcyuOP3OSy3qmcQAbwgXTqnG4eOa4XbyOOOLc45AozTDLL+PstAJRywMBAl+dD8AACAASURBVFqkY4Ls3+YiEA5yePJMraiK1rvgnOHEJaNRIRZA/RAJVldLKPK6VdfM+/Hrn0OJpDMNo+uG5ZXvUNSLdgerrenXTdeXF01ir56Xr5OwvKldpT7X9TdL/OuKuxETY7jyX39Jqd6pBxyL++beYlGvCLtAQ+5Eu3y58lsccv3pKYv58TOOwKkHHJvRtdLNMHAcPaoOjx+/Ecft0gS3Q17eU+SIhLghqtzlg5wvXXp4M8bgcDO4vVDFXG4U7rwEzuReKOYSHBcNqwYEJXAMuihz/bC7OaCMa8d1AWjmYXNl3rc23M4Nw+7ctAWQcB583Lx2mNpXF2zhxvZMgXPK50Oiz6ePgge0z5Xl3+11//krJo+ehAuPPCOleq8vfheH33gGzU8nOoQsdCKOBcsW4vEFL6T18BhdPgIL7noeZ979e3y/7hcLegeU+wL4v+k7sN+IVjhMD+RYFAg0cXjzAKdPO9nWxOEt0FnjnIPHmJRCtdcKduesb3TjlF92URc8MVjeyr7O4uYmSzyR5R5nyaM9yz1+GF212JXznVnsYkfH9e3JH9hsqZvrm47rh+OzxdjBI/G/257ChfOuwbLVP6Rcf+r4PXDhkWfgyKkHW9A7ojdDgk6ofPHz13h8wQv4Ms3EMQW+fLzz12fw+uL38Oi7z2a4d9Lz/4CBdbj5oB0oytOewrEIIDiVFcKAUDOHww24vJpSizEOHgMEV8+NTLeCKGe44eehWNhSGn8ykQtdf87sazCLqn4Yv50o9ThfeGfnFd+97APXR68D8nrp+uu05xtPeFwv6roy3eBTP2baofjrudfhmD+fi6q6HWm1MXPXfTD36HNwwO7TMtw7ordCgk4AAG57bh6e/uiVLrUxb+6t6N+nL8752xUZ6lU81+61GadMblZF2d/AIca0gDdAmpYWjfCEc8JzD4ZNbS6c9eM4+LkTHLopZIDO4obm9Eai/cQ+dK74us0+8A595IAyVU2qD8nCTuBjb9eCF03tiYkt9cQ+dLOlDm0cXsze4/BvF92MYf0H4+x7/gDRkHkoNS45+mzcfOZVGewZ0VshHzqBc/9xVZfF/NQDjsXMXffB5Q/flKFexSNwjv5FxpXHGAMEUzYw5gAEJ4m5BMcIXwQlPGLI8KZliDMuccrNS5Kap46ZMsTpp4hpS6rG+9y5wScPnS9e54OX24O+n2afvy5DnMEHHudbh9Y/1TefoL6gfReaSZ8dbn32XpQWluCqky7qUjuPL3gBF91/bYZ6RfRmSNBznAvuuxqf//RVl9oYO3gk7jj/elx0/3WWLrgiMoZfq93QDyp5CxhEkRuClRlD3JrhuQ3HpEJ/whzpqrhC2zfML1cDznRibMoQp4g304u6Oi8chn1VXA0vC9r14wLWlHns0PaNLxEwBPQZM9Cph+MD/Ezz1NWtXvwtJhQJ46L7r8OFR5yB/SalvxwxAHyyYjF+//CfMtQzordCgp7DvPjpm/j0hy+71IbP7cWjV/0df3vlEfyy6bcM9ax9ojGjD5w5OPKK4/3iZJ0bmTO4DnmOmFHMgYQib45ON1j2Oss3oQUvxFvWMG0NS7bqXhJUUWfG9hNa2rroda5/uWCQouPNljtLxlLXrQ6Xpdtn284qXPPYbXjo93egX0lZl9pasGwh3v7qowz1jOiNkKDnMPe9/miX27j+9MuxuXobnvno1Qz0qHPC3GGyxhkcrqwZVb0SxoA9y4KYVdhosrxZOyIqV4zLEAej6OstX7kdveWurb+unxqnWcbMbLHr1jM3WOpmS9u0Trph1TW1nrE9sFQsdeVfdm6qj1d8gXe/+QR3X9B1CzsTf9NE74UEPUeZv2QB6lsau9TGpBHjcdz0w3D1o7dmqFedwIDvd+Qh3nwiNe8MBmD//AZNzBPM6zasT55gHwxwQApiY4L8s8DgZlJEmhPSAi1ytlnpuoroMv365nqRB8zzzPUvDZyZXjp0FrthOF8w1VcsdUO6WOVzAx1b6tBEP0u31u3Pz8OEoWNw+N4HdamdLTWVXR51I3ov5GnMUT5e8UWX6jsEAfde/Bf87ZVHLPWbG2DAgIIoGOOdlyVMcIwoiMhWKtNFt+u2YBDAUYQoClgUE31tcIcj6NuHYThrg4/F0KcIYMEYwsyBSQV+rG32YHhJFJsaHCjOY4iGOVq4CwOcQfzUUoAhzgC+bS2CIxLD2lA+nIxjbSAfPCpiJ7xwcBEhOMEgAkyQovD1Geggd0/UGcwMWnS9YmHL89rVefD644KpPcB0HVO0vr4dZaJ7Fm65G5+8C/MuvQ1frvwW/mBb2u189uOXmD1lZgZ7RvQWSNBzlO/WJL/qUyLOO/x0xEQRry9+N0M96gDdMPHaxjw0BwQU+dKf5pOrDCuIYLKvFT+EClQRZ4JRBIdxP97aez0cDBDBIUDTMnXaWAlTAxP75QcBcAzxRXVJaaQ85eNLG8AYMIMHZTGuB+ciYpzBJQANQQFcEPBrvRsxzvDFjkK4HByf15WglTvRJj+eOIdkOevnlQvKIjrS+DwTNPHmai542afOJctbeQ/k8qeRtFse31dEXG1HfmkQoE2ps1jUl65aju/X/YzrTr0Mtz8/L+12Vqz9OYO9InoTJOg5Sm1zfdp1B5b2x7WnXIqTbrswgz3qAPWZy9AWYYbFV4jkKXBxXFhejes25yMoi5kkdpqonzuoFg5Z+eIXJ5PnjKtb6Wf9lhvOyfV1ZRljcMq/zxKvCEDEjAFRMMaw/0A/AIbreQ0cDo6VOz0IcwGf1pZgdZ0b1REfqiMucM4gcqZeETCJsTyMbrD0RehGJLTPpc3L11nq+peDLIv6bc/Nw+fz5uPNL99PO8h0Z2NdhntF9BZI0ImUufuCG/HSZ//D6q3rrb+YEiAlL5XpcDPUtDkxSB4+JpKHc44D+7SitCKIKiFPHmXXxGyoEMDh/ZsMuWbECIfgkPzLyswBLk8TFOS8u5xzxKIAjwIOt5zgRx4m5+AQBGbog35oG1B0VlRHCRik07uUhcDAsEffKoAxNIcEtIQZNrb4sGRbHtb48/BboBAi5Kh6UbbUuSbykF3jisUNAWCyOKuWOiAnn0HC4Xa1q1l4j6xprMUD8x/HPRf+Ccffch5iYuojUV1JUkP0bigoLkcZWNo/rXoHTZ6O3UfuggfmP57hHiVAHmZXp6AxhpaoE1vqXV0Qc45omCPklxZxySWYrJSDnSGY55GDccxwNaDQqbOwRY5gq5SNj4uaeIcDQFsjIMbUlhFuA4J+IBbRhrkDLRz+eiAS5lLufA6EWoFwG0csJnWBc0loxajuF8q4PKTP1RcJBqDILWJwQQz7D2rFzfvsxLOzNmPhwavw0n5rcHL/GozxtMKHiNGHzqCbl27a6n30unnuhvn0hkA6rY6VPPH+i8jz+HDGrBPTql9SUJzhHhG9BbLQc5Ty0gHYUV+TUh2HIOCWs6/Bbc/P61LQTlLoHqCGqUZgaAwoJ1MXZM4Zgi2SNejKUQv/yH7NWL6zjzbViwNeLmLOkEYYvlOBgcmR7to7lfS9C07ErRHPBMDp1qxwZVBcEKR6YgyIhKS28vUL5zRKdfKKGQQnADBEAtILhyBwOF2SsBpf4iRLvtgLFHlCuGmv7eAAKlvdWL3Tja935mPhzjIEY07EFDcA5/GWuiCNJECx8JUoejDjcDyUwX318pZy/RN34vGr78X/ln6Q8t9aaWGJRb0iejpkoecoA/r0S7nOeYefjprGWrz3zScW9EiHGs3M4raccVSHfUh3CQLGgLwShrw+gMu87nmOcGS/JvRhYS3CTAD2cjZhTFHIUE42TuHJhzqzQPnePXlaMh/FCHb7pCFvxTcvioDDBTjkoXkmSO0JToDposc5l87pV8ILhyRrPtAMxKLa75pzKVe/qOZcl6fRMakPQwsjOHSUH7fsW4P3D/sNz05fgzNG1qKPM6Qa5vEWO9T+qZY6lMV+TPPmlQ9sMd+t/Qmf/bgU1516Wcp10x19I3o/JOg5itvlSql8aWEJrj3lUlz/xJ0W9ciE6eGqTx6ycFNBlwwkwQF1GDfXYAwocIjow8OG4egz+9YizvXKpZcel4cZRE3Qia90UDJYHUq0m4zDCbg9MJi1HNIqeEomN0UgHU5dND1jcMjtCwLg0A2liBEOfyNHoKm9T8jVf/kujgn9Qrh2t+14/+i1eH7/1Th+YA0GuAJwCjw+o5zyBQGG+01NjiPfj9kS9btfeggnzjwSYwePTKme1+2xqEdET4cEPUfxBwMplb/u1Mvw1IcvY0tNpUU9klF8loDBB6qk9+TgGFQYhdCliLhclHIdXMTUAr+as30gQphSlvh+cCZ473N6jcPtnHN48hgEpz6CXJoW5nDrv2sGh1MalmfqCwIABrh8gCrpXPuROXSHueLvl14o1FEaDkRCXBpK5/qrKdY7hxMc40rD+PO0arx22Ho8OmM9ppU0oNCpC65UPDlqJjroggE1nzpTfesdf81dpb6lEfe99ij+cvbVKdULhIIW9Yjo6ZCg5yiVtduTLjt+6Ggcte9sPPL20xb2CIl95oZhT2m7uqUA1a2OThpLjBKcldswHOJrhAcxMAbs725AsSt+ull7gmXOk88Yi1vdjoPDW8DABO3LZgBcbm34HpD82ZLFz7QoenA1Ut5bwHTBa0yaPsZhWBpXFIFgi+SLVwLyOJeOK79rZVieMY48l4g9+gfwz9lb8dYRa/CXyRUY4AyobgAOSMl31IA4Lu9z9f5ULXuLRf2FT+djWP8hmL7LXknX2V5XbWGPiJ4MCXqO8tuWdUmXve7Uy/DEghcQDIc6L9wV9Ja5um8Ucw6OmqATYTG5J6n0cOeIhoFQK0ckAETapDXUszENqefBIUaBXV1tKEMEHMCx/RvTjkloD8aU9el1vycGOL1G01ZwMHjyjQGOilC7vdKQu9Z1acje4ZCH95Xysm9eiZhnYIiGONoapd+5rrqadEbR62KviGPHtuCdE9bh2YPW4LBBdSgUImp/Ybr/5A7Knc/OSM8/3/ovrj3l0qTL/7plrYW9IXoyJOg5yKc/LEm67F7jdse0iXvimY9fs7BHgJJ72+gz1z1MdetvuwQOIdkxT84QbAUCzRzhIBBqA0IBINjCc1LPOWcQY9Lw9O4+P0bBj92LgvHWuUUkuo7DvHa9HE7u9sH4K2ZS1L3DbTyuzIv35ElBecrccc655uvnQMjPEWqVp9YZkER+4oAI7pxZiZePXIc/7rYFA91BqJF7jBnvT/2+xd/d/CULUF42IOk878FwCMtWf29tp4geCQl6DvLKoreTLnv9aZfjvx+8bO00Nf2QqmI+KZm+dKt0KX7bEHNgwaaSTq1KLkpCHk00sJDGQ1iK3Fb8tL33dSAifx+HuBtxoKMezh6WG58D8nB9/C+JcwZ3nmkJXTAIDsDlM5ZnjMHllcbQlQx2kRAgilrqWuW1Tp8Br39+FKdNasRLR6/HzVMqMC7PD0FdQAYwjhghKyEZD7/1FK45ZS4cQnKP7Ne/eM/iHhE9ERL0HGPN1g1JL8xy0OTp2G3kBDz14SsW90oKzlItcv3qW4pfVffw5BxoDnb+FGUCEvrLnW4Ob0Fia1G6WOLDYT8QaAQiwd7rhxejQCwiffZ93C24eGRjnE+8u+moO1JAnbkCl4L31OA5QBDkOe2yBa3lbAdcHqhT62IhyXLnovYLVdrPd4s4bkITnj9+Ey6YVA2DZa4uBZudqPdXFr2F0sKSpJPNvL74XVSRLz3nIEHPMVJZ9OGCI87A0x+9av1qamp0sXl4U3toquXkbUPEmZQQ+QqloVuXF/AWAHnFgLfQaP0pw7OxqJRFTozFC7YYBaIhgDnl9KY9TASTgXPjnG6vU0SJK4rePNogIVntyuorjAFM4HB5ADUpjOx/d7qM0+OiESAahvEtgWsR9EqE+/FjGuBwSEvVMOU+FZSod+hGlqzjn2/9F+cffnrS9949Lz9saX+IngcJeg7x8qK3sHTV8qTKTh61C/aZMAX//eAlazsl6C0cxeIxBiBxuRzkchzAt43FqGzuPNEhcwKefAZPPuD0MDhckhgrzUuJSjgCzYC/QUpk0tYIRCNGURecQF6p9IKQ5Khnz4PB4H5wONH7tRxyUJwpAE9wMDg9+hcvBocLcPuYIUkOj8kWu27KnL9BSlmrvwHcThE+RzThy6bh/rWQ5z55A6VFfXDg7tOSKv/O1x/T2ug5Rm99NBEp8vWvK1Kyzi8++mw8/8kbqG9ptK5TyiioYBRvpn9YMt10KiYNzTOBoTnsQCDauaWipI/Ri7iC9ECXxFwZhlauI0VOGx/QUhssKz5TK+AxaREVQPqsLq88RdCGKJHv6j6To+NdAHT3hMMl+97VKXBahjt9rncH5wjEEo0gQZeEBpbfG4+8/RQuOOKMpMtf+9htWLV5jYU9InoSJOg5wBuL38Ocuy5NOuHEwNL+OHLqwXj03Wet6xTT/iWOHtaJvFJOV94pcIR5enPR1S4wk7UOwOmRhuWdTqZOg+Kc28KSjYV1O/KLUS7lyxOc8Z/VYRrkYYIUYOfJg+G7iYgMJe6YaeTIZKlnQdBf/PRN7DpiAsYkmT2uobUJJ956IT5ZsdjajhE9AhJ0G9MWCuCGJ+7Etf+5PaV65x12Gp5f+Lq11jlgeDhqW11gnD5jFxTLXSoXhoAPtxShy09QB+ArBgpKgcI+kp+dOST9joaAtiYpaUlvn+TGRSk/uoLTDdXnnMtI8RDaPmOSda7cAwqlPhEFzogh6VF35HoPhkN4/P0XcMHhc5KuE4qEcNH91+LWZ++lLHI2hwTdpmyr3Y7j/nIeXvk8+SlqgJQH+syDT8Sj7z5nUc9k2rPMDYFx0Im9sTxnDIsqC7scbc4gZykTGJiDqVY75GQ0TI6K7vUwgMe0Xacnl2zz5FHS2JpdNP4Iw86Q23BfaveneZ46LBX15z95A4fudQAGpbgIyzMfv4Zj/3IuttdT9LtdIUG3IesqN+Lom8/BusqNKdc9dtph+PrXFahu2GlBz2QEva8c8cOXQvzDUX14Mq18UHBZ9uBkjMFXxOAr7r1R7XqiIS1yW5rWpXNrECpahjsjBW6OoQWSdcsMI0cJMslZnEHOH2zDu19/ghNnHpVy3XWVG3HMzb/Dhu2bLegZ0d2QoNuMHfU1OPn2i9HY2u5yVB1y1uyTMH/Jggz3SkeCaPbOLXMYHp7K/PRW7sSaOrelc8ITBdP1NjhXkutIH8TlQULRItonHAPq2pzGl0sgPqOhYSTJOuZ/uQDnHHIynI7U40hqm+tx6l8vRm1zvQU9I7oT+rO2GTc+eRea/M1p1Z0yZjeMLh+edOKZtFEtb+khyHSWuZKtSynHlWIMcQ/PCARUtwq9Nuo8ezDEdMPtDocx4IvoHJEDBV55ZRhF1FVL3ZgEKe6l1AJWVayBPxjA7Cn7p1W/rrkBtzzzjwz3iuhuSNBtxMqKNVj001dp1z87G9a5wcKJn3euzwin1DHPU1ceoiIHfmosJHHqhFiY69Y65xBMudCJzvG5gGgMCUaO9MPt2v3J5MA5K7/n1754B2fNPint+guWfYqK6q0Z7BHR3ZCg24gXP52fdt2SgiIcPe0QvLHYWkE3zjOXp6QJxoehIbBIPY+4aHjGgK8ai9AcInXqiFhE+1kQGJwJpm/lMp2uCcCB1hDg8xpfLpnu5dLgQ89Sjvf5S97HAbtNQ3nZwLTbeGXRWxnsEdHdkKDbiC9Xfpt23WP2PRRVtTuwsmJ1Bnukw2Bxd5ARrl3fub685mtfF8jH1haXNX22AaLIEdUJujQdi6arAZKQR4JSIplIUMo1oI1kaDAG5LmA1hAzuIsSBWomziBnDXXN9fj8p6/wu0NPSbuNr35dkcEeEd0NCbpN8AfbsKWmMu36h+19YMpT3FLGNO9ctdQBGC0eLSOcUj7espdWX+MiR21AWYWDMMM4pLXfZaT55/RdgUv5BYKtQFuDtG2p5/A3iohFjVY750BLmKGNuaUDutuYG+7f+Hnp+vJWMH/JgqSXVU3E6i3rMtcZotshQbcJXVlApW9xKfabNNVy/3n8vHPEWdzawzDeko/fAhAYvqsvaHfYlMtWV29dHa0rcM4RCRuPSQFxhMiNrggAsoXOEGjmcto3jUIPhxcRw9oD5vnoiealc4u/7I9XfIEBffphdPmItOqHzDcI0ashQbcJopi+Yh2x9yws+WUZ6pobMtgjHapFY553DnQ671ytp2WQ0+d6BwO+bShALMHHF0XA3yjC38ARbM1BRQdT1z4HpKlqDjfJOQAwxuEtAoQEs77Mi+8wBtT5BWyP+OR9o4+803npFo6IhCJhvP3VRzhu+mGWXYPoPZCg24TBfdMPjDls7wPxhpXWOWBc7zyBLzwl3znTynMADREXHAkemowBLjeD0yPl5s5JTD7hzgLAcgXGGJwuhrxiBl8R4M2X5ud78qVUwPphDM6BPDdQ5gqbRpqQMNo92/PS31jyXtqCPjDFbHNEz4YE3UZMGbNrynX6Fpdiyphd8d43n1jQIxldIFG8BRM/7zxh4JH+YWlqt4U5sbLRGzeszhjgyWPwFjAIjhyzTDkQi0gBXwpuL0AD7kYYA5wuBqcX8BQALm982lfGgIaAgLqY0YceHwCXSNR1BrpFlvqKtT/D6XCmNey++8iJme8Q0W2QoNuIdIJjZk3eD4t+TH/ueqd0aHEjfoqPYduez93YbggOLNha3O71cxGOeB+x4KR4uDhkt4155T0zEc6QJ0RMljk33I/SVnlJTRTtbt3oyIfLF6Vlpc/cdR8LekN0FyToNuKYaYemXOfAydOxdNVyC3qjwXQmuDFaXXoosjgxZwm2uih4QZdBTjqDr2oLkLPqnRAOMartMQZK9wrJ5aDltE9eYAMRoI274gI3pR+A+JdPrpyI87lbwdJV3+LA3aenXO+QPQ+woDdEd0F/4jZiaL9yjElh2I0xhoN2n44lvyyzpkOy9dPR1B69hZ7MvPP2fO3NzIWISIKuwpk6/1xZzj3n3A4JiEWAQDMSRrJ3RE3QAwFigmF2uUDc/WmelaGUy9QnMfL1ryuwx+hJKMwrSLrO+KGjuxR7Q/Q8SNBtxtTxeyRddo/Ru6KhtQlVdTus6UwHDznVotFZScwk8oZ55zDOU4ep3SbuxoLKopycnmaGc67mbg9HgIYWjgY/p+8G8j3F5ej2JMWVgwHRKERBgD56XbW81baNUzOZwKT7O0vR7svX/IhZk2ckXWffCXta1h+ieyBBtxmpBMYcvveBFg+3JxiG7NDi1j0M25t3bhi+1FnyAsOCqnb86DkGYwzRkIhAiKOuhSMY4fD5yH8OAA6nFMXuzk/++2Dg2BTIk4boO7C8415e1VF33X1qIUtXLU9p2H3s4JEW9oboDkjQbUZZUZ+kyx40eQaWdiFdbOeYfeCpRLfzBPV0zanlZEuJc2wL+XSN5DaxKENzmzIAwuB29/5lYDOCEgCX0n3CUNsqtHMfQx5pQgJfuimfAnTlLWDpquXYb9d9dDErHdO3uMyajhDdBgm6zUj2j7mkoAjjh47GFz9/Y1FHzJnhko9uT8V3ri/fCCdWN8dPX8s1uAiIUaAoTxJxpwMoKCA1TxfOOVoEjzp8Hn9fox1fenbnoy9f8yNKC0swcdjYpMqns5Y60bMhQbcZja1NSZXbd8KeWLN1Q5dSxnaG4q+EPrpdiTCWDssF1QpavQ6HNY3llYdmSHBiQVWRZZ+n1yB/xz43x6BShrIiBsZy8y1HimrvaisMK7Z7pFX/ePxLpjnaXdo151vQ+dwtFPWvf/0Oe47ZLamyTf5m6zpCdAsk6DZj7bZNSZWbMmZXa/3nCX3iMA5TquWAhJY8T1xeGd4054YXObB4ZxEsfWL2cDjnWrpX+btze5B7U9Y4EGjhaGtOkLM9RYIxhqL8+OQxHVroOv8QN1v2HJbdoktXLU86wdSGqgprOkF0G7n2Z257lv2W3HKIU8bsZp2gq1psjm4HzD5GKOUSWfLtlFfWR0/UfjNzWvOZegkMzLBcKiCLeQ4a6E4n1Ix5Xfn8boFjm98db3nrRRuG3biX2bhod4t+H1+u/BbTd9krqbLfrv7Rmk4Q3QYJuo3YurMKG7Zv7rScx+XGlDG74hsr10JO4As3+MRV1Y+3tM1R7ZC36jOQm33y2sOyiXmwYHuOW+mm/O1Od/f0o1thgNPLkFcMuPNYl26HLS0uwCXEWej6/ArGkSOY7tvs+dJ/3bwW+d58DOlX3mnZFet+RnNbqzUdIboFEnQb8fRHryZVbs+xu2HlptVoCwWs6Yje8laHzxWLpuPo9rgoeJ3PPVF0e6LAozeryhAxiZpt0WkKuLTqnrr+OZdWnBOQm683jEn3SFei+zmXVl8LRB06y1u5P/UxHNC5iZQOwBRIxwzB8VaxdNW32DPJYfcXP51vbWeIrEKCbhNqGmvxwsI3kio7Zcxu+Gnjr9Z0RPew4nGWNOKGJ6WC0Mqh/cAjo689fp46AHDGsDrkQ23Q3rc259L3G4twREIcoQBHNMLBY9oXGxOBnU0cosCsVxEbs7HRBdGhux91Is3jYj/kSqrFrhN/9e9BPm/Rr+Snjb9iSpKBcU+8/yL8wTZrOkJkHXs/9XKIW565F6FIOKmyowcNtzYgxmS5JJu7vaPMcB1b8soIgFSuDU4sqSmEZU/MHgAXOQLNgL8JCLYA4TYg5AeiIc05y8Hh8wAORw460DMEYwyVrS715dQw4mQaajJHuydOqqSL/bCIDVUVGF0+PKmydc0NuPe1Ry3tD5E9SNBtwJtfvo8Pln+WdPnR5SOwYXuFZf0xPPygRfkCUtCWMvrebnQ7EB8VrzWn+S7bseRFgeGjllIEYjYVdC6Jdyxi/HocLhiWS3U6GEqKGASyztNG5Bxr/Lq0ch3OM4dmmcNk0UMrb3XGuA1VFZg0fHzSE32E9wAAIABJREFU5Z/+6BUs+snCFReJrEGC3sv56tfvcPWjtyZdXmACJgwbg/UWWuhGX3f7AUHt5243B8oZG+4oel55WH7nL0JFs00j3pkk3oIAMEFa5zy/GPD4gFjUWFTQvwARqcMZNjS7dGKtHzkyBmSa55knLie/5GoFMs6mHVvRt7gU/UqSzwQ394Hr8d3anyzpD5E9SNB7MeurKnDx/delVGfkoGEQRRE7G+sy3yHZL6hFsZseYobINqMlzwyWvM6ENzwk24lu11vq6tMUqGhx2VbK3D6G/FKG/BI5L7kTCQXC4cp+3+yEP8rgZ27dbakPcFPcPMaXSQDGv4M4y1z3UmAR6ys3YdLwcUmXD0VCOPcfV2HTji2W9YmwHhL0Xoo/2IZz/34lWgP+lOpNGj4O6yo3WdQrifjoc8XXrRRQyqkV4kXaYMnry5na54nbFwEsC5RoF7MpTGBqJHcsEp8VjQnW+2ztTIwzVIU8hpdKcy53FndjaxtDVLx53rqFrK+qwC4pDLsDQGvAj3P/cRWC4VDnhYkeCQl6L+Xe1/6NbbXbU663y/BxlmeIMvvQDZa26bBcoRNLHrr2APOqV4Cufd2zdXFbCbb5XTmR251zeXjEeJTWQO8SDFUBl7TUqnqIqQveJLK8DbM8YBR7w0ur8n+Lfj0btm/G6EHJBcbp2Vy9DQ/Mf9yCHhHZgAS9F9Lc1pr0nHMz/YrLrBN0cyCbwdKOj1pnceXiLW3jVCBj+fZXYZM2tTE33qgqseCD9kQ4omFNKBiAUJiBCTnwNmMhm5tdCCuPyXbcPizuBtR2jcPsOncSrB052VBVkVRymUQ8+8lrCEXISu+NkKD3QhYsW5h23SH9ypPKJpcW7Ua3x1veUnyR3vdo9oUr1VgH7RvPa5a8ss/xYUMf40GbwhiTAuI4EIkAlXUimgMieA58dqvgnGN9q0/aMfjEk7O8E/vQE1n2mWdDVQWG9huUVt1AKIhPVizOcI+IbECCnlU4JO9u1/h5429p1x3ab5CFFrqyNVvQiSxvaOKesJzeMte3i4Tl2rPkWwQnmqMO2w+7iyJXX2gcDqB/sYCyIkFJe0+kAQfD4h0FhpdQ5Qez5a2JtdnyNke3J7DsLWDD9s0Y0Kd/2kukrqxYnYFeiMjE845IHpvO6+mhVM0HVt8GCD4gbziQPxLIGwHkydv8UYDg7bSZ9VXpBbU5BAEDSwdYExRneIZxQNA95DjkfeU85FdJnU9cMFnyeiWSyxsseUEX1W4qL7UnVWxlbrxdXYzfDbEgqj8DcM4zMvTKOFOjrh0CAEGKcM+5VdYySIwzRBwOIKZzZTDIGqWL3RCNPnQu6sZFGNOVl3/XohYdrzPsM0pLWysaWhoxsHQAtu2sSrl+0tNaxSDg3wi0VQBtm4C2zfK2AogFgHF/AoaclfL1ifQgQe8OxADQulr6Z8bT3yjyeSOB/BGAd4haJJBmDvYh/cqxpaYyrbqdoj7ttOhzJmgWCddbMgl84YnSuJotdHO5+Pa0ZpURABEcL1b3xXH9GlHiUZKc9wA4EAlyxKKA08PhdKcv6pxzxGIs4ShEpl4YcpGqVge2Rbz6UXItgLO9rcj1Brkk3srfgyz+TLcvnYclor5huzTsno6gx0W6B7cB/gpNrBXxDlVnoqtEhiBB72mEaqR/Dd/Gn8sfDeSNxPljduArZwwbm4BtrQJq2pJ7YA8q7W/pcLshg5vADJY301nehuh2g+UNk6UNg1NIb3knbg9ye0qHpOtXMR9+aPRi1oDUpvhZBeccsTAQ9Euf3OXrquBq1rkep9PawCu70xR1GofZRRinnqn7RnFWQ0dEuRyXX0blfTVWRLTOQgckK3tI33IAya2q2D+PY0iBiFHFwMHDNgO//B8Q2Aq0rrGmg0TGIUHvYUTaYnDlteP38m8A/Btw8jDg5GHa4VAM2NbCsLWFYWsrw7ZWhm2tArY2M2zzM9QFpIdQgS8fNY21lvXdaDHLFkk7q02pPnRusrS5uT46seSV40hoyQMcnDF811KAWQPaYNnTMwUYY3B4gAK3LpCqS5Y0j8sQB0BeOKRrcN3bUi69HHAOLK7KR4QJkmjLGeI0sdavIcC03x/XkiQZJ3no7m/o7ntuXdhiTWOtIVtcmY9jSD7HkEKOoYUihhRwDC3gGFrIMbiAw2tQg03AzsSuuWgghsYtUdRviqJhUxixMMeMq0ot+hREKpCg9zA+vLEWYb+IPsNdKBnmQslwF/oMd6J4iBOCO7FD1OMARpdwjC5JLFZtEWBbK0PMvRJitBaX7BbFlhZgW4uAra0CmjI0Q0VvQatR7qrFrVjgOknV+9oNgXHQot3NgW86y1tptyNLXrnuN5ESNIVrUeSKmWcXdQvM+L8utyZG43/3DpdOgNJEjALhNhFON4PTk1s++cqgSxs2h8mHrrO8jcPu0MRchM5iV3znmsobfO0ZoNgDDC0QMaRQxLBCYH/3QvQvDOPEk4IYUsCRl0bWwGBjDA0VETRURFC/Udq2bI9Cf9+W7+kBIAVmChSF2a2QoPcgYkERLTuiAGfY8UsYO37RVk9jAkdRuSTwJcOd6DPciZLhLuSVdf4rzHMB4/pwAFUAqjBpH+N5fwTY0sJQ1cpQ2Spge5v083Y/UOVn2NqS3FPcbJHr96UCSjnNQk9kmcdb8tpDsTNLPnHGOYY1YR9erinD3ME1SX0WO8C6KOaA9DWLIkPQL91HAssNSz0QZfilrUhT8RQsb+OwO48Xfejv2+RFfWihiPJ8jkH5QHkBR3m+tD9YtrLz4wRbng3TJ7XPHmqK4et/NaKhIoJAQ6IodWOPxbwYft3YiD6Fbgzql5faxYiMQoLeg2jcGml3nJSLDE3bomjaFsXmpdpxdz6TBV4W+2GSRd+eNZ+IfBcwsZRjYilHe9NMatqAylaG7X6GKr8gbVuZKv7VQeNCKcbV0ozKolnURp+7RCJLXrIMO7fQtesby0n7b1T3wSWDd8L6xJvZJ2aO92MAczItOCtNnG7A4dIJWQ7AuRTY3hRxaJa0bHmjA8tbjVoXdV+5wdcu7ysvB8r9yoEBeRzlBRyD5G15vvRvUIEk2v2zqJP+nTFU/ZD8sB3P54hERbhcOTR800MhQc8qHQtJ45YEjtBOCPs5an6NoObXiHrswBtKMXjvzqe/pUL/PCloZgraF/3KVsmir2oTsM0P1IYE1IYYasMMOwNAbZihNiyYLPcOLHRF1DuwvON86B1Y8gGntFhLV4ehexyJbivlg2ZgCJQxfXCdnb64xDAG/FLvQ4vDrVnY+mj0dixvpt2AquXd1y2inxfo5xZR5gX6eTj6ejiGFHCU53EMyhMxuMC6z6L3dxcPdmDAbp0/F4LNqc0GcfeR7gm3M4Gg2z0BRA+DBD2rdPwwbKiIdHg+Wer9QXgagLJiD5jpgd5cGcHaj/yyj96JkqEuOLyZebMeXAAMLuAAlAdC4gfDziBDbYhhZwjylmFnmKE2wrAzLKA2AuwMM1SFhISWfEfz2zVLXvGla0LUzFx4aNsAXDO0Gp29XPU6uG7LpKVVKY97mnCGzS0eLeBNZ3kDQLmPo69LRD8XR383UOYW0c8ti7eHo5+Hq+KdTUJNMdRvkvzcDZsiqFf83fKoX9EQJ46539Pp22ywKbVkMK4SqT1XIkG31Ztzz4cEvQfRuDkzgt4ajqByp4jSYk/cK0TFlwGs/aBNO8A4CgdK/vg+w1woGSEN3+f3c1j2x9jPy9HPyzExibLNsrjXRBhaogKaokBjlKEpBjSL0n6TyNAUZWjkApqiHE1cQFMMcSMBnDEsaCnFGcE6DPRGbGNrclHT86gIRKJAnlc6niiITYxBXoXN1I5iZbIujtP3AgQ4wBiDwB0QIIBBgMAECNwBDgG7lBTjkcIQip0cRU6O/i6Ovm6Ooh60HG39+jC2fReQxTuKQH3H/u7mbVF891EDJh5YhHxf+4/+dAXd404vKx2ROUjQs0rHb+wNGRJ0wSX9gSXS4y1fm5LScIaW7TG0bI9h6zdB9bAzj0kCP8whWfMjXCgZ6oTTl90/2iIXUOTiGN3BUH97NCtiH5P+NcYYmkXAF+uLQoQAiBAhgsv/pJ85OBMhcvnnHpy6kotALMql1cDkW0sUAX+QI8/H4sRcFIFAEwcXAbdXir/QEw0BsYgIp4dJWeas1nTlzyGF60jCy8C4JMJMOgKmCrQgl3KAcYck1cwhlxIgcAGMOYzXT9CfI/oBQOousGzCOcfK+anlVtj6UQiluwYwakhhu2VSEXTm5HAWMDgEIXGEOw25ZxUS9B5CW20UkbbOyyWD4IL00DM9kZu2hNFcmZx/LNrGsXN1GDtXA4DyEsBRMMCJgbt7sM8lJdi4qA1ijKOgnwP5/RzI7+tIKRjPaoqcQBE4hsY9ufPlf+1gKs55DCKTxJ1zUf45pv3MRYBxeaifq/8ZfmYcnOt/RvxxtUbiB6pmQcsHGEfIz+GWE9NwLuVxj8aAmJzbXX8PCALgLWSIBDkEF+IC5sQIEI0wRCIcBSXadTjnAGcQYxwOh7wmvQBJVAU53gHy/caZ/DO0n8EAWXrlV01AZIgEAUFgcLkZmCCLLRiYIsCcgTEBjMsijnaEuJ3fW8IXhR428BBsjKG1Jopgo4hgUwxhP4fgZHC4gbxSJ0pHOeErTfyYLhvrwbDpXmz5OpjwfCIC2zh2/BLEoL4++LyJ2w2l4EN3lTCAMbgpIK5HQIKeVdp/mjRUZM4aYG4kfFvenMIffjsto7U6htaaCKJREXXrQ1j38f+z955hklz12ffvVFVX58lhZzZHaaVdBSQho4AAyUKgV1iAH8IDNgYTLPMgTAaRcxTBNtgEiWQhbGyTg4QMEggkC+WwChu0eWd28kzPdHd1V533Q4Wu7umZ6dPbE1Y793X1VV3VVadOhT73+eewxC+Jt3rk3mWQ6tS8ZWmbZiyxEbUGCKET6CXC3VfxE5M1fJ/xUIeQZwDIUqUu2exNHVrcCYQjYXWTRNdB91XnQZU6gTAkJEsdF743oRCINIG9Vfg+CsKX1AWictD2ncTquS4NqPTcrryPTwE/POlIpoZsMn1FJvptJo4UyRz1lv02xdzcL0C6R2fLZUk2Pjs+TUN2+svTHLgri7Rrv0kDtxUZOCPHmp7q3ni58dqlal/dPiOhL9vQFxTLhL5E0Cj7ObjhStX+RtPU7XWi2OLwyJ5RtM5pZyY74pAdcRh8Yvr1/NlVzWx4ziyS8TKqQnhZc6qOjf628HhaaeediSirn0xt+zJwipLJo0Um+otk+mwm+opM9Nlk+l3Sdo5xrj5xxOaeb47z+C8nuegdrTSvMYPf0j0RNl+S5ImbalfvTe6WHN6Ro7s9XtXunRutXUI3W9wXr6qH+zIWHMuEvkTQKPs5eCr3Cgl9dF+hZnX7XIitcNtuXWsCtUv9/ftytI4ZtDSZsyYnyQ4Vufc746S6Pcm+05XyE506+hJS6S/jxIC0Jbkxm1izTm7UZu8fsi5h97kkPjVgIxuRZ3cOZPpsfnXNIJd8rJ32ddFg+7a/TLPntmxN0r6PgdsKDGzLsap7+gQ7N167DT3SOouH+zIWHMuEvkQwur9RhO7aRyvD1fbf0SADPRBb4f55O9abCCFrHsyGD1ns758kETdm9Yjd+etJ9v2x2kRBEmvVSXV4Kv0uLSD8FadND9FbxjJmgk/SuTHH/Yw6ZEftwJad9bblxmzy424mmcs/34FdgPu+O1HR2sK9d3YebvvcMJd+sp1U2pXUYy06p7wgxYP/UdmvmTHxqMPhXVm62+LTEsLkFQjd9FXuyxPtJYETg9Adyy3zF1+92D2pCttymDhcnh+5XoiIa/Ss5LZjt5977RsSs8N1cko1RUivjDB+sDadYmHYXeYte0ZCdwoOO3890+RDkBtxyI04DO4sTYA6TzbpOUMtkc7kQBFpu57ekYSGWI7ZPu5RD0nXBne/4b4CqbWLT1y5fsm9Px/jz17chhlx/0cn/39JnrgpQ26sVildMHhrkYEtOXpD6VqtSUfJRBDx0souaQk9exCinaBF5973OMeJQeg4yJ+vcx9ocgOkN0NqEyK1EVKbwOwAs839GPOYtmkGjB0oNkxlpxnuHzqsch/dV2DicIPU7V2uZ7MZccNUWtfVTujWiNs3qzizBLD/jhx5BaccgNbzNA70TZKMG7Q11/anveebYxz8Uym9pR4VmAlBJKlhxl2SjyQEZtJbJjQi4e8VvxlxsawhCMHOO+TGHfJjDo5d/jwjCUGizSCSVCABKTnyQL7hJK2CA/smaW2NEE0L8hOLG441dEeR/edPsml1EwBGXOO0l6S56+vjNbcx9oDNkSezdLfG0D1CzivYzyEUg75YhF7MgDXsfQYhsxuZ2Q2ZXZDZCZk94OQQL6xde3E848QgdC0G618HT34dJh51P8ziiBvt8gi+HczWgOxF6Dtmu2usVkHmiaqbG5UhDkox6FrIRt1IdXu0x203HnUlg7Z1Bvtur+3YYgYcS2IVZib0x29Si6uNdgoiGyTD43kSM4ThVENhqvzp23lJNi9nKEZRCyRmSiPZoZNo00j3ROjcatJ5kkms5ambcMO2HIZ2FhjaYzG8u8jIXoupEYfi1NyEZ8QFyQ6drq0Rek6L0b0tOjPJC8FtnxnGmfWvMr8TquK4W1EstcIgP9G4/2w9yB6WjB21mOwoBkliNl6c5NGfTTJxpDZSllJw9HcFBjbmWdEeB9Ts52gSIy3QNBFMCKYhswsGbq29TXDjJ62hgKilNRIi7ZHSb/kaCy2t/SvQT4yiMScGoQNi6zXIJ79e2875o1VflmOdk4tYCyR6pm1vnP3cDVkDN+bYR3V7dH2IdbsNxzxCb12nNqkpjDhYbdUHjeHdFkNVvONnQ8eFbka7iKHR2mTOfYAHa6rRCWMEVkZiZYqM7AWweOznk4Ck54wYW56bZOVZc6fdrIbfXzvMyJMFN/Zbww0xE6Vsb+52AZpLaUITCM3LNe4dIxDB8UKDs1/TTKKjzr+/lBx91OLJ26bYd2euJvKuhmJWMnagyNiBIjtvzqIZsPE5CU59Yapq3+LNGpODi5fopzjpXmeyS2No56J1I8DUAcnQynxA6EIXnPGKJn7/uZGa2xi9x6bv4iydLTF0XSgllTGbXa3UrB7uu/4J+fBHam5zPiBO+cCinn8hccIQOok1sOENsOeri92TaRjd17gYdF9p4Aeuje4r1DxjrwW+h3vMrI/QrRHXhl4NT/xKTTo3mqHpDLcf7c1RpVrMlRL6/EFw5P48R+7P073d5Lw3thCvoeRtAE/VXMw2tr/rLyrURehjByzu+to4A49Zc++sCKcIO2+eYvf/TLH9JWlOfVF5NrNYi764hJ5xn0Gia2loXHKHHTJT5RPg1efG6diSqRo2Wg2yKDj6+wJD6/J0tcaUCrPMGYO+FLD2Va6Z9QTBEn4SjYc45f2L3YWqaGTImvASt/gS+r4/Nk7dDhD1PNx9lXu0WSfeWvtrZA3Lqjb0/LgbDqSCjvN0NF2g64KOFjWHF2ty4Ymh/yGLn799gIkjtT/vicPFhpM5wBP3T7Bjz6jSMTt+NMEv3jE4L2QehmPDAzdO8Id/HkaG7O+xlsUdrooZdxntWBrDpjXkli0tVJiwzvyrJqV2hu+yOXI4i+NIcqPqIWu+Y95ShNj24cXuwoJiabyZC4VYD2y8arF7UYbsUBEr07gBW/dV7p5qVyUt5FwwmsBIujazsJe6ipReGHFwHEnRLh84dv9mag77aDm0mKT1bE86b4qi62qvcmEeSLIWWBnJrz8+yNR4bRc73ED/ijCyfU5VMpgJj/z3BPffMIFsnLJnTuy7Lccd3x4O1mPNi0sctvc/jbU3wlYviTRBrNd1yakH1rDbn2y+XMPXeXKUVWfXPsF18jBwu8XIuKUUsrbkY9DXvWbJRjbNF04clbsHsfW9yN3/stjdCDDSQPs5gPC4VdMEI3sbrG737ecVIWet6wwO35evdsg0+IOQVXAwPBKWjmTnzWrq9rZzDbSYW1u9o0UtZM3OOQtKTJXI9Uv+9ONRzntZ+7QY4EoM75kfQs/1uQN3Nm/P2Yf9f5zigRsXx0t4369ytGwb45SnNxNvWdwogoJnQzfb1QmsaZtGYo2G2S48P1vNDTH1kD1gc+DGIoWaw87AGnKfYTUn0zNe0cShe47WniPijzZ9F00ppX01mz1CX6Iqd3HqiWM797E0n8R8ItYDG9+42L0I0Mgc7hDyctca690OJft5vJLQ19cuoVuewBUehA7dk2NyQK3CU/szPBt+2lQeUBrvEKeOgdsL7D2cmXO/4Sfnh9ALQxKnIMnN4M/gwyk43H9D7aFQjYaUgl0/yjIwklt0Cb04IUFKtITAiKtNLtJbddrPN0ifrBPt1hERDTOik0pEaG+Ksua0JBteqGY2srMCe0qSr0LoTasibLy49jTLxSnov7NAZrj28ciX0BctZG02rH/tCSedwwkooQOIre9B7v7yYncDaKxDHIQkdCEaqm4HiHkha76Hu4/WtQqE7sWihx3jVJ3hWs40MNJumcyuNjXpHEqS1mLCGoaxoxYTHQXSyZnv38g8SehSCvJHJbn22Ql9z2+nyBxd3AnQ5C6bA/smaUktbGIQzZDoKYGRFhhJMFI6sghF2yHdrStNxl1pWmd9b4poRMc0tWnpj9vOM3n8W2r/WWvYweqs/gy3/58UT/5uCrtGl4eh3xeVInGXslOcOOV9i92FRcEJSejEemDTm2DXPy12TxpalAVKXu4TB+2GqtshJKHHygk93WNgxERNuaRlAYoZB6vZJYnxQwX6HsxTewyxpP0C9/zNqcisKWRngpVdfAkdIHfYDTuaidAnjxax5nHyke9zyG2Y/R05VKMpZT4hpWDsEZvYuvl7bl2XGkTbwUhp6CmIpECLVSeqYlGS7jGUCL3gmZqipj7jOxtrNdCjAjuvoHYfluSt6vcl3maw9YpkzTXTC0qKGInRLNCEwFhqEvqGN5yQ0jmciCp3D+Lkdy12F3Ash/HDjbahu8R49J7GDsRCl5gd1W3oCEHLmtrnhtZwKbnMEzdNopIQpGmbHngZd7aqS+ewkCFrs8PJw2RuZlKYL/u5j1yfp3KX1e+HdCRHdyw+oQPkjzjk9er3QxiSSAvEVwvSJwtazqzDxn2yoGmbQWKdRrRDw4jrmBGdRNSgOWXS3hSluy3Oyq4EXW0xUt1qspA1VPIdmQ3pbkXz0aAkX3TcmvVVcMoLUkTTjfc9iDQJNF0sSfu52Pqexe7CouHElNDBldI3vxl2fmnRujB2sIh0Gvtn8yX0vrsbG1oU7RIIXWBG9Koe5a3rjJpjXwsjLqEXszZ7blMLVfOl82TcCBJqqKKgaEM3mqD3BRHsnMTJgZ2VOHl3mTsqyR5yoI7nKG1JsehQtEsOgmEMPzm/4WG5oy4R5CxnmhkFYGrQplCnG4YQklivRrRToKcEdk5SHIPMbruue2WNACk47a9TOFGHSYroKTdTs14hSUtHMnZ/TimdcjEDqZUaG1eliRjanDkN0ivUnk3eI/R8wSY9rb5tqN0eg9H9tWvWrBHXrl8oOlXDx4yEzra/THPPNxvrBxGo25eadL7xqhNWOocTmdDxssft/io4jbU114qRBtvPwSX03GGHyf7GqidjFfHnlWhdbwK1kbM17A5Ae27LKmUZS24QJFa7569XOgewFCX0SEqQ3jqzaj8/6HDwRotcn2JHPM6Qrnl1Gob3NP79CCPf596HnGVXJfRivr53qPl0QdfFZlVv8GLG4cjPi4w/qNZ2YUSimYLeZ7p29AP9rhrZV/kamistGrrA0DV2pS0sBY/twgTYjqzZhKMqodtTbnTFTOrx8nZr14pYgyXJf6Z48M2XJnn855mG+kKUYtCXFqGLrSem7dzHCU3omB3ujG7nFxbl9Kr2cy3qqmlng4gIxh9qPBFUZoirhKpjnJSSxxWd4TqeaQR9aE7Vnua1EgXFpDKaN3doa47S0x7HkRLbltiOdGPquyUtr81z98fm9lovb9e9p3KGpMIjih7u0U5BfqB2EitmXILN5mxa0tN/t+vQtjdv11j1ktKzScYjpBIGMVNHCLBtSc8bitx97TiZPbX31fbyBhSKDu3NUU5e20wkMrMknWidwBqv/X9gT7r5ERxH1pRxMN2j7rtRGAarfQ6V+wq1dv0w0LzlkJohXblmuClhb/+CWiKh2bAkY9A3vhFiKxa7F4uKJfQ0Fgdi67tLI/YCQzUGPdox90CjmTD2cOOdhyozxFWiZY2BELUN0IVhyeRum4lDtasWYysgtfnYpXNQD1vzidfQXWnQjOjEYwapRISmlElbc5QtpzchdDXJX/cuo9LbGdyEQyp5tQFanqb+d873zxy6VlklrRb4ky5D19i0Os2m1WlWtMdpSZs0e/eqtyvJKZdUmUHMAj/pkFV0MAyNaFSflXjjrWrEWPTC7CsTHs2ERJuuXJspP+RgFWZ/51Ul/2IGnLwzYzplH2ueEadtY+PkN1/lvpQIXWy9ZrG7sOhYOk9jsWB2wKbFiUtXldAjNWSosgZkEOvdSMwloetRjfTK2ka4wrBk6E41D3yfKCKGRmu6fukc1J3ifOLVZyEQp+AgbTXbsO5NFKq1O/ykupalabselM+tFYFjXLX+RdWHh2iXey3relMk4zO/Dy1r1NjQ8Ty/7RonGbFmtWfhF14pFmu8f0LU4RjnStIzObCBZ35RhDU8e0liAITgzFc2qzc+A0y/bKq5RChk09UnvHQOy4QOgDj5nQsupedGisp1v2M1SOgTj889IgjFQd9IueE8mhCYs/yBa00Ba41JMo+qFIFwvdvBlc6Pte64qlOcT+jaLJXS6vGc1+OudF5N0hzeo+Z0ZSTAbNWIdqn9pfP9rtToONP7b9QR9i0diOjanA6L6pMFgVNOONFgAAAgAElEQVSQs5JhGKpJaHwJvVCjhA7q6vHCsIPE9R+pBulIr0KfGgpjck4JHaB7W5TeMxoTy28GTnFLII+7Fl0SUUtLAcuEDq6UvuUtC3rKehziakk5WYsN1VQopgIQ6ymVTK2mHvbRtq5WiUUoeSB3XGAgdIGuabQ3H/uApBrbrUU9SVqfuc/1FHvRotXJHGBEMYd7tNdtJ9Gr9mxz/X4+8OmEYJjqEyfHkrNO+nxEYvW0DU6Nt1m1kEsx4zZcVDAzpFfUGbpW4RiXH7M5cEeWX79vkCP3qzsu2Bk5ZzicjzNe2QQ1msZmhsRoEQghMIzFTccLuDlFlqVz4ER3igtBnPR25M5/BFt9hlwPVNXtelyiJ449fjrWDU5BrZ1od/UMcZVQLaVaC/S4pOWs+kqkzoR6JfTZVO71SOhabOY2VT3c4x6RN682GLq7du1H7qhEOpJc3p4mVRszJFaZDdmDknT73PsZVQhd6BItAiIq0CKgmwLNdB09Na+UvDNfErrnz1icS3UdgqrKPTcgGbm7yEO3Z7BHJRN9RSb67brryfuQjntfip5/wWxoWRthw0Vx9txaf2SPkRJoETeqYLYJ/oJAT7ga1mUAy4ReQqTFJfUdC1NuT7VkamyFhlM49j9PaovO4O+LqCRzmStkzcd8EHrbeQaa6Wak6mxtjLpQNWzNd4prpISuRUFooiqh58dtpobUfAxinoTuRhvULuVJy/WUzrVVkdDrkKIHbiuSXq3D2tn3izZpXPHFTiYKBfrGsy6Rz3J/fdhVTAPVEG9Wm4zYGTeeW01CV5s02JNw+IdFoMH1G7wJp21LjBpG9NNe2sTeP+SUqhuGEYSsKVY4nBdseQuYNcwgTxAsE3oYW94KO78IhbF5P5VqUZZYj6j7DxhGtFOgQuYwt0Nc0LZXGz070hgvexFxq6oBtDaZDUsxqSqha948Qm+gDV3326xCYqrhalCS0Ds3RAG18Ll8vyS7ejqhC92VlFXeu+x+yY5PZxnePkjX1iidJ5m0b4xMS/4iNEF6ZQQnI4k5rse65vkT6JrnWyDcWvdCuJoMoQkiNZA+QKxFjWylFBSnoJBWsaEvjeEz5mnQRI1/j0SHwUnPS/LoT+rTRkaal0gMutGE2PK2xe3DEsPSeCOXCowU4uR3IR+an/CHyRwkE65H9PhhNUKPdmvIWj1wZ2xDqJcN1SRmV22EDq6Unh1pTLrQ1rM0jKQ7ATnWULUwVKVp3xtdm01CrzMUrrqHu3p+ArPNvU/NXSbRJqHkcJnrc8hVsaEDNPUaygWEpC04cr/Fkftdxz6hSVrXR+jYYtJ5kknHFpNkpzv0NKfMY8opMBNiihI6gJ1xKHYoJDrq1BGabHi2RxUYKTA73WudzSRUiVNflGb3/0xi1cHpQQx6DYSeyUHtNd/UIE56G0Qa57n/VMAyoVdi09Xw+LVujMk8YfywrUyssRWC7IFjI/TmbRrZPjXiiXV6OZsNrSYJWaU2+mwQQtJxgT/o11eEpSqkpJCVqGgptJps6PUlq6lK6Io53OM9AoQgamrouqBlTYT+h2v3ks8fldiOQ6HgTBukW9eqE3olpCMY3l1keHeRJ37p5pKNt2p0nuySe+eWCK3rI2gNlPiiTRpCSOX0r7XGoYOrwUh2GmT6G1sESQVtT9cRmsA0q6dknglmUmPbi9Pc+x31OvdLIu2r0bTgjszHA5aAEWSJQY/Pe4ICVfs5SKJdmrIzWyWatunkjyg6xK2YoSDLDFCpjT4bmk7TiHje+PWUSJ0JxawDCoM8+LbkmT3SAXKKIYiB1N8ACT22stzHQaVQDrgSOlT3dG+ZB78IgOyIw/47ctz77XFueu8Q//GqPn79/kEe+1mG7NCx25iFJog2qTrGzRxSNhPSPYsnE5nt0H6he/6mhPpz2vLcJMkOdQqIeCL3YhK62HoN6PMl+x+/WCb0atjwhnkNgxhVDUnq1NBMAYqJS8ra6BJEuzTy/Yqx714N9Hi0toFLJQXsbGi/0G0nlYiQiDVu0LSydXqj69UzuoFrQjl0j5rXcCChV6jxC5MOmT5V/wqP0L37pJq0pTAkcazqCWZWPz2OtgCc5RRg4DGLe789zg+v6ueWDw4w8NixaXqUQ9cmCNK/1oqUYtx/o2A0wZpXmmimGz7WUUc4p2ZqnPbyJuXj/NDYWsIT5wVmG2x+0+Kce4ljmdCrQY/Pa5J/5ZSvntOLLut/XE3bNAojjnJ+7phXzjEWq03a8WujHwtSmzXiHkl1NdB2Dup53AHGH3YYf8im74EcQzstJg4VyI3aZIeK9D2Q4zcfG2LsgBoJ63FvWTFJcOPPFZ0WV7rLhFmfhC6lIH+0OqGnut2a2gsKKTi6o8AtHxzk0Z+qq4R9KBO6ny1OJblMz/xoMGZDaqNgwxvMIInQivY40TkiUGbC+gvjtKxROzbnafkWK2RNnPL+RUvXvdSxbEOfCRuvgsc+DdkDDW9a1Sbpe5lrx+A83rxNI6uobg+fO1HrgOHVRq+1lGo1dDzTPVcsapBONnbAVA1ZAzjyM/d57aVxOXWNGbzclR3iDBnUh/fzBDSvigBqfgL5fofcxuq24FNfmObJ300xNbSwdeSlI7jvOxOMHinwjNe3KR+vGrpWzPiELjFrfO1S3QuXKS2+UtBxkUHTqaVzdrXFjs0kJQS9Z8YZ3V97ZET2iGeiydlEUgssE0a7XT+nZVTFsoQ+C8SpH2h4m7lRm9yoomOaJ62KOlXu0U5BtFsnr+gQpyfAaPJSvio4LLXWnDFuOmIrBckN7oDV3UDbuQ9V57X5gp6qHtuumvI12qMFTlG+06IR19STnng53WW1FLBxjcs+1UXzpsVJ8/nkr7PsvFddUq87/auCHV01Fv1YEGkVAZkbhsbanhQ9HTOUWFNA63q1d6Uw4la/y+bnt7xvNYhTP7jg5zyesEzos2HdayC5saFNqmaIg5JjmqiTi5pOc4+3BtSOi/eUMsSpqNfc2uj1odOTzs2ITkuq8erMejK6zQd8h79KlbtqURY/oUyiwmmxZa0ioR91i4bkZ0ghGmvRufRDHXQ/2wji8hcOgof/LUPfUFbpqJhiiuOiZ46puUALfra4hXmnxh92GLmnSG9nglPWNdNyjEWKfLTV4fiYO+JUdaKcV8RXuf5Ny5gRy4Q+Bxo9IxxVtJ/rUbcQghD1O8U1bfMIvU815auah7uPeh3jzHZIn+IXYfFyfTYYqnnc5wtRL7mVEdJ82DmH8UOKIWu95ep2H6qOcXnv3Zip8hpAJKpz0es7OPsjKVa/3KDpVA2t8SHkVZE9IDnw6OSc5UfDqDv9q4INXTc14u1q5zG7hHJVPB99Py8ydrhwzAWKwkjV4feSOzJz7oL5gjh1YbJ4Hs9YJvS5sOYVkD65Yc2phqxFPRt2NKJh59VFdLNLEOvScSzJ1IBiOtHAw11twFKpjR5GxwWGmw5V12hrmh8xUDUBzHzAbIZotw6IstCfkX0F5ZA6obk2zcJRGDtgMX6wwMShAlFF22Yx4xYomWuQNgyNTRua2PqcJra8OsHJ74+y8Y0mK64waD5dw1Q3ddeMqcOSI4O1S+nK6V8n1NO/AqQV7ejpjYI1f2MidPX/iJOHh67LMDrWmORN4Ib4KYc6HnG1OSoRAceE1GZY9zcLc67jGMtOcTVAnPph5J0vbUhbyg5xPqnGDIoFdXV9iyedO0NCmSxiijHoPvSoRrzNUMpHbqSg5Uz3PB0tjSnCUg1LQeWe3u6bFbSy66ynBvqh/3KP2YOa7b0a8v2SbHdtz6yjJUZHS4y8ZTPSYZHZWGAqayORFDMOU/slU/sdsvsdcoccnOKxP89cn8NYpoCUsiYT0EKkfwU3BezRHbX/N/NDsGK9zrorYjz5I3Vizh6Q3PO9MS56XUfD0iG3rY8oObJmD0vAtaPPVve+UVi2ndeGZUKvBbIBSdQBaUvGDiqmfA2Rqp1XJyNf3S5GFSU/Ib2877WHrAWQktyYmjag7RkGIuKaFjobUCJ1Jiy2U5wek3Rc6IWXVfgIDD957KR8LMj1SXInqz23qKmzoiMOxJFSks3ZTGaLTK4oMrW9SMF2cGxJ7rBDNkTyhXH1/lmend+ynJrCtOpJ/1qcdJQl9JRqGdVh9x3cekWKiSccBhUmAz76f1PgoVPGOPOiVuVjq0E1IZR11MEpSKZy9oIQOraa/8SJimVCrwHygXc0pJ1Mn1SWVOJ+6VJTx7YUbeCedztAoV/pUMwODRHxUr4qVlXKDts4isJmeot7jvbmKPo8ZqBaXBu6ZMUVJkZKA8Q0p6YRxZSvjUa+38Eq2DiOrEtDIoQgFtFJxA06vW1WwWYyZzPVXmRqc5GpvA2Ow+gDDn0/KSjlRbC93D3ZvF0TodeT/tWeULOhg7qne2HELVmbLzhceHUrP3vrUQpTSk0Agl3fzdG9cYreVY3wdFcjZSmFG+rYvjB2dPnQNYjVL13ODjcHlgl9Ljz+GcgdaUhTYwdVB0kZJJWJx3RsxdSvvnQeM3UGDqqGQ9VnPweYHFT/k/v5oTtb5teFetEkdE2y8kUmLWe497Ot2QwyuwE4lsOoYnKaRiPnZRHMhmqjjzxp8eRtWYp5STHveEtJMStL372PnXVoXm3w/Gu7gzbNiI4Z0Wn1Ji/SkUzli0x22hQOTHD0ztonMY43obWKtb1ffvrX3Fjtz7w4WUf6V8UQQWkLCuOQb3aI9xic+3ct3P75UaU2AApjknuvG6f1XeXvUj1oWWUgdJRqTGSPSLIz5C5oOPIDbo2NUxofSvxUwjKhz4bCCPLRTzSsufFDavub7QItqqHrGhFDU1a5N293Cb05bfLgPrWySvEVpZA1VWSOqv3JtSjoCYGha5iNKsIyA+pJLHNskDSdqtP950ZQFSseNehpj5ftNXqgqF4Jr8HI9buSYy5E6BNHijz281rfHUEhK8lMFTAMrarvhdAEyXiEZDzCxrMdjt5ZO5H5ZVxthfsUaxbkFKohF8dL6V9r1VKk6ohFLww5WD3uhax5RoJ1z8qx91a19MHghrLd+9NRzntx+zF5vmumRvNKndH9td/c3BGHrGXX7NNwrJCPfxax8e8g2jXv5zpesUzos0A+/MFStokGoOcMSLSmOfR4lomDNtagM6s60HdK86XkooLKPaxuN3O6skovWmMN9GqYVCR0s8VbLkCxB1UJve3pOtFegZOT2DlwchInB3Z4WQQckA4IU2A2CyLNgsQ6QWqz5qnYXaSTEdauSE6rjKWaIW4+IAtgDUtybaXnF4mrDdT5rMPugxN0tMRY2TW7KjiiGCrleEomR9b+P4i16KBAUuH0r6ZW27sfSejKJWvzw+Ux/09/TQsDjx5lsl9dg3TgRxa7tk6weZt6XvYwWtebjO6v3VadP+xGBeTy9jFrCGqCPYV8+H2Is742/+c6TrFM6DMhswt2f7mhTbZuEKw6O42x1yFn2TgFSb5fkutzXHvUEfe7nfVC1brLSdVWGPN9dXvU1INUjSooTSbUX5GMYnicX195IYo9qIatJTdpZak264EQgmTMoKstNmMqW9WSqfOFfL8ku7r0/PSoYuiXR7p2DY5lmqIvlfTs7SqEHlfN515H+ldw1e758dqfoTUkKRYdbFui6wIjrnHhW9q46ZoB5frqjgUPXzdJ54eitByDQ2nb+ghP3lYLoUvMNoHZ4fYzu1CEDvDkdbD5amjatjDnO86wTOgzQD7w9nlre+OqNNm8Tc6yybXbZDfaZC0bvIGqOOaQ7XOItpVL6G4cem1/9qZtvie1yeA9isls4pJIs+Y6OdVBspMDarZg0yf0BtbDngmqYWu6l3128+omdF1g2xLbkRQdieN9t22JIyVSSjdnmHRTukZ0DdPUSMWNOWtVjywBCR3c0LBwLLqqFC0t9/11UnPf5/HDahM/34ZeLT3tTKg3uYyqHT21QmdwZ+3PsDDsXkOhYKPr7jDcttFk+0vTPHhj7XnVfWQPSu6+wQ1lq6xpXyuqOsZpkliXINajuZ9eQaxHoMdK51jojHHyvjcjLvqfBT3n8YJlQq+GgdvgyE/nrXnD0EgbWpm0Jh03l3Y2b5Nrtcn1ut+LRSewY1/26S76d+bY98gUuX6HfJ8MBqAwzI6ShN2cirBrn2LKzHD8eR22sck6JfSIoje9KqQj3XroCkVLtFjJl2C+YuOlLZUTDs0X8kcltuNQKDhEIhpGVP2axx5xaOmZnXRty+HJ3ynagbzXQ8UJXbXimu1L6ArpX0G9Lro15F5EruAQC5UsOPXKNIfvyzH4mLqD5NHfFnj41PpD2VrXGXScZBLploh26RJ4t0AY098BTRPEowaJqE6qjlrsx4SBW6H/Zui+dGHPexxgmdCrQN77xgU/p9AE8ZgxTXVVtB0Mj0ha10WIdgsK64qB2rE44bjxw/0OeU9l76uIo6ZOPGaoZ6frqS+hDABSqhO6N+iakfl1iCtk1SqQgS+hi3kjc4Cxg8XA4WuxkfMK+GTzNpGIRiSpPsnq/1WBaIvGxlXpqr9n+ovcff0YI4qJdPw0s0o2dEUJvZAp2dBVoFoMx/IK91kVufOFJrjgH9r4eb2hbN/J0r0pSu9K9VC2SELn0o91MDCS4/BA6eSGoZGI6sSjBvGoTiyqE51n59W5IB94O+LSBxe1D0sRy4ReiX3fhYlHF7sXASpjwBNxg22bWrAKDlOeNJ/tLpKz7GlqwpaUCVKS6jQoTMmaq7zFQ6FyqqgnBt1XuUfn2YZeTy10LSbQ55HMoR77uaT9fAMpQUjpWmocgZS4HsfSs95IN+Z5cm/tBGgNShzL1RY1ESHWoqObJdt4Tb2zBftusBj6TT9rnh4n1iwwooLMgMPovgJHHsgp24nBdTgEUHkcqsllipk6078qero7ljsZt5qmT34T7QbnvqGF279QRyjbONz3jWMLZUsnIqxoj5OIGcSiOpEFcFZVxvgjrj19/d8udk+WFJYJvQLyofcsdhfmhBCCqOnNkkNCULHoOtv5qvvWJhOE4Nnvaydv2Tz88Iibg7nfk+qPOOQHJLKi6EuQnW6BY9Dne+CoJ2RNi00vcdpojOxVyxFgtglWPL82NWfusMPuL6u0L8gfleQ6Ss8x2akzfkj9uWaO2Oz4cTV7cP1lgAGlEKl4q+I77AjsbB3pXxUldHAjCvLd1c+z5rwE6+5TC2XTE26oKzrsemycbae11hXKFovqxKLxuXdcZMiH34tY87LlZDMhLBN6GI99omFJZBYDhqGRMrSqNi1NCHpXJ8l122TzxUCal7bEGvQJXpLrl9O861VwLDHo86nWBvWQNREBTV96EnqstxSB0N0eQwCOdGlSelYFKSVIsNske8SQUra0fL9DLpQwpGmlURehNxrJ9e77qPI86kr/OuFQbFfMytisYyQERYVJozUkp6ncw3j6a1oY2HGUyaP+PhKjWWC2CaJtgki7Wwwn2q4RaaPMUc0BDg1Msar7KUx2+QHk459DnLKc593HMqH7yA80NInMUkMkotHTWZp127ZT8rRvs8muscl5aT/BnRzUIzEv7Rj0+jzc55XQpWREsWBP3KuBnkoYNKfmrl+aXhlhXKGGQK7PVblLRyI0wZpz4xy8q3HVvepFapN69sJoWsO1QdT+DIsZdRs6uFXXVPwCrGGX0GdKzGLENZ79nnZ2PZKhkCxitmpokZmvI2JomBENM6ITjbjfFyrpy6LhsU/DxquWk814WCZ0D/KRD55QBQB0XSOVKJfm/cIXOcvGrrMsYiSp0bLWINNvU8zN3cZSjkHXPQ/3+VS5TxwuUsyq3WtfQq9Vg9Ky2lAjdK8ISr7gRlisOieqbEdvNFKbNeKr3OudKZa/GoQuiKY1paQvxUmp7OUObtW1WghdGNIl5xjA7MVmmlZFOH1FM4/vH6dQlEQMz9xWQdxmRJ9309CShJN387yf/Y3F7smSwDKhA4zvgD1fXexeLDqEEESjek2FL2bClsuSbLksya4DE4wPWxRGJIURiTUiKYw5pe8jYOcXOAZd0SnOl9Dn0xQwvFfdvd0n9ESNTk8tayPsv6N2W2y+zyWznGUTi+oYcZ2TL0/yyA/V0gc3CkJIup/rXmvgO6KAWLNOfrz2CU1xAmzHUS5SE3aM00ww28Bs1zDbBJF2V01utrtZBMPhoFZx9upxuqFx0pomhDa/0RbHLfZ+000203zaYvdk0bFM6IC8/y0Lcp6YM0rfvkmmihFisSimaRKLRYnGTCKRBY7lnGe0pk1ipobV4WAV3LjmynAjOyuRHsfOdww6qDvF+THo86lyV7WfR5oFRlKgCVFzVEDLGrW/eTEDxYyXYMZzutz+l2n235VjYsFt6ZLeF0eIeaGUlTnwa0G8VWPsQO372xn3pVRJ/wqw4dkJep8W43B+EmbppiYEZkQjauqYEQ2jBsl6PisQNgKFQoF8ziKXy2PlLXL5PAmjQGeqUK8PpBLkfW9GPOu383+iJY5lQj/yczh6y4KcStOgO10gVyhwYCDDVEiFqenCJfeo+4nFTKKxKFHTRFsAsms02luiQHkaymLRJXer6JD3wuwsb1s9HvWqUHWK07zuzyuhK2aIi/V6y6hes220ZY36ZDHfL8l2l8hbMzUuensbt3x0kNzwwhS4Ebqk5wURWs50h6lUPEJzem6fgUrU6hinxyRGWkPz8tcrp3/tiZDugfGDFtl8EdPQPeLWiEa87xG97kxuiw3HccjnLfK5PLmchZV3l7lcHscp/bfiEVjTqRFTf1T1Y/B3cPhH0HvlAp506eGEJ/SFks7DiEVgc6/G8ITk8IjEdsCxJVOTOaYmp6tGTTNCNGYSi0YxvWU0amJGF/Ifc+wwDM1NUrFI53eKUqk+tu4N7No82iZVa6DHFdXtAKkuHSMulGz1uT5J7uRyabxpVYTLPtnJzR8bYOrA/JJ6Yr2g9wUm0a6SR/+63vo8tlvXRZgasslrNkYa9JSGkQIjJULL6RnRiorpX32s700d16pxK2+5xJ23yOfz5HJ58jkLy5r9XdU16GkTtKcW59rl/W9BLBP6CYwnPg+Tuxft9G1pQXNCcGhEMpKZeYC0rAKWVWCC6TbMaMwkapp0bTiX1PrLIXsIcgchexgKw/PZ/eMOZ726hbNe3cKjj48yNV6kmJc4Wa9iWp6goppfVS2xzlO5z5OX8OTRItZkfQ5xSnXqhaBllaGUazzf72B5UQ9hckq0GVz28U7u/eUYh3+dxxqsvRtzdtOQpE/WaXmaRvqk0tCUTlSvUFcrtr4gzdYXpHn0yTGsQnWTga5pGIabf98w3DDKevMiLHkyj7RCfCXE3M/k/lvo3/V78pZFwSoEkS4qaEkKVrYJjMVMIDe1Hx7/NJz0rkXsxOLixCX0/AByx4cXuxfoOqzpELSnBQcHHXKKPlL5nEU+Z5F2WkltrNA2OFmX2H2Czx3if+/9KQmGWZ2StMSqt/lUR7o5QiShY3t1r8PFVaphvlTu9VRYi/Wqh26B6xinQui5fvdeZEO10YM+xA3OfUEr+87J0PdInsmdNpndktzh2csBV0KPutcTW6mRWCVIbtaDyAJwNTorOxO01KFmr4aOliiOI4kYrt3aJ23DEE+p0K7RHBycFOS0Ts4+/XkQWwXxXpfA4ytBKzfw5/Y/wPi4ekEYgKgBqzo1UvUXeWso5I6PIta9BqKdi92VRcEJS+jy4fdTtbLJIiEZhZNWagyMS/pGJHVGjZVDi0Nyo/vxkI68gOdd8wr3nBHJmrRkdVqyOu2wIgGrU5KelENvUjJHOevjFqtWVFfd2rZH8E55FbXkPJWGbN8c4eIPtDE6YTE4nPeSwQjwU7c6blrXIGEMEGnyquApEvqGZ8WJtWoMDOdwHD9dLF76WD9VrOekKAnUz7kqhA6uk9aG1U10dxTp35ZlYqqIdByK45LCmKQ4LsvC3AQgTE+9nXRV3HpiOokKIUgnI7Q1mTQlIw0l2s7Wp8YM9ugUHJ4UHMloHMgI+qbgwITGgQnB/gnBZMG9Z7/93DehZ+289EEIWNEi6GpeYhMhO4t86N2Is69b7J4sCk5MQh/fAU9+fbF7URWdTYKWpODgoGRcMT65FpyydgvPOv08bn3gj0wWBI8OCx4dBphOEKl4krs++w0+8e1rmBjeRU/SYWUKehIu4fekJG1PjTEScOPNdV2wUPEGiXaDRLuB1WeT6qidoGNm7Q5xPjpOitJxUpQn9kE2rxCTbs3u1Z6MG2xYlaZoO0xMFcm0FsjlXYfHQtFLKF8FAuGqtg2NaEQjETVIxHVipnFixlN7GM7BkYxwCXtK41AGjkxqWHo7X37HN3nmNW/k4MDhOdu58vzL2DBPZJ6KCdZ0Cua5llL92Pst2PT/oOXMxe7JguOEJHR5798vdhdmRUSH9d2CTA72D0hmMPvVjZdcdAW3PvDHOffLZCf555tv4rkXv5W/+tSbqEb6ABuaHVYkYVXKoScp6U1KViQk3UlJR0zS+RSV9BuF1SuSrOpOuJI5nkTu/eancJXeRinVipNUYs2KpJsFzWszLP0H9dwpnSsyS2ayMAxdozVt0hpWj0tJoSiRFaSua6Jue/jxjIEpGMxp9E9C35Tg0KTGkYzgYEbQPwV7xma+J5953Zv4/h131UTmAC991l80qtsBIjqsahc0VdGsLDXIe9+IeM7cY9xTDSceoR/6Lxj8/WL3oiakYoKtqwR9o5KjY42T1p9zxgU173vdL7/H3172cratO5mH9z5WdZ89Yxp7xiAoWF0FrVFJR1zSEYeOmOMu46FtcYeOmLttnjTcSxpCuOzqD5WlIbOxg6erql8g0UqImicExyOyRRjKCgayMJgVDOUEA1nBUFYwmIXBnGAw635G8vXfh972FVx5/mU84+orato/Goly3iln132+auhsEqxoEWjHyzxs+H/hwPdh9csWuycLihNu6JT3v22xu5xgjCEAACAASURBVKAEIaCnVdCWEhwYdJhsQErteDTGmq6V7D96aM598wWLL/zX1/iHF72O136+/ns3kncHtZ2jMCPxC1cMTUY9kk945J+QtMckzSY0m5JmU9Jk4n4iDs0RaJDf1DJOUExYMFoQjFswXhCMWTBREIzlBaOWYGgKhvLClbKzOkNTksmCRmOcXWbH37/gVVz/qxsZGq8tamXbupMadu5kFFZ1aMSOw7xX8oG3I5YJ/SmMxz4BWYWUUUsI0Qhs6tEYnZQcGpYUj1EN39PWXROhA9z42x/yd1f8NVtWbeCJg3uO7cSzwfMAm7QEmQLsnQCE7nlUCVftLHC9uMrW3U/alLREJU0Rj+xNh2ZT0GRKmg3pLiPQFJGkDUmTIUkakNIhaUjiS9UmuIxZkbUhYwsyRZgswIQtGC/AeEFjrIBL0rbGuAVjFoxZgnGPvMfygnFLIHxzv/cpX5cIKdz3M/hdlGwV84iulg5eeP7zOPdNl9d8zMqOFcd8Xl2DlW2C1kWKKW8Ickdgx0fglA8sdk8WDCcOoeeOPCWqqbUkXRvWoSHJ8Cyx63MhHq3dm812HD76b1/gI696By/7+FV1n7MmhIzIQgjXhuwtw+sE66X9JwruQO0amSUIHemRP7jGZ4lbQUwSMkZrns1a4JK8CUldkopAQpc0GZAyHFK6u54yRLCe0iUpXRLTBDFdYgqJKQSmBhEhiWoQ0SAqJLHjRV3ZYGRtsADLEVgOFKQg70gKEvKOIO8Isg5kbMgUBRlbMGnDZFEwYcOkR9YTRY3JIu5vFkx6JO37AQQkDOBIBMKToEWwLkPk7Hv3C0LHSe+4Uh3amdcXIGHeu176Rj7/X18lk609j34ydmxOK60pN6b8qeDmIHd8GLHhtaUUi09xnDCELh+65ilTTU0TsLpD0NEk2D/okKujClbRVivZedPdt/KKi1/EX5z3XH78x5vUT6gCB4QG0pGudt6RoXXhFnvWhBtipeGth5elUVrgkfe0SYDXjqC0BMaLgvEiIQ2A8DQCBt4so6QZgEA7IMProe3AtP1jmkf0QmLqAlNIIrogKiQRAVEBupAYmmvt1oUrMelINOFuM4S73V/XhXS3ebdA1yQ6AkPIwGJuA0UpsJHYjsAJtoEtBbZ364rS3W5Ld91GYDvuug0UHSgisGyJJTUsKT2ylhQcgSXBciBn+zeAYBmQZ2jbtO1hcg0k4RIJl0g72G2ahE0FCROQOQEZVzvOnQR4x5dNCrz30FsuBJk/bfN2zty0jXd+/aNKx+Ws+uxysQis7tBILJGY8kZBPvBOxLn/ttjdWBCcGIRezMC+7yx2LxqOuAkn9WoMjkv0iFr82NjkuPL5PvpvX+D77/1Xbrn390zmppSPV4KDK0kHJC7nWAc0EN4yIG0ZInWfFDRvcNdKEr8IPL3d48s0BD4paKH2ZPn5RbCbvx/4qoNAgvTay0mNnC3d5P4FCUJzNQfeMtAoeP0vW/cnFSGNhRCC0uWWJi3+ul/Zy+3H9N+Ddii1V0aGlev+fRTu9QuhlW5chSTr/o43aQqRo0fi7u8hSTp8XPh8Zeve+4FAOo63neABziiZh4/3yVt6szl/UlFxXPX1hcG1b/ggH/7utdiOWgraQ0N9Svtruklvq6BzqcWUNwoHboSzvgJG02L3ZN5xYhC6kUI87wnI7ILMLuTEruA7mScWu3dqSG+F1CZIbUKkNkJqE52pTZBcr9TMyMSY8ql3HnqSm+6+lXe/7E28/1ufVj5eGVKGSKlyXYRIl1Ksl0cegUQ/l6TuS2RhyTok6bunkSUy8tsTnoYg2O6Rpre9vN/+zx65++wRkINHFgH5V2gSApKkrP84BOQrAlIShOcC/vWV5galdZ8Ug+OhnMTAVS9UkjklcisjwVL8W+k6IJCkw5KtLxmXnU+Wzlem1vbbCdmwCdoXpW3B9Zb3p1IyL2kEfLIOq90rzk/F+Smdfz7xpitfw67De7n1gTuUj+0bPqq0f+tFX4dz3lsaHzO7YWKnuz65B5wGeOIuFFKbQ+PjpuD7iUDmAELOlO/yREJhBKzhKp8RZNXtw5AfOLZzRru9gsnlH2G2Vt2O2QqRlsZcL7D2FefUdVx7Uyu//vS/8zeffTMP7nm0Yf2ZEYLA9h3YxrUQOQcOciVSDZzofdt4YFMXs9vUQ8fLcDui2n7e8bL6dl+iDwT1sqXXXsWymmQ+bT9Zsb+sWM60vdoyPAsK+yaEJPVZJfdKiT28X0gS95fenKyCTKtJ0FW2T5PsQ+2EJwEzSeaB2tyXxL1+VUriYTW/rFwPXc88YnVnL7/57A+46G0v4vBQv/LxiWicR6//XeM6VBibYXwcRlozjJ159X6XIdo5w/jojYXVxshIa2Ou9zjGiSGhz4VIq/sJpUj18RRVQtWNofERPv3vX+azr/8Az333yxfmpL6kHLap+6QWkiwD8pwmsc8hqfuSduh493yUjhOUS+w+aZRJ6L4kT7Csxp2+pqGaBqJy6ZNWsH8F2ZaRsSPLTzjXkunb/ftTksA9idyXcCskV++LZ7IIS+yUkXmlZB5I5P71TNMEVEjWoXZKkwLwU+VOP366zZzwcfjrItSfEokTOq7UTrWXs/H43Bs+wFd//t26yBxAa3SweKTZ/VTRAi6Pj0sLTwE/xmXUg9Wd9Xt9/vutP2Y0M8bfPm8BCL1y8PUdlmZTi/qDrwRRTZ0alrycEGlCSS0cluS89UA9W3E8CER4XTLNkUr4ZFJJdt55hFO6PuGfX4qy81ZKokIKRHgZ2q66DPe/dB2hpU+aToncBK7vQMmxTJTdL+Hdh/J9yp+X3/8yyVyG73PoPkncfjK9/WnHh9XxZe9PiNzLyF561+NPCkpkXzYJmGdcfu4ldLd28aUf1p+LfEXriVmYZBnLEvoJi6dt3s6BGtNIVsN7rvskP/7IN/nJHTczMDrUwJ5VQUiyDSRuX63tS6aaLxELnrZxO6+9+OUMTgwzMDHM0MQwg5kRBiaGGcwM0z8+SK5oEbaNiwrJ2veaDyT1sPd8mW3d3+5JsoTU4+H2AgE+bGP3tgfe9jIgjzLJPWRrdxdhybx8vSTRi6CfYU1CafIS2j+s0giTrn8+J2T79yVtQvsFZFchCVNByuFJVaXGIBzXXWVyVimR+z9XqukTZpyudBudqTbaU210pt3Pt2/7T0YyYwRkHZ6E+BJ92eSA6T4A84xkLMGH//rtvPGf3kOhqF6Jz8fZW05vYK+WcTxhmdBPUFx85oXHFH6258g+rv/V9/noq97J331pAeoPh1W2Zd7lsmwdKdmyYj1XnH3JjE050uGJI09y154H+NLN19M3PhCor8Pt9bZ0s7V3E6PZcUazE4zlJhjLTmDJYkBKld7uPqkH6vywejzs0BZsryB3CEje1+KHvpTZ0Ete5qH2q6jRq6rjQ/tV9rOaDb2k9i9/HmHzhG8WqKrGd8r7O82rvdIGLn3HOre3aTPBn214Gm2JZtoSLfzyoVvZN3ioXDJH8NDHbyJuTo/46B8Z5MY//LhMQzOtf9PWWTAyB3jHS67itgfv4H8fu++Y2rn07Isa1KNlHG9YJvQTFH9x3nP5yHc/z2CN6SSr4cs/+RY3ffJ7QfW2eUelpF5Bkj6pdqTbZm1GExon927k5N6NvOjs5/K669/NbY/fRYmdXMnvby98KX//rFdOO/7WJ+7kZde/GSpt6yHSvHDjOZyxaivNsTRN8RQT+Sl2D+1j99AB7j74EEXHTfUX5vDptnb/ukvXW5LACZFe6fwlGz+lBqrYvAm145NXIJGGbOEivL9TfnjQ75B5IqpHKdhFHOmUJF/vfj5jzRm0JVppiiZJR5M0RVOkokmaYinS0SRW0WI0O8H9B3bwo/tvpmjbgWS+rn0133n1tcF5D430sW/gIGGbd0eqtSqZA1x25rO48fYflzQGlZK5d72E78MCqdkBtq/fypXnP49nv+3Fx9TOqo4eLj7zwgb1ahnHG5YJ/QTGW178et77zU/VfbxVsHj3Nz7OV67+FJe88yWeSnOeEVb5epJdEB/uScodTSVCtx2be/Y8REe6jfZ0K82JdFlzqViST77kXVz08ZdQdOxSe0guPaV6EZuTujcEpF8WmqYJnrP5GXzyireztm3ljJdwcKyPL/zum3zvvp9iS5urnvEK/t95r8SyC1h2gYJd9JYF8kWLglNat+wilm1xw/0/5a5DD/GqM69E4tZtl0hklaUjnUB7/cNHbibvWLxw65+zvm0VhjAYnBrh+nv+s6S+Dk8qgkkKocmDS9L/9tLPsm3FFuKRGDEjSjwSRSB4y08+wQ33/HiaJP6lK98/630J45rL/p4rv/IGDgwdAgQjmdGy31tiTQhZLlmvbS9ve2RyjNZkMwAXnHwOKTPBZG6SsC9CcLxTIZn7KvkFQNyM8c9v+jgf/u61x/wfuub/Xt2gXi3jeMQyoZ/AeOUlL+bme27jtgfVY119/O9j9/Fv//Nf/MubPzX/aWF9hG22FZI6QtCeLoWvDIwP86LPvN7zPHNDei7efj6ffPm7aPEG+3Udqzi1dwv3H9gRkNiazpVs6loXtDNlZUmYcQB6mrtImQkyVii5joAzek/mG//3kyTmSPKzqnkF117xHnqbuvn0b79G2kzQmZxdq1CJ2/few0N9T/CJS9+qdNwtO/9AfsriZaddznM2/BkAD/Y9zvV3/ydhGzj4S1FyEKRkEzeEzrM2nktUn14V58L1Z/G9e34Sijt3SX08n6m5n73NXXz9rz7BZV/8G5CSkYpESK3JFmSF5mFNBaF/57b/5M3P/1sAoobJc7afx0/vuqU2yXwBpfPPX/Uh7n78AX54+y+PqZ0XXfB8Lj93ZlPTMp76WPZyP8Hx5as/ycaetcfUxpf++xs4UvKWF7++Qb2qASGbetgrWziSzpCEPjg+XOYNPZXL8tN7buFzP/taWXOtiWbPW9yVvC/Zen7Z79+788dl6xvbVwfe275X+tXP+psyMp/IT/If9/6Cf/zdt7nh7p+wb7i8GM5bnvk3bOvahKmpl7KyigW0gGZrh+M4CAlFu1Tdx9D0cu916Xufl5Yl73B3ubl9TRmZ206pvQvXn1PVO34iV8pHPjI1zg/u+wXX3/ED/vG33+IL/3M9tzz6hxJJA6ev2sra1l6EFEzlprDskqNYW6LJ884Hf9KxtqOc0L9963+SK5SSolx25rMDybwUf146viwN7ALh5c++ks0rN/C+bx5boqbTN57KF676cIN6tYzjFcsS+gmOdDzJ99/3r7zlXz7I7Q/fVVcbjnR481fezy8/fgN3Pnovd+y4u8G9nOnElNyfQ5J62IY+OD5M2Lvc917f07e/rCktkPABR3LJKSVCH54c4wd/+gWvfWapFOOmrnU8ePDxQHQVwNPXnhb8vm/4EJf/y2sZnBwOdtA0nU9e8XZe9fQXeefUOGvVNq678wf8YsdtRHQD04gQ0SN8+cUfoj3hJhK699AjfP/+nxPRI5i6gaEbPHzkCTRZTui7hvZxYKwPTQgEAiFE8F0TGgLh5vCX4MgwoRuB5F1qMUR2wXrJc+/U7i1l5/7Zjt/yF9tc6bAz1cZJnet5vP9JoCT5TuRKEnr/+ABv+v6Hy23VEt56yd/yjueWJoZnr93O/sFDIAWjk+N0NbUD0JJoCiYX/jKsch+aGOHo6BC/2/G/XHr6MwF4zvbzMHUTq2CFHPAI+SawoGS+dc1mPvjXb+OK9/01WStXdztXnn8ZH3nVOxvYs2Ucr1gm9GXQ1dLBDe/5Mr/802/41k3/wZ2P3qPcxsDoEG/+yvv58ps+waXvfhmDY/U72ymhik29ozlE6GPDgdo38LLWBE3xclv6wPiwa5OVkngszjM2nxX89psdf2Bn35OB/RhgY8dazyHMtbm3JproSJXOe+OffsrQxEipc9Kd+HziV18JCB1gfdtq+sYH6RsfKDMbhCXenQN7+dZd/zUtQ1x7sjwz1nfu+RH/esf3ytqZaRmW0HVRnoN9toxx/u/bV2wOjnekw9f/+P2A0AEu2HAOT/TvLYX6SRgPSeipWDKk7i5NJr5/10/KCL0z3R7YvEcmxwJCb002h2zobvtrQhL6vsFDCOCX9/wmIPRULMmFW8/hNw/+cVFt5uCGqF33tmt5/zc/w85DT9bVxgXbns5VV7yKC7Y9vcG9W8bximWV+zICPO+c5/Dv7/tXvnL1J3napu3Kx//hkT/xnV//gK/+w2fmoXezIFCVSjSh0ZpqDn4aHB+iFOdMoGbtqvCEHxofDtS9F245h6hRUiff8vDt5CyLgyNHgm2bu9a5Er/XXtIsL1l5eLTfba/MJi0Zy06UkbUmtPIkLt5+Eb2khs8XPYkypL521c3lErqsTAbjJ6MJ0qGW1sN90DU9uD+E2g/ivMPJXzz1+6krShL6rsF93L3/YYamSo5rz9xwdii5jnsPJrIlCb0plgolCQoum6MVE8GmWAo/1Gx0quQw5tvQwxJ+WOW+f+AQOHDLA7eXTV4uO+vZi24zB/jHN36MP+64hx/87qfKx561+TS+cvWnuOE9X14m82WUYZnQlzENl597CT/88PV85epPKddW/scfXsf45ATXvHyBvW29Qbkt1eySpIeBseFSfLFvC4YyT3hwU9q6NmO4ZFvJu73o2Nz22P8iHMnu/pKafmPXmpKNGUhE4hX9kdNs7EJCRDMCKR9gKj9VTppehrRoiNALxWJZBjqfXCtt6FLK8kxpkoAMwxnVhBTYFTb0wGZeuf8MGeO29ZQI/eHDT4Aj+cPukmbnvA1noaGVZb4Lq9xT0UToekpL2y6WqZ9T0WRwPWHHuNZEU9AuEkzNoLulI/h9/1HXX2F0Yow7H7832P7nZz4TXeiLZjMHeM1lL2NFWyfvU4wwSceTXP/2L/DfH7qOy8+9eJ56t4zjGcuEvowZcfm5F/OrT36PTb3raj7GkQ5Xf+X9XPK0C3nW6c+Yv85Vg6xC1GMjIYnTl1QlG7tLjoDj2QxWoRAM7M859bzgt7t238/45AQAu/r3Bts3dK4J1Pw4knxFDer/c9blJCM+abnkIR0oFov0vvsZrHvfMzn1o8/lK7+7oYJsAadcQreKhYD8SuRKUPI1uHy/lGgZqVdfhktyuir3MGn7kvX0dSGhK9Ue2PfBI3QJt+8q+U40xVKc1ntSmYtD2ClOExpJM1Gy3YfOP5mfKmvH1wyEQ9dak81lcfEr23rLJnKuhO6q1X95z2+C7e3pVs7adNqiSebb12/l//3Fq3nd59+hVLd865rN3Pzpf+fiM6uHUi5jGbBM6MuYA2u6VvKjj3xLSQU/MZXhdV94B599/QdYdQw54+tBZVIZ1ykuRGaOZPuak3nOaSWntwODhwMyPaV3Mz0tXcFvtzx4e0DKu/v3BdtjkSirWnoCEjo83MfAREldfOHmc7jv/T/jX/7vR7ni9ItJRhKlZC0Sclae4cwomexkyGQgAokzopfcWwp2IZTbvOSdrVX7+wbqdVlGkpXLolMMDjE0o0KSL2kKSjnjCbZv7yl3iHv40BPgwB92/6ls+wUbzy7TLExkJ8t+b46WyNq/rqgWoTlRKnUZi5jB/RkNSejNiXTZ/VzXXv6e7T96KJjc3HzPbWXe8887+1mLQuZNiTRf/YdPc9WX3s1hhZrl5596Dj/80PX0tnfPY++W8VTAslPcMuZEOp7kW+/8Is+/5pUcHDwy9wHA7sN7+dgNX+K77/pH/uIDr2Z8amKee+ki7BAH8O23fZGhiVGGxocZnhglZkY5Y8Oprt3Ywx2P3e1K8MAl28sloFse+j1+kpVdfXvLftvUtZYDQ4cBSdFx+MB/X8s//9VHgrbTsSRXnnkpV555Kfmixe93/olfPHwrNz18G8PZsUByLfmhuRsiWvnf0ioWPIlSli0rJfT2RCsb2lbjSN9G7HhcKTk6MUjeD/uSEicsoWt6SUMQPk8oY5x3IADbVpQT+iOHn0AAe44e4PDYUXqb3QnRBRvP5su/+S5+PHsloafMJOGMbVHD5BP/5x1lk5nxbCaIgw8nXdE1nXQ05f4uJWs6V5W1vf/ooaDf/SMD3Lf74WBS+tyzn81HvvsFFhLRiMm33vFFrvvVjUqpXTf1ruMbb7uWeHT23AbLWAYsE/oyakRzsol/ftMnuPKDr675mB//8VdsXbOJ7777n3j5x69iKp+dxx66aK9QueuaTldzO13N7VX3zxct/vOOXwQS4iWnlQh978BB9vTtD3KY7+nbV3bsxq613LrjDnzv+p/cewt7Bw/x9xf/FZeccn5ZGtKoYXLJ1vO5ZOv55F/4Dm6480d88KdfpOgUQ4VUXEe0qFmerKVQLJRC9CR+0vRpEvpbn/0a3vrs11S9ziu/9gbu3PuA30C5l7umlbcfeLNTkmKDSQdl9vMjY0cZzowGpHz7zrt5ydnPB+Dc9WcQETpFaXsSenlimQ9d+WbyRYt0LElzvIlN3WuJRaJl+9z+2J+8SQXTsqi1pZqZmJwABGs6ShK6Ix029azjnM1nuMVZmttIREs+Dqs6ejh17Uk8su/xqvdqPvCNt13L7iP7uO6XNyod97W3fq6s78tYxmxYJvRl1IwzN23jRRc8n/++/Rc1H/OZf/8K//ymj3Pd267l5Z/4+3nsnYuOpta5d/IwOjnGe7/7aR7Z+zgIQWuyiTPWnxr8PpwZ5S//7HLGpsYZz2YYz06QK+QD0tnUtbakLvaMsg/ue/T/b+++o6OoGjaAP5PeE5KQBBJCDWCC1ASEhF6kg2BBEUWkKEgRUUAF8bMgWLCBvICCYsEKKEiTIgQUAoQqEDohCamk9+x8f+zu7MymJ7tJmDy/czib3Z25c+Ec8sy9d+69mLZ+Ieyt7dD7vm4Y0r4vBgaFaedN69ha2WBS2KOwtbLFvF/eNYS0LkNtBKMWun58X/a0PAT5nPHyifoxeF2XgLLL3dKoC1r2dLqOPlQFAIGNDFPWzsdeVsxXD78cIQW6vY0dujS9H0evRgIQkGHUS9P3vrKfsTh8KQK7Ig9I9Ug1Xi3OwRU3EaNroRuecLcQLPDtvM/KLPvBkD41FuifzngbTnaOWPjli5U6b/KQJ6q96BPVLwx0qpQXx06tVKBrRA3mrl6CzUu+wqpZSzH904VmrB3gKWuJp2VlYPQbz8DDpQE8Xd3h4eoOe1s75BbkITk9BX+dDkdeQZ40v7vf/aGKB6s6N2+Hzs3blXqtlt5NIW21qm/ZQtvSz8nPxa4zB7HzzN+wtLRC95adMLrLgxjXbbh0jce6DseSrR8jKz9bMd/b2mjluIKiAgjyRXSgbckbLyxTFv2a5foNXDRFyi5347XalTcPgjTsYG9li+aehu7tczGXYCVYwtbaBvbWdriZGK24blirYBy9cgoQRWTKHnYrz7Ktq7B27w8oLCyEfmpbqvF67o6u0oNvTRtWbI14vSEhffHRL/+r1DlV8c6kBWjfIhBjlkzSLupTCdNHTjRPpUi1GOhUKf5evghr17VSq8rl5ufh2Q/n4tc3vsTyKa/jlbVvm61+nq6yddzTknEt7iauxem6ygVI054FQTt8q6UNBfmDchXRyruZbnEZ7RipCFG7PKl8NzQBKCosxOGo4wiPikBqdhqm95sAQNsybuTqhSvx16XudggCbCxLaKFrqwnDEjqAYNTlvmDzMnx3dKtuhTgL3Wpx2qNzC/NkY+SQdnsDAEvBUprCpZ/vbiAoniYPbBSguOmZM2AS5gwouZsfAMJah+DDHWshQJBmC+jtOXcI4Rcj0NDFAw93Gwof14bSd9fjo5Gblwf5ojN3M5Rd7g10y78CyhZ6bn4e4lLikZx+F0npKUhKTUFSegrub95W2omstV9LNPNughvxyhsQU3ph1DMY3WMwhr8+ASkZqeWfIDMmbCg8KtHbRAQw0KkKerfvXullYmOT4/Hsh3Pxy+K1iEtJwIpf15R/UhXIx9CTjbeG1YeWrkUtwLDymiUs0LudoQv4ZmIMomKvwdXBGa6OLnB1cIabgwvsbAxjvN6unnCycURmfhbmDZuK6YOeQpGmCHez0tBhwWDtrm26len0Y+TXjQJEU1QE6al03SC18YYn2jH0EvYtN3oorrCoSNuiVawMB+Mn77Qr0RUadbkb75dutEKc/rrtjJ5wL0/npu3gYG2PnLwcZOYoW+hHL0di3b5NEAD8fmw3ti3YABsrbe/ESyOm4s+T+6Ap0kjrCKRmFt+gBaKIBk5ucLJzlD7/ePNafPHH18WeYu/Uqp1ia9HBIX2xets3lfr7VNQjvUbg5Uen46lls3D9TuVvGvp2rNzNJRHAaWtUBSFtOlbpvP9uRuHp5bMxZeh4PDXwERPXSqvYsq8l0U0Nky9qEhzQQbG16pqd32HSJ3Mx9r2pGLBoHELmDUPA9J6YtW6xoih9t7t+JzZLC0vDE/TSSmm6V1Estl93dl6ubPlT7ZQya6Mx9ILCAsUUMv0KdYLxwjLyFeHkLWvFe+1roewpd0EQtK19aSU5GJZVVaywJyKocQDKk19o2ETF2tIK3Zp3BETtdEY5FzsnaXGY/25fxk//bJO+C2jUHKNDHjT0GIgC7mYYd7m7ACIUrXMAuBV/u8QpaZFXziH+bqL0/sGQPuX+XapiSNd+eG/ya3j+kwVV3smwaxX/j1H9xkCnSmvl27zK50ZcOoWnl8/G6+PnmGWrR/nCMmWuJy89za2d/tW/g7JFtO/UoWIrrAFAVOw1xXEtvfwBEYppYE52jrCGpTRvWz+PHaIAHxdPxfk5udnK+d+iCBsrZQs9X1opTj+fXrtCXbGV4jSiYnc0aZ52Ca/ypV8BwEq3c5l+5Tv5vHRpURsICPI1tND/i72MsLceRvDiEQhaMBAtX+oF35ld0WXRcMW879DWwYBGOz4vXzTGyc5RdrMDrNyxAQWycea5I6bCEhbSg4cFhYWKmCu50gAAGYBJREFUmRINnFwBEcXGz2/G30Zpdh0/IP3cqWU7eLl5lnpsVXQP7ILPX3gXMz9/DX8e21vlcnzcvco/iMgIA50qzdnesVrjexGXTmHqinlY8fybJl1NztHOQdElnmTc5W5MttZ6/46G6WqXbl9FTFK8cl62Ltyuxd1ShFUrn2aARrcymY61pRVmDZkkC1/tTYOHgxtGdhkoHZeQnoz07EzpOP3NQ7F56AW6sWT5ym2iUOyhOFHUQLmIjnJxGPl7+dKvAGBlaV3CMq+yHgZd4N/XqJV0zqmb53E94Rbi7sYjNSsNuXm5gAikpN/Fhdgr0nFhbYKlmwn5XHQXOyfoewwEEbidGIdf/tkufd/Myw+Pho5QLJIjf9K9gaM20P2Ntk3VL/takp0R+6WfBUHAoODepR5bWff5B2Dd3A+rHeamvsmg+oOBTlVS3VWrDpz+B1NXzMMn099G7/amCXU3Jxdk5RpagElpdyt0np9HIwT4tpDe7zsVLoWmfEMTAQJycnMQdzdBOralt3bXtTM3/lOUOXf4FOx8dSMWjZmNmYMnYum4+fj7jZ/g595IOubYlUipO1neHV58DL1Qur483Iqv5Q6jFeJQbLlY/fdFRk9cW8JCsTyshSjA1sIG9lZ2cLZ1gqOVHVp6NlUMGZyLjlLWX9cTIUBA+EXDqnHtmrSBm522e1w+F13fQpfvt/75H+sVc+Rnj3gWNvqbDSi73d0cteu5+3sZAj01M017k1SKfy+cxO2kONyIj8bxqNNwtncq9djKuL/5ffj+1VV4ec1b1QpzoPr/t6j+4kNxVCUBvi1w9vrFapVx4PQ/eOHzV/G/OcuxaMNy/Hpoe/knlSEm6Q4Cn+0NOxtbNHT1qPDqdP2M1sfeGxmuXXtdsaoKpAfTrsTdQGN37S/dlo2aARoREZfPYOOBXzGhz1ipnHZN2qBdkzYlXjO3IA//2/Od9jqyfdiB4i30goKC4iu5yRd90Vk4fDqm95sAURShETUQIUK7X4sGoihCFDUY+uEzEDWiYtoaAJx9ZxcEQYCV/BkAmd1nD2JzxE7FZ+dvXZK6w/X0LfHDFyMwtf8TALTzwh8I6Iydpw4o1nN3sXdSjJEDIm4lxmLzvzvwSOhwAICvhw8e7zUa3+z9GdCIisVl9F3ufp6NkJx+F8npKTh55VyJ/956RZoihM4eWeYxldXz/m74YtZ7eH3D8mqHOQC0bdKq/IOISsBApyoZ2KV3peajl+bQ2aOYsGwmNs7/DF5untqnk6spNz8P0YmxFT7+mz0/47fwP+Hi4ARXRxdcir4KwPAUvOEhce3T3kf+Ow4/Dx+4OrqgiUcjWAgW0Gg0+L9NKxCXkoCpDz6hnSNdirjUBCz8fhkib5yHfgU2/Vw6EaJipzVA95CZBrKn1LXHWwjK4PV28YS3S+ndtRpRI7X0C4263I1XaDNmaWGJID/DzYkoirgQc9UwP14+bx0C/r0UiUJNkfYJegChbYOxK/KA4sE4Z3snxQOB+qfZP/tjPdo3uw+ZOdnIyM5AMy8/bctfEPDZlq/w1c5NSM1IQ0JqEgBg/NIZZdbdnIZ1G4CPn38TMz57FbtP/G2SMgcF9zFJOVT/MNCpSoZ27Qd3Z7dKz68tyYmoM5iwbCbWz1sBX08fvL5+mQlqWDmZOVnIzMlCbHK84UNZS1g7A0ybWqu2bcCq7V9DarlDGza5+Xn4bPt6rN/7Ix5o2wUtvP3R0qcp7G1skZ6ThbScDJy4dhb7zx6BRv8IulEYCoK2iz32bjysLa1gY2WD3Pw83Xx3UXG88bS18kj7s0NUzEOvCEvBAkG+rZFXmI/c/Dxcjb+B7Nxs6RkE7QX0fyEgKy8b729ZDTcHZ+QW5OF6QjSgAVbv3IgfD/2OjJwsJKYlG8b89U/5A7gRdwsDXx0H4w4SaET8+98J1BXTR07Ei2OmYOL7c3D4fET5J1RAYw9v7qhGVSaI8id8iCph/a5NWPLNhyYrL7Bpa2yc/xlOXjmLKR/NM1m51SYYXrUNacP8dRi9ihDL/F46TjQcpzheVF6vtPeiCDjY2qFLi/awsNCukmNpoVtuRrDQTkXTLSpjaWEB6BaZ+TNyPwRBQENndzTxaISCoiIUidr560WaIhRqilBUpP1TKPs8v6BAtziNri6yee7aHgzlvHX5fHbD2vCG+faibN699MBfse+hWNSmLnn7mfkY23MYJn/4ksnCHACWT1mEx/qYdkiA6g8GOlXL1BUvK6YCVVdznyb4dsFK3E6Kw6QPXlQ85FYnCJACVpQHrfQq6JrOZYW60Xm6nxX/EUsLdZTzeUn1Fct4X5LSvjf+XNZhoOgtMOp+B0RpjFzeEle27GXl6Vvkxt/XEWvnfoCOLYMwdcXLiCxnzL4yHuszEsunLDJZeVT/MNCp2sa+ORnHo06brDw3JxesnLkUXm6eGPfOc0hOr9jT6jVGClt9SJfRchdFwELZIi/2fUVa8NLhhpsCxXspO2U3Dfr3KOU9ZMcbn1+s5a37WN6yFmQt6xJa5OW12KUV6PSXLSns6xBHOwd8NW8FXB2dMWHZTCSmJpus7AGde+HLl0zX20X1E6etUbV9/con6BEYbLLyUjPT8dSymdgXGY4/3voaTb39yj+pJunHjaWpYNoWqljSVDHAMOVMMd9cNlWtlCly2kVvBNnULsg+h3bFOKkcGMawpfrpvi/tvf54+Ypy0nx1XciWdH2NrL4lzI+XxsQVU9L030N6lcb0pRa5KKtX3dLQzQNb3lyPxLRkjFo80aRhPqhLb4Y5mQRb6GQymw5sxedbvqrUE+blGR06BIuffBHz172NPScOmqxcs9DvulZWi9yoZS4fQxeEEs4zbsGLJXyOEsoVjcozei1Wjrx7HCV8LnsvHwM3Xuu93LFzsZxu9zoopE1HrJz5LtZs/xbrdnxvsnJb+7XESw9Pw+CQviYrk+o3BjqZ3LGLkbgadxN/n/4HOyL2Vbu8Tq3ux8qZ72DX8b/x5sY63pIRiv8slvCZ4ThDt732rS7MUUJYywfNjbvXtVcyqoCxCn4vGr2HUUhD3l0uG5SXeghEZZGyn+vy2HhJZj00Gc8OfhzTPn4Z/144We3yhoT0Q9+OoWjbpCU6tAwyQQ2JDBjoZFa5+Xk4evEkfj64DX/8s7vK5TRwcsWqWUvh6uiCaR+/YtJeALMRSghr3dQ0acxdN8ZeakvceEy92Ni6UctZdp60mxzKeF/C+Yb59yW06DVG9ZO9l4e84nyg5LCvw9yd3bDmxfdhbWWN5z9ZgNjkO1Uua3ToYIwJG4pubTsrliYmMjUGOtWYhNQkfL37Z3y18wfFJhsVZWlhgdkPTcGzQx43yRKbNcq4YSwYMq7k72UtX+kA2c2BrGWsuDmQ7gHKCHN5t77svTJsdQWJxa9nqLjhvfROXsV7qCUuF9KmI1bPXob9p49g4ZfvarevrSRne0dMHjoeTw4Yq9gwiMicGOhU467G3cSE915ATFLVWj39O/XEx9PfxJbDu7BoQ80vQlNtRr3nZT/dXsqYejlj6FV6NR47N/q8pDFzxZi4/B7kHv2t8tLD0zBt+FN49aul+OXgtvJPKEGLRk2x4eWP697DnKR6DHSqFYlpyRi56GnlymyV4OPuhY+eWwIPlwZ47uNXcP1OtIlrWMNKaKnLR7BLHfoua0i8shQXLH4ZUTS6nPFx9/BvEk9Xd6yevQwOtvaYtWoRrsRcr1I5Ab4t8Osb6+Dq6GziGhKVj9PWqFY0dPXAD699AWd7xyqdfyclAeOXzsCWwzvx+1tfY1SPwSauYQ3TT9fSGP4IuilmAqDbglWQtmLVfm6YYmbYGlV2nmwKmvJ9Cd9rlOUJotH1ZOUbpsAZ/blHdQ8Mxq6lP+DoxUiMXDyxymHu4+6FTa9/wTCnWsMWOtWqA6eP4Onls6tVRlCzNvh0+luIiDqNJd98gNz8PBPVrg4qq6Vu/HC8XmnvK/I/X+W/HeY/NgNjwoZi+mcLcSLqTLXK2vb2RtzfvK2JakZUeWyhU63q06EHBnbpVa0yzt+4hKGvPYmUjFTsfm8T+nfqaaLa1UHGrWJ5y974Vf8HpXxfWlkqaHWXJ7h1B+xZ9iPcnd0wcP64aof5kwPGMsyp1rGFTrXu6MWTePStaSYpq22TVnh/6mJk5GRiwbp3cCshxiTlkjp4uXni9fFz0L5FIF5Z+xaOXYw0SbmHVmyBv5evScoiqiq20KnWdWvbGc19/E1S1sXoKxi1eCL2nzqMXe/9gPmPzYC9jZ1JyqZ724yRE7Fn2Y+4EnsDgxaMM1mYhwaFMMypTmCgU53w9KBHTFaWRtRg7Z/fYcArj6FFo6b4+6PfMKrHgyYrn+4toUEhOLRiC0LbdcXoNybi083rkF+Qb7Lyhz8wwGRlEVUHu9ypTkjNTEOHaeb5xfjAfZ2xYNxMAMAra99C1O1rZrkO1S3+Xr5486l5aObjj0UbliH83DGzXOfMmr1wdXQxS9lElcEWOtUJbk6u6NX+AbOU/e+Fk3hoySR8vecnfDP/M7w1cT6cHZzMci2qffY2dnjlsRnY9vY3CD9/DAPnP2q2MO/fKYxhTnUGW+hUZ5y7cQnDXnvSrNewt7HD1OFPYlyf0fgt/E98tfOHurffOlWJo50DJg56FE8OeBhbDu/A6m0bkZaVbtZr/rX8RwT4tjDrNYgqioFOdco733+CNdu/Nft1XByc8czgxzCh/8PYdnQP/rdtI+JSEsx+XTI9D5cGmDT4cYzrMwpbj+zC6m3fICE1yezXnTNmCl4cO9Xs1yGqKAY61TljljyLE5erNy+4ovTBPnnIE9gZcQArt67Hjfh7fBnZeqKRuxeeG/4URocOwa+HttdYkANAWLuu+G7hyhq5FlFFMdCpzsnKzcYz77+Ioxerv/90Rbk4OOPpQY9i8pAncPj8Maz8fQPO37hUY9enimvm3QQzRj2D4Q8MwLd//Yo1f36LxNTkGrv+gM698OVLH9bY9YgqioFOddaq3zfgiz++Rnp2Zo1d08HWHpMGj8PkoeNx+up/WPn7epPNV6bqadukFWaPmYye7bphw+4fsW7H90jNNO8YuVwDJ1e8OHYqnh70aI1dk6gyGOhU5x29eBJ7T4bj2KVIXL8TjdTMNLRt0gqWFpa4fudWlfZWL4+9jR2eHDAW04ZNQHLGXWw+vAObw3cg/m6iya9FpXNzcsGoHoPxUOgQtGrcDBt2/4jV2zYiMyfL5NdytHNAM+8mKNQU4lL0Vbg7u6Fl42boHtgFfTr0QJeA9ia/JpEpMdDpnpeSkYob8dH4/cgu/LB/i0k3Z7GytMKQkL4Y13c0QoNC8O+FE/jl0HbsOLYPWbnZJrsOGdha22Bgl94YGzYU/TqFIfLKOWw6sBW/H9ll0ps3RzsHjO8/BsO6DUBTbz80cHI1WdlEtYGBTqqSkZOFHw9sxaeb1yEtK8OkZTf28MYT/R7Cw71GwN3ZDXtO/I3fwndgb+Qhk16nvgoNCsFDYUMxtGs/5BcWYHP4Dny377cqb2daGg+XBpgzZgoe6TUC9rZcFpjUg4FOqhSdGIvxS2fgZvxts5Tfp0N39O0Qiv6de8LRzgHb/t2D38J3IPLKWbNcT63u8w/AmLChGNXjQQiCgP2nDmNvZDh2HT9glusFNW2D9S+vgHeDhmYpn6g2MdBJtdKyMjB+6XScvX7RrNdp5dsc/TuFYUCnnmji5YujF07g8PkIhJ+LQGzyHbNe+17T0M0DoUFd0SMwGD2CgnE3Iw37ToVjb+QhnL1+Eeb8ddQ9sAs2vPwJ7GxszXYNotrEQCdVy87LwajFzyDq9tUauZ6rowt6t38AfTuGok+HHsjMycKR8xE4fD4Ch88fR3J6So3Uo65wcXBGj6BghAaFoEdgMHzcvXDo7FHsP61tiSel1cy/R4/AYPzw2hc1ci2i2sJAJ9W7lRCDBxc8bpan4cvTOeB+9OsYip73P4COLYMQdfuaFPD/XDiBjBqcklcTHGzt0bVtJ22ABwWjXbO2uHDrMsLPHcO+U4dx5HxEjdfJy80Du97bBHdntxq/NlFNYqBTvbDq9w1Y9mPtruzlaOeAkDYd0LVtZzzQtjM6tAxEXEoCLt++hssx1xEVc036uTZuPirD1toGrXybo7VfCwT4tkCAb3ME+LaAv5cvLtyKwtELkTh68SSO/He81m9alj77Kp7o91Ct1oGoJjDQqd4InT0St5PiarsaEltrG3QOaK8Lw+Zo1bgZWvk2h5ebJ2KT7yDq9nVcjrmGyzHXpJ/NMf+6LPY2dgjw04Z1a98W0s/+Xr5ITk/B5ZgbuBJ7HVdibuByzDVEXjlXp6bz+Xv54tCKLbVdDaIawUCneuPA6SN4evns2q5GuZwdnNCqcXP4efqgsacP/DwbobGHD3w9fWBtaYWk9LvIyctBTn4ucvJypdfs3BzkFeQhW/ZZru61SFMERzsH2Nvawc7GDva2drC30f2xlb3XvTrY2cPTxR0aUURs8h3EJN1BbPId3E66g+jEGFyJuWH2ncxM4buFKxHWrmttV4OoRjDQqV554+v3sWH3T7VdjWrzcHGHi4MjnB2c4GzvBGcHJzjZO8LW2ga21jawsbaBjZXuZytrCIKAvIJ8FBQWIK8gH/mF+cjLz0deQT4ycjKRkZ0pe81CRnYm8grya/uvWS3Thk3Aq0/Mqu1qENUYBjrVOy98/hr++Gd3bVeDzGhsz2H46LkltV0NohrFQKd66f2fvsDnW7+q7WqQGSwY9wKeH/F0bVeDqMYx0KneOnYxEu9t+rzMvdfdnFzR1NsPTRo2hr+XL7Jzs5GUfheJqck1ur1rfdI9sAs8XT3g4ewGBzsH3EqIQXRiLG7G30ZqZlqp54W164pXn5iFoKZtarC2RHUHA53qvRvx0Yi4dAoxSXcgiiIaeXgjwLc52vi1hJO9Y6nnpWdnYvvRv7Bp/xacunq+BmusPsGtO+DR3iMxrFv/Mv/NM3OycOn2VUTdvoY7KQkQBAFNvf3QrW1nNPbwrsEaE9U9DHQiE/hmz8945/tPTLrTW33gaOeA18fP4TxxIhNgoBOZyK2EGDzz/hxcib1R21W5JwQ2bY0vX/qILWsiE2GgE5lQcvpdjFnyLG7ER9d2Veq0Vo2b4dc31sGNe5ATmYxFbVeASE08XBrg58Vr0KRh49quSp3l7+WLTa+vZpgTmRgDncjEvNw88fPiNWjq7VfbValz/L188duSL9HQ1aO2q0KkOuxyJzKThNQkPPfx/DKnxZXE1toWfTp0x4PBfTCgc0+4OroA0I7Rx6XE48y1Czh5+Qz2RoabfDU3W2tbDOgchuDWHRDUrA0auXvD38sXAJCWlY49Jw5iR8R+/HXyYKXLDmnTEatmvQcvN4Y5kTkw0InMbNOBrfjgpy+QmJZc5nHDuvXHiO6D0K9jKGytbcstNzUzDV/u/AFr//wOOXm51aqjk70jpgwdj0mDH4eLg1O5x+fk5WLfqcPYfnQPth/dW+axPu5emP/YDIwJG1qtOhJR2RjoRDXkl4Pb8Ouh7YhOjEV0Yiz8PBshqFkbdGndHo/0GlHl/bovx1zH9E8XIur21Sqd37ZJK6yd+4HUEq+slIxU/HzwDxy/dBr/3YxCYloyvBs0hL+XLx7uNRwPhQ6pUrlEVDkMdCIVyM3Pw/KfVuHLHd9X6rxpwyZg7sPTYGdTfo8AEdVtDHQiFTl/8xIWrV9e7rh917ad8OZT8xDYtHUN1YyIzI2BTqRCB8/8iz0nD+JStLIbPrBpAAZ07sU9wolUiIFORESkApyHTkREpAIMdCIiIhVgoBMREakAA52IiEgFGOhEREQqwEAnIiJSAQY6ERGRCjDQiYiIVICBTkREpAIMdCIiIhVgoBMREakAA52IiEgFGOhEREQqwEAnIiJSAQY6ERGRCjDQiYiIVICBTkREpAIMdCIiIhVgoBMREakAA52IiEgFGOhEREQqwEAnIiJSAQY6ERGRCjDQiYiIVICBTkREpAIMdCIiIhVgoBMREakAA52IiEgFGOhEREQqwEAnIiJSAQY6ERGRCjDQiYiIVICBTkREpAIMdCIiIhVgoBMREakAA52IiEgFGOhEREQqwEAnIiJSAQY6ERGRCjDQiYiIVICBTkREpAIMdCIiIhVgoBMREakAA52IiEgFGOhEREQqwEAnIiJSAQY6ERGRCjDQiYiIVICBTkREpAIMdCIiIhVgoBMREakAA52IiEgFGOhEREQqwEAnIiJSAQY6ERGRCjDQiYiIVICBTkREpAIMdCIiIhVgoBMREakAA52IiEgFGOhEREQqwEAnIiJSAQY6ERGRCjDQiYiIVICBTkREpAIMdCIiIhVgoBMREakAA52IiEgFGOhEREQqwEAnIiJSAQY6ERGRCjDQiYiIVICBTkREpAIMdCIiIhVgoBMREakAA52IiEgFGOhEREQqwEAnIiJSAQY6ERGRCjDQiYiIVICBTkREpAIMdCIiIhVgoBMREakAA52IiEgFGOhEREQqwEAnIiJSAQY6ERGRCjDQiYiIVICBTkREpAIMdCIiIhVgoBMREakAA52IiEgFGOhEREQqwEAnIiJSAQY6ERGRCjDQiYiIVICBTkREpAIMdCIiIhVgoBMREakAA52IiEgFGOhEREQqwEAnIiJSAQY6ERGRCjDQiYiIVICBTkREpAIMdCIiIhVgoBMREakAA52IiEgF/h9LkBtzYd0dJwAAAABJRU5ErkJggg==;" parent="1" vertex="1">
          <mxGeometry x="75" y="-2193.5" width="130" height="127" as="geometry" />
        </mxCell>
        <mxCell id="L57hU3vJhA9-MwYrpEn6-32" value="" style="shape=image;html=1;verticalLabelPosition=bottom;verticalAlign=top;imageAspect=0;image=data:image/png,iVBORw0KGgoAAAANSUhEUgAAAfQAAAH0CAYAAADL1t+KAAAAAXNSR0IArs4c6QAAAARzQklUCAgICHwIZIgAAAAJcEhZcwAADsQAAA7EAZUrDhsAAARpaVRYdFhNTDpjb20uYWRvYmUueG1wAAAAAAA8P3hwYWNrZXQgYmVnaW49J++7vycgaWQ9J1c1TTBNcENlaGlIenJlU3pOVGN6a2M5ZCc/Pgo8eDp4bXBtZXRhIHhtbG5zOng9J2Fkb2JlOm5zOm1ldGEvJz4KPHJkZjpSREYgeG1sbnM6cmRmPSdodHRwOi8vd3d3LnczLm9yZy8xOTk5LzAyLzIyLXJkZi1zeW50YXgtbnMjJz4KCiA8cmRmOkRlc2NyaXB0aW9uIHJkZjphYm91dD0nJwogIHhtbG5zOkF0dHJpYj0naHR0cDovL25zLmF0dHJpYnV0aW9uLmNvbS9hZHMvMS4wLyc+CiAgPEF0dHJpYjpBZHM+CiAgIDxyZGY6U2VxPgogICAgPHJkZjpsaSByZGY6cGFyc2VUeXBlPSdSZXNvdXJjZSc+CiAgICAgPEF0dHJpYjpDcmVhdGVkPjIwMjMtMDktMjc8L0F0dHJpYjpDcmVhdGVkPgogICAgIDxBdHRyaWI6RXh0SWQ+MjkxZDM2MDctOTc0MC00NjNkLTgzMjItZjM4NWZkNTk5NjVhPC9BdHRyaWI6RXh0SWQ+CiAgICAgPEF0dHJpYjpGYklkPjUyNTI2NTkxNDE3OTU4MDwvQXR0cmliOkZiSWQ+CiAgICAgPEF0dHJpYjpUb3VjaFR5cGU+MjwvQXR0cmliOlRvdWNoVHlwZT4KICAgIDwvcmRmOmxpPgogICA8L3JkZjpTZXE+CiAgPC9BdHRyaWI6QWRzPgogPC9yZGY6RGVzY3JpcHRpb24+CgogPHJkZjpEZXNjcmlwdGlvbiByZGY6YWJvdXQ9JycKICB4bWxuczpkYz0naHR0cDovL3B1cmwub3JnL2RjL2VsZW1lbnRzLzEuMS8nPgogIDxkYzp0aXRsZT4KICAgPHJkZjpBbHQ+CiAgICA8cmRmOmxpIHhtbDpsYW5nPSd4LWRlZmF1bHQnPmFzY2QgLSAxPC9yZGY6bGk+CiAgIDwvcmRmOkFsdD4KICA8L2RjOnRpdGxlPgogPC9yZGY6RGVzY3JpcHRpb24+CgogPHJkZjpEZXNjcmlwdGlvbiByZGY6YWJvdXQ9JycKICB4bWxuczpwZGY9J2h0dHA6Ly9ucy5hZG9iZS5jb20vcGRmLzEuMy8nPgogIDxwZGY6QXV0aG9yPkxhaXMgRmVycmVpcmE8L3BkZjpBdXRob3I+CiA8L3JkZjpEZXNjcmlwdGlvbj4KCiA8cmRmOkRlc2NyaXB0aW9uIHJkZjphYm91dD0nJwogIHhtbG5zOnhtcD0naHR0cDovL25zLmFkb2JlLmNvbS94YXAvMS4wLyc+CiAgPHhtcDpDcmVhdG9yVG9vbD5DYW52YTwveG1wOkNyZWF0b3JUb29sPgogPC9yZGY6RGVzY3JpcHRpb24+CjwvcmRmOlJERj4KPC94OnhtcG1ldGE+Cjw/eHBhY2tldCBlbmQ9J3InPz5/CGAjAAAgAElEQVR4nOydd3wcxdnHf7PX1S25yr3bGDAGDLYxxZjeO6aFjiEEeCkBAgkltCRgWkggQOgdTGimGgw2Bowx1QZ3y0WyJatLp+s77x/b907S3en2JO09Xz5mtbszs3On1f72meeZZxjnnIMgCIIgiF6N0N0dIAiCIAii65CgEwRBEIQNIEEnCIIgCBtAgk4QBEEQNoAEnSAIgiBsAAk6QRAEQdgAEnSCIAiCsAEk6ARBEARhA0jQCYIgCMIGkKATBEEQhA0gQScIgiAIG0CCThAEQRA2gASdIAiCIGwACTpBEARB2AASdIIgCIKwASToBEEQBGEDSNAJgiAIwgaQoBMEQRCEDSBBJwiCIAgbQIJOEARBEDaABJ0gCIIgbAAJOkEQBEHYABJ0giAIgrABJOgEQRAEYQNI0AmCIAjCBpCgEwRBEIQNIEEnCIIgCBtAgk4QBEEQNoAEnSAIgiBsAAk6QRAEQdgAEnSCIAiCsAEk6ARBEARhA0jQCYIgCMIGkKATBEEQhA0gQScIgiAIG0CCThAEQRA2gASdIAiCIGwACTpBEARB2AASdIIgCIKwASToBEEQBGEDSNAJgiAIwgaQoBMEQRCEDSBBJwiCIAgbQIJOEARBEDaABJ0gCIIgbAAJOkEQBEHYABJ0giAIgrABJOgEQRAEYQNI0AmCIAjCBpCgEwRBEIQNIEEnCIIgCBtAgk4QBEEQNoAEnSAIgiBsAAk6QRAEQdgAEnSCIAiCsAEk6ARBEARhA0jQCYIgCMIGkKATBEEQhA0gQScIgiAIG0CCThAEQRA2gASdIAiCIGwACTpBEARB2AASdIIgCIKwASToBEEQBGEDSNAJgiAIwgaQoBMEQRCEDSBBJwiCIAgbQIJOEARBEDaABJ0gCIIgbAAJOkEQBEHYABJ0giAIgrABJOgEQRAEYQNI0AmCIAjCBpCgEwRBEIQNIEEnCIIgCBtAgk4QBEEQNoAEnSAIgiBsAAk6QRAEQdgAEnSCIAiCsAEk6ARBEARhA0jQCYIgCMIGkKATBEEQhA0gQScIgiAIG0CCThAEQRA2gASdIAiCIGwACTpBEARB2AASdIIgCIKwASToBEEQBGEDSNAJgiAIwgaQoBMEQRCEDSBBJwiCIAgbQIJOEARBEDaABJ0gCIIgbAAJOkEQBEHYABJ0giAIgrABJOgEQRAEYQNI0AmCIAjCBpCgEwRBEIQNIEEnCIIgCBtAgk4QBEEQNoAEnSAIgiBsAAk6QRAEQdgAEnSCIAiCsAEk6ARBEARhA0jQCYIgCMIGkKATBEEQhA0gQScIgiAIG0CCThAEQRA2wNndHSAIIvM0t7ViyS/L8OOGldi0YwsAYOTAYdhz7G44YLdpyPfmdXMPCYLINCToBGEjft28Fo+8/TQWLFvYYblTDjgGlx7zO4wdPDJLPSMIwmoY55x3dycIgugawXAIf3/1X3jqw5dTqjf36HNwzSlz4XV7LOoZQRDZggSdILJAZe0OvPvNx1j041eorN2OrTurUOjLR/+Svhg/dDQuO/Zc7D5ql7Ta3rRjCy554Hqs3bYhrfoTho7BE9fch2H9B6dV/+eNv+Lf7zyLtds2oKaxFuFoBAP69MOQvoNw8JSZOGbaIRhUOiCttgmCSB4SdIKwmNufvz8py3nW5Bm48qSLsOeY3ZJqt8nfjKc/ehX/ee95tIUCXepjgS8fFx91Fs4/fA6K8wuTqvP9+l/w8JtPYtFPX3Vadu7R5+CmM6/sUh8JgugYEnSCsIjt9dU4/96r8duWdSnV23vcZBwz7RDsPW4P7DZygnp8S00lttdX4+eNv+H7dT/j0x++RCgSzmifvW4PZk+Zib3HTcZuIydiYGl/DO1XDgAIRUJYs3UDvl3zI9775hP8sH5lSm3vPmoXPP3HB9C3qDSjfSYIQoIEnSAsYHt9NU65/WJsq93e3V3pUQzrPxhv3vZf9Csu6+6uEITtoHnoBJFhahrrcNodc0nME7ClphIn334Rahpru7srBGE7SNAJIoPUNTfglL9ehC01ld3dlR7L5uptOPWvl6CuuaG7u0IQtoIEnSAyxPqqCpx+51xsrt7W3V3p8VRUb8Wcuy5Tk94QBNF1yIdOEF2kua0V973+KJ79+LXu7kqv5IIjzsC1p8xFgS+/u7tCEL0aEnSCAPDd2p+wdNVyiKIIACjOL8TR+x6CAX36tVtn4feL8e43n+DD5YsQDIey1VVb4vN4ceTUg3HcjMMxa/KMdstVN+zEgmUL0eRvAQA4BAdmTNobe4+bnK2uEkSPhQSdyFkqqrfi1c/fwVtLP0BVXXXCMmMHj8R+k6aipKAYIhexuXob1ldWYNXmNVnube7gcbkxdvBIjBk8EsP7DwFjDA2tTVi68lusr6pIWGdI30E4ceaROO3A49JOkEMQvR0SdCInmffGY3j4f//t7m4QFnDjnCtw2bG/6+5uEETWIUEnco4/PHIz3v364+7uBmEhZ8w6AX+76Obu7gZBZBWKcidyipueusfWYs4YA2MMAhMgMAEOQYDT4YDT4YBDkPYFJqjl7MrLi97C/W/8p7u7QRBZhSx0Imf4ZMViXHT/td3djZQpK+qD8rKBGNxX+te3qBRlRaUoLSxBaWEJ+sjbkoIiAFKO90AoiEA4hGA4iEAoiJgYQ743D163Fz6PFz5563G50dzWgvqWRjS0NMrbJtS3NGJnUx0qa3egqm4HttVux87Gum7+JlJn/q1PUsAckTOQoBM5w35XHddjs7eVFpZgzOCRGFM+AmPKR2J0+QgM61+O8rKBqGuux7rKCqyr3Ij1VRXYXL0NbcE2BGSxVrb+YFta1zYKvQc+jxd5Hh+G9huMMeUjMHbISIwpH4mBpf1RVVeNrTsrsaGqAusrK7BhewXWVW5CbVN9Zr+QDDFiwFB8cf+b3d0NgsgKJOhETvD4ghdw10sPdWsfGGMoLxuIsYM10R5TPgJjBo9EaWEJNlRJ4riuchPWV1VgfeUmbKiqQCAc7NZ+65k4bKza5zHlIzB28CiMHzoaTf5mrK+swPoqqe/rKjdhfeUmbKvdju5+xNxy9tW48Mgzu7UPBJENSNAJ27OlphJH3nQWWgP+brl+vjcP0ybuhWkT98Q+E6Zg1xETUFW3A0t+WYZvfluB37asw7rKTd3St0wxatAwjB86BtMn7oX9Jk3F6PIRWL11PZb99j2Wrf4BX/26HI2tzd3St0JfPj762ysY3Hdgt1yfILIFCTpha9pCAZx46wVYvXV9Vq87YsBQzN5zJmZN3g/7TpiCyrpqfPPbCnzz2/dYuurbXumPToWSgiLM2GUqpu+yF/adsCfGDB6J79f9jEU/LsVnPy5NeUnZrrL7qF3wxi2Pw+PyZPW6BJFNSNAJ29Lkb8E5f78CP21YZfm1XE4Xpk/cC7P22A+z9tgPohjDN799j2Wrv8eXK7/N+YVIivOLMH0XaZRi2sS9UFJQjEU/LsWiH5fiy5Xfoi0UsLwPU8fvgedueBh5Hp/l1yKI7oAEnbAlX/+6Alc/eiu21yfOAJcJ+hQU4+ApMzF7ykwcuPt0VNbuwDtff4T/Lf0QlT00+K6n0K+kDMdNPwzHzzgC44eMxtJV3+LTH77Epz98iR31NZZdd/iAIXjo93dgyphdLbsGQXQXJOiErahrbsCdLz6IN79835L2xwweiSOnzsLsKTMxefQkVNVW452vP8LbX32U9WF9uzC0XzlOnHkUTphxOEaXj8BvW9Zh4fdL8OHyRVi1eY0lQXVnzT4JfzrjShTSgjCEjSBBJ3o9q7eux5crv1WHb61g2sQ9cfpBx+OofWYjEA5iwbKFePPL97Fi7c+WXC9X2XXEBBw/43AcO/0wlBWW4KMVX+CVRW9h6arlGRd2j8uD/SbtjYMmz8ABu0/DyIHDMto+QWQbEnSiR9MS8OOVRW9hVcUabK7ehk07tqChtQk+jxejBg7Hhu0Vlq101qegGHNmnYDTDjwO/UvK8OHyRXjn64/xxc9fW3I9wsjU8Xvg+BmH4+h9D0FbMIBXPn8br37+Nmoaay25XoEvH8P7D1HvqT4FxRg1aDiGDxiC3UZOwOkHHY98b54l1yaITECCTvRYHnvvOTz45hMIhLI7D9vn9uKcQ0/BJUedjQ3bK/DCwvl495tPstoHwsjBU2bi9AOPw36TpuKpD1/Bfz98GU3+7E6Dy/fm4cY5f8DvDj01q9cliGQhQSd6HMFwCBfcdzWWrlqe1esW+PJx/uFzcOGRZ+C7NT/h4beexM8bf8tqH4iOGTVoOK444QIcvvdBeP6TN/D4+y+irjm7WeoO3esAPHnNvKxekyCSgQSd6HGcfPtF+G7tT1m7XnF+ES4+6kycd9jpWPj9Evzrnad7faIXu1NeNhCXHfs7nLDfEZi/ZAEeefvprKafnT1lJp667oGsXY8gkoEEnehR3PHCA3jyg5eycq2ivEJccMQcnHPIKfhg+Wf49zvPoqpuR1auTWSGsqI+uOjIM3Hagcfh7a8+wmPvPWeZj93Mn864ApceQ+uuEz0HEnSix7Bq8xocddPZll9HEfLTDzoeb3/1IZ54/8WcT/zS2ynMK8C5h56Ks2afjA++/QyPvP0U6lsaLb/u0ofewZC+gyy/DkEkAwk60WM4/c5L8c1vKyxr3+lw4NzDTsM5h5yK+UvewzMfv4aWtlbLrkdkH6/bgzmzTsA5s0/G/C/fx9MfvmLp4jYn7HcEHvr9HZa1TxCpQIJO9AhqGusw9fIjLGt/5q774I7zbsDC7xfj/jf+06NWMCOs4YoTLsApBxyDB998Am8t/dCyVd9+fvwzFOcXWtI2QaQCCTrRI3hh4Xzc/PTfMt7u+KGjccvZ18Dn9uKGJ++kYLcco7xsAP520c0oyivE7c/Pww/rV2b8GvdceBPOPPjEjLdLEKlCgk70CM7+2x+w5JdlGWvP5/bihjmX4+h9D8E9L//TslSwRO9g9pT98ddz/4jv1v6I256bh4bWpoy1fdDkGXj2+ocy1h5BpIvQ3R0giG212zMq5gfsNg2f3vsaHIIDs647hcScwKc/LMHBfzwFW3dW4bP73sBJM4/KWNuf//SVpQvKEESykIVOdDvXP3EHXv38nS6307+kL/581lUYPmAobnzyrqyvud2jYLqfeTv7OfqXP3zAEPztwpsQFWO45Zl/YNOOrV1u83eHnoo7zrs+A70jiPQhQSe6lWWrv8dpd8ztUhuMMZw9+2TMPeYc/Ovtp/Hyorcy1LsehiLCLMG+YcsAzlPYN21hOm9TjtpnNm4680q8+vk7ePTdZxCNxbrU3vxbn8Te4yZnqHcEkTok6ES3saWmEsf8+Rw0+VvSbqMwrwB3X/An9CsuxR8euTmr2cIshbW/H6fdmbomN2q9+Vyi8r2dfG8eHrjsdhT48nHNY7d1aei8f0lfvH/3C+hXXJbBHhJE8pAPnegWGlqbcNY9l3dJzPebNBUL//4q1lVuwpy7Luu9Ys7kfwKTt9o+l/e5YV/aMoHJBjUz1U9xK9dX2zNdBwxx+4C+vv6D9C78wTZc8sAfsWDZQiy483kcsuf+abdV01iLM+++HK0BfwZ7SBDJQxY6kXU2bN+M8/5xFbbUVKZV3+1y409zrsDR+87G3AdvwA/rf8lwD7MAM22hjXarxw2+b/mA3jTXm8iKaa3fV86by/ME5ePG1zs4b35i6C16bjzemxg3ZBSevGYelq5ajjteeABtoUBa7YwdPArPXP8gZZAjsg4JOpFVnvzgJcx7/bG0H5b9Ssrw5DXz0NzWgj/88+asL6HZJVSxZuDgYPot55roquPeCfZNxznX6ifcgoMhwbad8pKI694m9NdtZ1+tr2sXoskH30ueMj63F/fNvQW7DB+HC+ddi43bN6fVTnF+Ia4/7XKcfcjJGe4hQbQPCTphOU3+Fryx+F088/FraVvlADBt4p545A934/H3X8DjC17IYA8tghl/jrPAE5bVWeLyvl784yLYmGk/4Vahk3JmsTa9BBjFHroPxNu1zFmi473giXPy/kfjT3OuwO3Pz8O733ySdjvjh47GuYeehpNmHgWfx5vBHhJEPCToRMYJhkP4dvUPeGPJe1i2+ocuz9FljOGyY8/FWQefhEsfugG/bOrha5THWeLKKLdsiQsJLHCzxZ3Acjfst2Oxxx1PZtuOqKvX68gS78hyV8pBOW223M3D+j2L4QOG4Mlr5mHxL9/g7pceQkwUu9ReedkA7DNhCk6eeTT2nTgFHpcnQz0lCAkSdCJjbK7ehsfeew7zlyxAKBLOSJv53jz8+8p7IIoirvz3X3ruYio6y9sQfa4T9zifN7gUZKY2YBZ5BZ2lzUz7ynn1rUGnrabuqdKtL84TtWe6tPk81+3L5/XirX0RJp+7bhvnc+/BT6G7LrgRowYOw1X/viVjS7N63R6cNPMoXH78+eRrJzIGCTqREf751lO47/VHM9rm4L6D8N9r52Hh94tx3+uPZbTtjGAePjf5xlWLVWeRd+o778SHbvCFJ/SZK+Id7ztXOmo435EPPklLvF3L3FwuznLXtnHi38M4Y9YJ+MPxF+CSB/+IVRVrMtaux+XGtadeirlHn5OxNonchQSd6DJzH7weHy5flNE2Z0yain9feQ/uefnhjGSRyygmIedxwq4vqxN3s8+bmS1vuT3EW9jqeaWqoqWCBaPW7bWnGy1n+nJcVwC6jut98dw0rJ+oPm+v3Z7BEVNn4cHf/xVXPvJnfLzii4y2fdqBx+HeS/6S0TaJ3IMEnegSf/rv3Xjps/9ltM05s07A3Rf8CZc+eH3GH5xdQhVlnU88kVgnstQTWd5gYAKHAwC4CDBgcH4IkQhDWV4UJa4IYlGO0X0jCIdFlORz7NIngI2NXpTlRyFGRHy/swDvbO9viE9rf6tc33RcT1w9TaSl6vH78dHt7VjmjIGLpnK68gzKeQAitPM9iL3HTcaz1z+Ex957Ho+8/VRGl2T9/XHn4YbTL89Ye0TuQYJOpM0Hyz/DpQ/ekLH2nA4n7jr/Bhw7/TBccN/V+Oa37zPWdpdh0IxP+Wf1OBDvE9f5wAUmgnEG0cEwsagVDX6GCX1D2KN/G3hUxNi+YexSFkCIC/A6AI9ThAjA7ZD1jHMIApMNWy5rpCSCoSjDkW+PRytzxxnKSaPXYNPHSmgl805+1r+zAIaXAmXf4HM3B8hx7V2iJ1rsE4aOwUs3/Qsr1v2C//v3LfAH2zLW9mt/+Q/2nbBnxtojcgsSdCJtpl5+BGoa6zLSFmMMD152O/bfbRrm3HUp1m7bmJF2u9YpZWuyuBWfuG7LOZcyrXEO5mAYmd8GfwgYURTCcWMbMbokiJaQA5MGhOFgIjgAIc5i7xzlz5XJLwycM7y9rgh3rRwO3p5pniiaPUFUuzm6XQugM+/DKLKmfSb302CRd+JL7/S8qIl9T2BIv3K8evNj2LRjC86/72pEopGMtDt28Egs/MdrGWmLyD1I0Im0ePurj3Dlv/6ckbacDgfmzb0VU8fvgVPvmIvK2u0ZabdL6KxwQ7pTk0XuETicLIp8D7BLSQsm92nBhP5hjO8fQZ5LBMATzzLTwTmXhFBgumOQxFBgaj0xwhEOAU434PIwtVx9wIHLFo3AxnB+4s+R6l94Bz508z5r53jCLaDNS+fK/+QPx02+dp64HfV6PeCpVVZUiudveBj1LY245IE/pp0syQxZ6US6UC53Ii0+/+mrjLTjdrnx6FV/x7gho3HsX87tGWKu5E5nTN0CkuA6wFHgjKLM2YbTxtbgySPW4aPTV+OFY9bh77OrcOaezdhzSBB57hgY46p4a/5nHud3jYaAtmYgGtKOi1GOtiZA1C0AFotJZcWo3lIHyvJiuHi3nXAmyvkOxOdmb2+rdDZRrnfE77NEuebl7w9M2XJ1nzGAMzkGgckjHMoIApMtesa1793UDy13PYz96ibqmutx6h2XwOlw4IUbH0G+Ny8j7S7+eVlG2iFyD2d3d4Donfy6eW2X23C73Hjmjw/CIThw0m0XIhAOZqBnaaKzwBVRUpLCuFkUXiGGUcUBHDe+CYeNagRjgENnURc7JOVVhpoVS1JviAIM0TBHsJXD7QU8+bKVLUoiHYtpf5BMkOvHAO6Q2nR5GaIhDlEEmM5Jzjlw6LAWvLu5EUsb+qiBeMltoSa74TqntZaZTts3Ore185oLXBJvwzx3XRS/4vs3bAUGprSnHufqlkF3PVP7PWGqmz/Yhjl3XYb//N8/8PwN/8T5913d5XTEP25YmaHeEbkGWehEWuxs6prv3O1y44mr70MkGsHpd87tGWIuW5pMYHAxEWXOIM4cvwPPHLMeH5yxGo8evQVHjW2CU2AGMQc4YhGOYAsHF7XjsTBHa72IQLNmTUtCxKDXI5ecEZTHdJa3IB2PRRUxla7jyWdwmF7DmSzCJw+rhRsx1eKVLNsOtkxnASuxAarFrp1nun3N4jfXh6m+7HtXLHj5+1Utd2Vfvq4Um6DtK5a7Zqmb+id/cKX9lIIALWDug9djw/bNeOmmfyHP4+tSWxuqNmeoV0SuQT50Ii2GnzU17bqKmPcpLMapf704Y1nlUkYeulUsTMaA/r4w9ujbjJMmNmLXAQE4Ta+8nHMt+lrQLHF/E4cYBXxFgNOtWd6t9dKfV0EpAxOkIfS2Jg6HE/AWagFnkSAQCwPeIi3gTRSl8g6nXtQBMcbBHEYrHQBiMYYjPxiHWnjj/PbKGwSTLWHFtW5sQfFpm/b1vu5E+4YMcWjfh272uSd9Xvaxt5eEhsu++QQ++2zz5DXzUFJQhN/9/cou+dQ3v7g8g70icgWy0ImU6coCKw5BwBNX34fysgE4+54/dLOYSzLUzxvBOeOrcM+MDXj8iA3468E7sMegeDGPRjlCrUCgCQi2GNtyy2m5Yzr/Nhjg9snD50pRgcOTZ/SNK8PpDjcMws0EwOmMNz4FB4sTcwAQBI7fT9wO5pDdBbLbQLF8mc4S5kw+zzi4oPm09ecNlrhqwSfY1/ngFQve4IPX+8BNPnfN1w7ddbWtwceu9EffLmC05JXfbTdx0f3XIhKN4LkbHu6Spb69vjqDvSJyBRJ0ImV+3LAqrXoOQcAjV9yNcUNGYc5dl6G5raXzSplGtsqdTMSI/FZcudc2vHbyGvxhej1mjW3DwKIopMA1IBqWhtK5WpUhEpLEOBqFIemJ0wM4nNKwuXopJkWjKxHr0jEGp4fBaRZvBrg80PmtVbd78sFfDJgxqA2DvUFDwJt+GDzhPtB+AB0z7nNmElXd8L7+pUApJ7WhfzmATtS53Kb2e1FfCuQtN/fXnKxHCbyTj3NB11Y3ceG8a5Hn8eG5Gx6Gz53eCmvp/o0RuQ0JOpEyS1d+m1a9P591NfadMAWn3zkXdc31Ge5VEjBgeGEQx46swV0HbMLzJ2/Embs3IM+tH6+VEGNAoBkItWmnBAeHW2d06QVZssaZToXlw07AkwcwB9MXlQLiTEPDUjBd+krEAPTPi+KKcTvgFDiM0eYJtky3D/N5efxbbzHL+8wgzjqfd3s+er0I619QFB+9Opug/f4qAXzxLw9KOxzxFnvaX2WXaAsFcNY9l6OsqA/mXXorBJZ6R77+dYUFPSPsDgk6kRKtAT/+t/TDlOudPftknH7QcZhz12VdGrJPlzwWxhkTqvHvozfh5lnVOHB0G1wO7XwswhEOcnBp6jgcTsDhBmIRo3Xt9jEIDklb9KtpSpa3olVGK9vlYVK7+oP6rfl4F5ld3owCFpUtXCTeMtM/QWc5Sx8o4bB5QssdkiUdX88kvoxL5dSpbMbhdUM/dN+ReeTA8JIQ5xbQXj4MgXhZpqG1CXPuugx7j5uM60//fcr131r6IQKhbgwUJXolJOhESjz14SsIRUIp1dl/t31x05lX4py/X5HVDHAOiJg+oBFXTN6Kd85ahyun16AsL4pEiUlCAckvHo1wVQC00VKddS0AHp+8qlmCvx6X12S5y+WYI76sVTBwnD5oh244HUafs35fZwknnFcui6smjoqlDF1UOmTLXS+m7Vjuqgjr+2PcMgYk8rGzBJa6Fg1vtNDVzwMYRyOySHXDTsy56zKcNfskzJl1Qkp1m/zNeHlRZtdIIOwPRbkTSVPTWIeZ/3d8SoI+cuBQvHfn87jsoRux+JdvLOydBmPA5LJmnL/HTkwdFoCDcYN+i1Eg0CrC6WTwFEhP+XAbR6gNyC8BBKd0jItS9LqvQJ4qJgsCF4FgK4e3kHV3bpN2+XmnB+f9PCG5ldj0weuJziXYZ4AW7W8umyBKXXUlcBii45Vj7UWvqxHspuPGqHZde1ye167uJyrfzvdgEXuMnoTnb/wnzr/3any39qek6xXnF2LJA2+hOL/Iwt4RdoIsdCJprn70lpTEvLSwBE//8SHc9NQ9WRFzARweMYI/T6vAP47Yhn2HByCAIyZy8Jj2FOcAxCiDPv22U06lGg0zTQQZh8stWbx65WKCFATXkxlfGsYhfeqlv/BkMsUB8cPr5mF31TKX55nrhscNw9uGDHHt+NzN88r1FrbJ0oZg8omr7SgWu2apq8P86nHE+9Sz/BL244ZVmPvgDXj86ntRXjYg6XpN/hZc/8SdFvaMsBtkoRNJcdNT9+DFT99MurzABPz32nn4ZdNq3D//Pxb2TBLcMYV+HDmqHifs3iwHuUlwDgSbOaIRbS44FzkCLZKlnV/CZGOOI+yXhMlbwAz1weOH1xPlZO9p/NyQh4t/HI2QomQcaGeCuq6WvM8Ne8b54e39rDuWyKrWl5fOcyg53JV55oplzcx1ld+Dad/QXlx53bz1jupniTMPPhFnzT4Jp9x+cUqJlK444QJcd+plFvaMsAsk6ESHhCIhXP7Pm/DJisUp1btxzh8wZcyuOP3OSy3qmcQAbwgXTqnG4eOa4XbyOOOLc45AozTDLL+PstAJRywMBAl+dD8AACAASURBVFqkY4Ls3+YiEA5yePJMraiK1rvgnOHEJaNRIRZA/RAJVldLKPK6VdfM+/Hrn0OJpDMNo+uG5ZXvUNSLdgerrenXTdeXF01ir56Xr5OwvKldpT7X9TdL/OuKuxETY7jyX39Jqd6pBxyL++beYlGvCLtAQ+5Eu3y58lsccv3pKYv58TOOwKkHHJvRtdLNMHAcPaoOjx+/Ecft0gS3Q17eU+SIhLghqtzlg5wvXXp4M8bgcDO4vVDFXG4U7rwEzuReKOYSHBcNqwYEJXAMuihz/bC7OaCMa8d1AWjmYXNl3rc23M4Nw+7ctAWQcB583Lx2mNpXF2zhxvZMgXPK50Oiz6ePgge0z5Xl3+11//krJo+ehAuPPCOleq8vfheH33gGzU8nOoQsdCKOBcsW4vEFL6T18BhdPgIL7noeZ979e3y/7hcLegeU+wL4v+k7sN+IVjhMD+RYFAg0cXjzAKdPO9nWxOEt0FnjnIPHmJRCtdcKduesb3TjlF92URc8MVjeyr7O4uYmSzyR5R5nyaM9yz1+GF212JXznVnsYkfH9e3JH9hsqZvrm47rh+OzxdjBI/G/257ChfOuwbLVP6Rcf+r4PXDhkWfgyKkHW9A7ojdDgk6ofPHz13h8wQv4Ms3EMQW+fLzz12fw+uL38Oi7z2a4d9Lz/4CBdbj5oB0oytOewrEIIDiVFcKAUDOHww24vJpSizEOHgMEV8+NTLeCKGe44eehWNhSGn8ykQtdf87sazCLqn4Yv50o9ThfeGfnFd+97APXR68D8nrp+uu05xtPeFwv6roy3eBTP2baofjrudfhmD+fi6q6HWm1MXPXfTD36HNwwO7TMtw7ordCgk4AAG57bh6e/uiVLrUxb+6t6N+nL8752xUZ6lU81+61GadMblZF2d/AIca0gDdAmpYWjfCEc8JzD4ZNbS6c9eM4+LkTHLopZIDO4obm9Eai/cQ+dK74us0+8A595IAyVU2qD8nCTuBjb9eCF03tiYkt9cQ+dLOlDm0cXsze4/BvF92MYf0H4+x7/gDRkHkoNS45+mzcfOZVGewZ0VshHzqBc/9xVZfF/NQDjsXMXffB5Q/flKFexSNwjv5FxpXHGAMEUzYw5gAEJ4m5BMcIXwQlPGLI8KZliDMuccrNS5Kap46ZMsTpp4hpS6rG+9y5wScPnS9e54OX24O+n2afvy5DnMEHHudbh9Y/1TefoL6gfReaSZ8dbn32XpQWluCqky7qUjuPL3gBF91/bYZ6RfRmSNBznAvuuxqf//RVl9oYO3gk7jj/elx0/3WWLrgiMoZfq93QDyp5CxhEkRuClRlD3JrhuQ3HpEJ/whzpqrhC2zfML1cDznRibMoQp4g304u6Oi8chn1VXA0vC9r14wLWlHns0PaNLxEwBPQZM9Cph+MD/Ezz1NWtXvwtJhQJ46L7r8OFR5yB/SalvxwxAHyyYjF+//CfMtQzordCgp7DvPjpm/j0hy+71IbP7cWjV/0df3vlEfyy6bcM9ax9ojGjD5w5OPKK4/3iZJ0bmTO4DnmOmFHMgYQib45ON1j2Oss3oQUvxFvWMG0NS7bqXhJUUWfG9hNa2rroda5/uWCQouPNljtLxlLXrQ6Xpdtn284qXPPYbXjo93egX0lZl9pasGwh3v7qowz1jOiNkKDnMPe9/miX27j+9MuxuXobnvno1Qz0qHPC3GGyxhkcrqwZVb0SxoA9y4KYVdhosrxZOyIqV4zLEAej6OstX7kdveWurb+unxqnWcbMbLHr1jM3WOpmS9u0Trph1TW1nrE9sFQsdeVfdm6qj1d8gXe/+QR3X9B1CzsTf9NE74UEPUeZv2QB6lsau9TGpBHjcdz0w3D1o7dmqFedwIDvd+Qh3nwiNe8MBmD//AZNzBPM6zasT55gHwxwQApiY4L8s8DgZlJEmhPSAi1ytlnpuoroMv365nqRB8zzzPUvDZyZXjp0FrthOF8w1VcsdUO6WOVzAx1b6tBEP0u31u3Pz8OEoWNw+N4HdamdLTWVXR51I3ov5GnMUT5e8UWX6jsEAfde/Bf87ZVHLPWbG2DAgIIoGOOdlyVMcIwoiMhWKtNFt+u2YBDAUYQoClgUE31tcIcj6NuHYThrg4/F0KcIYMEYwsyBSQV+rG32YHhJFJsaHCjOY4iGOVq4CwOcQfzUUoAhzgC+bS2CIxLD2lA+nIxjbSAfPCpiJ7xwcBEhOMEgAkyQovD1Geggd0/UGcwMWnS9YmHL89rVefD644KpPcB0HVO0vr4dZaJ7Fm65G5+8C/MuvQ1frvwW/mBb2u189uOXmD1lZgZ7RvQWSNBzlO/WJL/qUyLOO/x0xEQRry9+N0M96gDdMPHaxjw0BwQU+dKf5pOrDCuIYLKvFT+EClQRZ4JRBIdxP97aez0cDBDBIUDTMnXaWAlTAxP75QcBcAzxRXVJaaQ85eNLG8AYMIMHZTGuB+ciYpzBJQANQQFcEPBrvRsxzvDFjkK4HByf15WglTvRJj+eOIdkOevnlQvKIjrS+DwTNPHmai542afOJctbeQ/k8qeRtFse31dEXG1HfmkQoE2ps1jUl65aju/X/YzrTr0Mtz8/L+12Vqz9OYO9InoTJOg5Sm1zfdp1B5b2x7WnXIqTbrswgz3qAPWZy9AWYYbFV4jkKXBxXFhejes25yMoi5kkdpqonzuoFg5Z+eIXJ5PnjKtb6Wf9lhvOyfV1ZRljcMq/zxKvCEDEjAFRMMaw/0A/AIbreQ0cDo6VOz0IcwGf1pZgdZ0b1REfqiMucM4gcqZeETCJsTyMbrD0RehGJLTPpc3L11nq+peDLIv6bc/Nw+fz5uPNL99PO8h0Z2NdhntF9BZI0ImUufuCG/HSZ//D6q3rrb+YEiAlL5XpcDPUtDkxSB4+JpKHc44D+7SitCKIKiFPHmXXxGyoEMDh/ZsMuWbECIfgkPzLyswBLk8TFOS8u5xzxKIAjwIOt5zgRx4m5+AQBGbog35oG1B0VlRHCRik07uUhcDAsEffKoAxNIcEtIQZNrb4sGRbHtb48/BboBAi5Kh6UbbUuSbykF3jisUNAWCyOKuWOiAnn0HC4Xa1q1l4j6xprMUD8x/HPRf+Ccffch5iYuojUV1JUkP0bigoLkcZWNo/rXoHTZ6O3UfuggfmP57hHiVAHmZXp6AxhpaoE1vqXV0Qc45omCPklxZxySWYrJSDnSGY55GDccxwNaDQqbOwRY5gq5SNj4uaeIcDQFsjIMbUlhFuA4J+IBbRhrkDLRz+eiAS5lLufA6EWoFwG0csJnWBc0loxajuF8q4PKTP1RcJBqDILWJwQQz7D2rFzfvsxLOzNmPhwavw0n5rcHL/GozxtMKHiNGHzqCbl27a6n30unnuhvn0hkA6rY6VPPH+i8jz+HDGrBPTql9SUJzhHhG9BbLQc5Ty0gHYUV+TUh2HIOCWs6/Bbc/P61LQTlLoHqCGqUZgaAwoJ1MXZM4Zgi2SNejKUQv/yH7NWL6zjzbViwNeLmLOkEYYvlOBgcmR7to7lfS9C07ErRHPBMDp1qxwZVBcEKR6YgyIhKS28vUL5zRKdfKKGQQnADBEAtILhyBwOF2SsBpf4iRLvtgLFHlCuGmv7eAAKlvdWL3Tja935mPhzjIEY07EFDcA5/GWuiCNJECx8JUoejDjcDyUwX318pZy/RN34vGr78X/ln6Q8t9aaWGJRb0iejpkoecoA/r0S7nOeYefjprGWrz3zScW9EiHGs3M4raccVSHfUh3CQLGgLwShrw+gMu87nmOcGS/JvRhYS3CTAD2cjZhTFHIUE42TuHJhzqzQPnePXlaMh/FCHb7pCFvxTcvioDDBTjkoXkmSO0JToDposc5l87pV8ILhyRrPtAMxKLa75pzKVe/qOZcl6fRMakPQwsjOHSUH7fsW4P3D/sNz05fgzNG1qKPM6Qa5vEWO9T+qZY6lMV+TPPmlQ9sMd+t/Qmf/bgU1516Wcp10x19I3o/JOg5itvlSql8aWEJrj3lUlz/xJ0W9ciE6eGqTx6ycFNBlwwkwQF1GDfXYAwocIjow8OG4egz+9YizvXKpZcel4cZRE3Qia90UDJYHUq0m4zDCbg9MJi1HNIqeEomN0UgHU5dND1jcMjtCwLg0A2liBEOfyNHoKm9T8jVf/kujgn9Qrh2t+14/+i1eH7/1Th+YA0GuAJwCjw+o5zyBQGG+01NjiPfj9kS9btfeggnzjwSYwePTKme1+2xqEdET4cEPUfxBwMplb/u1Mvw1IcvY0tNpUU9klF8loDBB6qk9+TgGFQYhdCliLhclHIdXMTUAr+as30gQphSlvh+cCZ473N6jcPtnHN48hgEpz6CXJoW5nDrv2sGh1MalmfqCwIABrh8gCrpXPuROXSHueLvl14o1FEaDkRCXBpK5/qrKdY7hxMc40rD+PO0arx22Ho8OmM9ppU0oNCpC65UPDlqJjroggE1nzpTfesdf81dpb6lEfe99ij+cvbVKdULhIIW9Yjo6ZCg5yiVtduTLjt+6Ggcte9sPPL20xb2CIl95oZhT2m7uqUA1a2OThpLjBKcldswHOJrhAcxMAbs725AsSt+ull7gmXOk88Yi1vdjoPDW8DABO3LZgBcbm34HpD82ZLFz7QoenA1Ut5bwHTBa0yaPsZhWBpXFIFgi+SLVwLyOJeOK79rZVieMY48l4g9+gfwz9lb8dYRa/CXyRUY4AyobgAOSMl31IA4Lu9z9f5ULXuLRf2FT+djWP8hmL7LXknX2V5XbWGPiJ4MCXqO8tuWdUmXve7Uy/DEghcQDIc6L9wV9Ja5um8Ucw6OmqATYTG5J6n0cOeIhoFQK0ckAETapDXUszENqefBIUaBXV1tKEMEHMCx/RvTjkloD8aU9el1vycGOL1G01ZwMHjyjQGOilC7vdKQu9Z1acje4ZCH95Xysm9eiZhnYIiGONoapd+5rrqadEbR62KviGPHtuCdE9bh2YPW4LBBdSgUImp/Ybr/5A7Knc/OSM8/3/ovrj3l0qTL/7plrYW9IXoyJOg5yKc/LEm67F7jdse0iXvimY9fs7BHgJJ72+gz1z1MdetvuwQOIdkxT84QbAUCzRzhIBBqA0IBINjCc1LPOWcQY9Lw9O4+P0bBj92LgvHWuUUkuo7DvHa9HE7u9sH4K2ZS1L3DbTyuzIv35ElBecrccc655uvnQMjPEWqVp9YZkER+4oAI7pxZiZePXIc/7rYFA91BqJF7jBnvT/2+xd/d/CULUF42IOk878FwCMtWf29tp4geCQl6DvLKoreTLnv9aZfjvx+8bO00Nf2QqmI+KZm+dKt0KX7bEHNgwaaSTq1KLkpCHk00sJDGQ1iK3Fb8tL33dSAifx+HuBtxoKMezh6WG58D8nB9/C+JcwZ3nmkJXTAIDsDlM5ZnjMHllcbQlQx2kRAgilrqWuW1Tp8Br39+FKdNasRLR6/HzVMqMC7PD0FdQAYwjhghKyEZD7/1FK45ZS4cQnKP7Ne/eM/iHhE9ERL0HGPN1g1JL8xy0OTp2G3kBDz14SsW90oKzlItcv3qW4pfVffw5BxoDnb+FGUCEvrLnW4Ob0Fia1G6WOLDYT8QaAQiwd7rhxejQCwiffZ93C24eGRjnE+8u+moO1JAnbkCl4L31OA5QBDkOe2yBa3lbAdcHqhT62IhyXLnovYLVdrPd4s4bkITnj9+Ey6YVA2DZa4uBZudqPdXFr2F0sKSpJPNvL74XVSRLz3nIEHPMVJZ9OGCI87A0x+9av1qamp0sXl4U3toquXkbUPEmZQQ+QqloVuXF/AWAHnFgLfQaP0pw7OxqJRFTozFC7YYBaIhgDnl9KY9TASTgXPjnG6vU0SJK4rePNogIVntyuorjAFM4HB5ADUpjOx/d7qM0+OiESAahvEtgWsR9EqE+/FjGuBwSEvVMOU+FZSod+hGlqzjn2/9F+cffnrS9949Lz9saX+IngcJeg7x8qK3sHTV8qTKTh61C/aZMAX//eAlazsl6C0cxeIxBiBxuRzkchzAt43FqGzuPNEhcwKefAZPPuD0MDhckhgrzUuJSjgCzYC/QUpk0tYIRCNGURecQF6p9IKQ5Khnz4PB4H5wONH7tRxyUJwpAE9wMDg9+hcvBocLcPuYIUkOj8kWu27KnL9BSlmrvwHcThE+RzThy6bh/rWQ5z55A6VFfXDg7tOSKv/O1x/T2ug5Rm99NBEp8vWvK1Kyzi8++mw8/8kbqG9ptK5TyiioYBRvpn9YMt10KiYNzTOBoTnsQCDauaWipI/Ri7iC9ECXxFwZhlauI0VOGx/QUhssKz5TK+AxaREVQPqsLq88RdCGKJHv6j6To+NdAHT3hMMl+97VKXBahjt9rncH5wjEEo0gQZeEBpbfG4+8/RQuOOKMpMtf+9htWLV5jYU9InoSJOg5wBuL38Ocuy5NOuHEwNL+OHLqwXj03Wet6xTT/iWOHtaJvFJOV94pcIR5enPR1S4wk7UOwOmRhuWdTqZOg+Kc28KSjYV1O/KLUS7lyxOc8Z/VYRrkYYIUYOfJg+G7iYgMJe6YaeTIZKlnQdBf/PRN7DpiAsYkmT2uobUJJ956IT5ZsdjajhE9AhJ0G9MWCuCGJ+7Etf+5PaV65x12Gp5f+Lq11jlgeDhqW11gnD5jFxTLXSoXhoAPtxShy09QB+ArBgpKgcI+kp+dOST9joaAtiYpaUlvn+TGRSk/uoLTDdXnnMtI8RDaPmOSda7cAwqlPhEFzogh6VF35HoPhkN4/P0XcMHhc5KuE4qEcNH91+LWZ++lLHI2hwTdpmyr3Y7j/nIeXvk8+SlqgJQH+syDT8Sj7z5nUc9k2rPMDYFx0Im9sTxnDIsqC7scbc4gZykTGJiDqVY75GQ0TI6K7vUwgMe0Xacnl2zz5FHS2JpdNP4Iw86Q23BfaveneZ46LBX15z95A4fudQAGpbgIyzMfv4Zj/3IuttdT9LtdIUG3IesqN+Lom8/BusqNKdc9dtph+PrXFahu2GlBz2QEva8c8cOXQvzDUX14Mq18UHBZ9uBkjMFXxOAr7r1R7XqiIS1yW5rWpXNrECpahjsjBW6OoQWSdcsMI0cJMslZnEHOH2zDu19/ghNnHpVy3XWVG3HMzb/Dhu2bLegZ0d2QoNuMHfU1OPn2i9HY2u5yVB1y1uyTMH/Jggz3SkeCaPbOLXMYHp7K/PRW7sSaOrelc8ITBdP1NjhXkutIH8TlQULRItonHAPq2pzGl0sgPqOhYSTJOuZ/uQDnHHIynI7U40hqm+tx6l8vRm1zvQU9I7oT+rO2GTc+eRea/M1p1Z0yZjeMLh+edOKZtFEtb+khyHSWuZKtSynHlWIMcQ/PCARUtwq9Nuo8ezDEdMPtDocx4IvoHJEDBV55ZRhF1FVL3ZgEKe6l1AJWVayBPxjA7Cn7p1W/rrkBtzzzjwz3iuhuSNBtxMqKNVj001dp1z87G9a5wcKJn3euzwin1DHPU1ceoiIHfmosJHHqhFiY69Y65xBMudCJzvG5gGgMCUaO9MPt2v3J5MA5K7/n1754B2fNPint+guWfYqK6q0Z7BHR3ZCg24gXP52fdt2SgiIcPe0QvLHYWkE3zjOXp6QJxoehIbBIPY+4aHjGgK8ai9AcInXqiFhE+1kQGJwJpm/lMp2uCcCB1hDg8xpfLpnu5dLgQ89Sjvf5S97HAbtNQ3nZwLTbeGXRWxnsEdHdkKDbiC9Xfpt23WP2PRRVtTuwsmJ1Bnukw2Bxd5ARrl3fub685mtfF8jH1haXNX22AaLIEdUJujQdi6arAZKQR4JSIplIUMo1oI1kaDAG5LmA1hAzuIsSBWomziBnDXXN9fj8p6/wu0NPSbuNr35dkcEeEd0NCbpN8AfbsKWmMu36h+19YMpT3FLGNO9ctdQBGC0eLSOcUj7espdWX+MiR21AWYWDMMM4pLXfZaT55/RdgUv5BYKtQFuDtG2p5/A3iohFjVY750BLmKGNuaUDutuYG+7f+Hnp+vJWMH/JgqSXVU3E6i3rMtcZotshQbcJXVlApW9xKfabNNVy/3n8vHPEWdzawzDeko/fAhAYvqsvaHfYlMtWV29dHa0rcM4RCRuPSQFxhMiNrggAsoXOEGjmcto3jUIPhxcRw9oD5vnoiealc4u/7I9XfIEBffphdPmItOqHzDcI0ashQbcJopi+Yh2x9yws+WUZ6pobMtgjHapFY553DnQ671ytp2WQ0+d6BwO+bShALMHHF0XA3yjC38ARbM1BRQdT1z4HpKlqDjfJOQAwxuEtAoQEs77Mi+8wBtT5BWyP+OR9o4+803npFo6IhCJhvP3VRzhu+mGWXYPoPZCg24TBfdMPjDls7wPxhpXWOWBc7zyBLzwl3znTynMADREXHAkemowBLjeD0yPl5s5JTD7hzgLAcgXGGJwuhrxiBl8R4M2X5ud78qVUwPphDM6BPDdQ5gqbRpqQMNo92/PS31jyXtqCPjDFbHNEz4YE3UZMGbNrynX6Fpdiyphd8d43n1jQIxldIFG8BRM/7zxh4JH+YWlqt4U5sbLRGzeszhjgyWPwFjAIjhyzTDkQi0gBXwpuL0AD7kYYA5wuBqcX8BQALm982lfGgIaAgLqY0YceHwCXSNR1BrpFlvqKtT/D6XCmNey++8iJme8Q0W2QoNuIdIJjZk3eD4t+TH/ueqd0aHEjfoqPYduez93YbggOLNha3O71cxGOeB+x4KR4uDhkt4155T0zEc6QJ0RMljk33I/SVnlJTRTtbt3oyIfLF6Vlpc/cdR8LekN0FyToNuKYaYemXOfAydOxdNVyC3qjwXQmuDFaXXoosjgxZwm2uih4QZdBTjqDr2oLkLPqnRAOMartMQZK9wrJ5aDltE9eYAMRoI274gI3pR+A+JdPrpyI87lbwdJV3+LA3aenXO+QPQ+woDdEd0F/4jZiaL9yjElh2I0xhoN2n44lvyyzpkOy9dPR1B69hZ7MvPP2fO3NzIWISIKuwpk6/1xZzj3n3A4JiEWAQDMSRrJ3RE3QAwFigmF2uUDc/WmelaGUy9QnMfL1ryuwx+hJKMwrSLrO+KGjuxR7Q/Q8SNBtxtTxeyRddo/Ru6KhtQlVdTus6UwHDznVotFZScwk8oZ55zDOU4ep3SbuxoLKopycnmaGc67mbg9HgIYWjgY/p+8G8j3F5ej2JMWVgwHRKERBgD56XbW81baNUzOZwKT7O0vR7svX/IhZk2ckXWffCXta1h+ieyBBtxmpBMYcvveBFg+3JxiG7NDi1j0M25t3bhi+1FnyAsOCqnb86DkGYwzRkIhAiKOuhSMY4fD5yH8OAA6nFMXuzk/++2Dg2BTIk4boO7C8415e1VF33X1qIUtXLU9p2H3s4JEW9oboDkjQbUZZUZ+kyx40eQaWdiFdbOeYfeCpRLfzBPV0zanlZEuJc2wL+XSN5DaxKENzmzIAwuB29/5lYDOCEgCX0n3CUNsqtHMfQx5pQgJfuimfAnTlLWDpquXYb9d9dDErHdO3uMyajhDdBgm6zUj2j7mkoAjjh47GFz9/Y1FHzJnhko9uT8V3ri/fCCdWN8dPX8s1uAiIUaAoTxJxpwMoKCA1TxfOOVoEjzp8Hn9fox1fenbnoy9f8yNKC0swcdjYpMqns5Y60bMhQbcZja1NSZXbd8KeWLN1Q5dSxnaG4q+EPrpdiTCWDssF1QpavQ6HNY3llYdmSHBiQVWRZZ+n1yB/xz43x6BShrIiBsZy8y1HimrvaisMK7Z7pFX/ePxLpjnaXdo151vQ+dwtFPWvf/0Oe47ZLamyTf5m6zpCdAsk6DZj7bZNSZWbMmZXa/3nCX3iMA5TquWAhJY8T1xeGd4054YXObB4ZxEsfWL2cDjnWrpX+btze5B7U9Y4EGjhaGtOkLM9RYIxhqL8+OQxHVroOv8QN1v2HJbdoktXLU86wdSGqgprOkF0G7n2Z257lv2W3HKIU8bsZp2gq1psjm4HzD5GKOUSWfLtlFfWR0/UfjNzWvOZegkMzLBcKiCLeQ4a6E4n1Ix5Xfn8boFjm98db3nrRRuG3biX2bhod4t+H1+u/BbTd9krqbLfrv7Rmk4Q3QYJuo3YurMKG7Zv7rScx+XGlDG74hsr10JO4As3+MRV1Y+3tM1R7ZC36jOQm33y2sOyiXmwYHuOW+mm/O1Od/f0o1thgNPLkFcMuPNYl26HLS0uwCXEWej6/ArGkSOY7tvs+dJ/3bwW+d58DOlX3mnZFet+RnNbqzUdIboFEnQb8fRHryZVbs+xu2HlptVoCwWs6Yje8laHzxWLpuPo9rgoeJ3PPVF0e6LAozeryhAxiZpt0WkKuLTqnrr+OZdWnBOQm683jEn3SFei+zmXVl8LRB06y1u5P/UxHNC5iZQOwBRIxwzB8VaxdNW32DPJYfcXP51vbWeIrEKCbhNqGmvxwsI3kio7Zcxu+Gnjr9Z0RPew4nGWNOKGJ6WC0Mqh/cAjo689fp46AHDGsDrkQ23Q3rc259L3G4twREIcoQBHNMLBY9oXGxOBnU0cosCsVxEbs7HRBdGhux91Is3jYj/kSqrFrhN/9e9BPm/Rr+Snjb9iSpKBcU+8/yL8wTZrOkJkHXs/9XKIW565F6FIOKmyowcNtzYgxmS5JJu7vaPMcB1b8soIgFSuDU4sqSmEZU/MHgAXOQLNgL8JCLYA4TYg5AeiIc05y8Hh8wAORw460DMEYwyVrS715dQw4mQaajJHuydOqqSL/bCIDVUVGF0+PKmydc0NuPe1Ry3tD5E9SNBtwJtfvo8Pln+WdPnR5SOwYXuFZf0xPPygRfkCUtCWMvrebnQ7EB8VrzWn+S7bseRFgeGjllIEYjYVdC6Jdyxi/HocLhiWS3U6GEqKGASyztNG5Bxr/Lq0ch3OM4dmmcNk0UMrb3XGuA1VFZg0fHzSE32E9wAAIABJREFU5Z/+6BUs+snCFReJrEGC3sv56tfvcPWjtyZdXmACJgwbg/UWWuhGX3f7AUHt5243B8oZG+4oel55WH7nL0JFs00j3pkk3oIAMEFa5zy/GPD4gFjUWFTQvwARqcMZNjS7dGKtHzkyBmSa55knLie/5GoFMs6mHVvRt7gU/UqSzwQ394Hr8d3anyzpD5E9SNB7MeurKnDx/delVGfkoGEQRRE7G+sy3yHZL6hFsZseYobINqMlzwyWvM6ENzwk24lu11vq6tMUqGhx2VbK3D6G/FKG/BI5L7kTCQXC4cp+3+yEP8rgZ27dbakPcFPcPMaXSQDGv4M4y1z3UmAR6ys3YdLwcUmXD0VCOPcfV2HTji2W9YmwHhL0Xoo/2IZz/34lWgP+lOpNGj4O6yo3WdQrifjoc8XXrRRQyqkV4kXaYMnry5na54nbFwEsC5RoF7MpTGBqJHcsEp8VjQnW+2ztTIwzVIU8hpdKcy53FndjaxtDVLx53rqFrK+qwC4pDLsDQGvAj3P/cRWC4VDnhYkeCQl6L+Xe1/6NbbXbU663y/BxlmeIMvvQDZa26bBcoRNLHrr2APOqV4Cufd2zdXFbCbb5XTmR251zeXjEeJTWQO8SDFUBl7TUqnqIqQveJLK8DbM8YBR7w0ur8n+Lfj0btm/G6EHJBcbp2Vy9DQ/Mf9yCHhHZgAS9F9Lc1pr0nHMz/YrLrBN0cyCbwdKOj1pnceXiLW3jVCBj+fZXYZM2tTE33qgqseCD9kQ4omFNKBiAUJiBCTnwNmMhm5tdCCuPyXbcPizuBtR2jcPsOncSrB052VBVkVRymUQ8+8lrCEXISu+NkKD3QhYsW5h23SH9ypPKJpcW7Ua3x1veUnyR3vdo9oUr1VgH7RvPa5a8ss/xYUMf40GbwhiTAuI4EIkAlXUimgMieA58dqvgnGN9q0/aMfjEk7O8E/vQE1n2mWdDVQWG9huUVt1AKIhPVizOcI+IbECCnlU4JO9u1/h5429p1x3ab5CFFrqyNVvQiSxvaOKesJzeMte3i4Tl2rPkWwQnmqMO2w+7iyJXX2gcDqB/sYCyIkFJe0+kAQfD4h0FhpdQ5Qez5a2JtdnyNke3J7DsLWDD9s0Y0Kd/2kukrqxYnYFeiMjE845IHpvO6+mhVM0HVt8GCD4gbziQPxLIGwHkydv8UYDg7bSZ9VXpBbU5BAEDSwdYExRneIZxQNA95DjkfeU85FdJnU9cMFnyeiWSyxsseUEX1W4qL7UnVWxlbrxdXYzfDbEgqj8DcM4zMvTKOFOjrh0CAEGKcM+5VdYySIwzRBwOIKZzZTDIGqWL3RCNPnQu6sZFGNOVl3/XohYdrzPsM0pLWysaWhoxsHQAtu2sSrl+0tNaxSDg3wi0VQBtm4C2zfK2AogFgHF/AoaclfL1ifQgQe8OxADQulr6Z8bT3yjyeSOB/BGAd4haJJBmDvYh/cqxpaYyrbqdoj7ttOhzJmgWCddbMgl84YnSuJotdHO5+Pa0ZpURABEcL1b3xXH9GlHiUZKc9wA4EAlyxKKA08PhdKcv6pxzxGIs4ShEpl4YcpGqVge2Rbz6UXItgLO9rcj1Brkk3srfgyz+TLcvnYclor5huzTsno6gx0W6B7cB/gpNrBXxDlVnoqtEhiBB72mEaqR/Dd/Gn8sfDeSNxPljduArZwwbm4BtrQJq2pJ7YA8q7W/pcLshg5vADJY301nehuh2g+UNk6UNg1NIb3knbg9ye0qHpOtXMR9+aPRi1oDUpvhZBeccsTAQ9Euf3OXrquBq1rkep9PawCu70xR1GofZRRinnqn7RnFWQ0dEuRyXX0blfTVWRLTOQgckK3tI33IAya2q2D+PY0iBiFHFwMHDNgO//B8Q2Aq0rrGmg0TGIUHvYUTaYnDlteP38m8A/Btw8jDg5GHa4VAM2NbCsLWFYWsrw7ZWhm2tArY2M2zzM9QFpIdQgS8fNY21lvXdaDHLFkk7q02pPnRusrS5uT46seSV40hoyQMcnDF811KAWQPaYNnTMwUYY3B4gAK3LpCqS5Y0j8sQB0BeOKRrcN3bUi69HHAOLK7KR4QJkmjLGeI0sdavIcC03x/XkiQZJ3no7m/o7ntuXdhiTWOtIVtcmY9jSD7HkEKOoYUihhRwDC3gGFrIMbiAw2tQg03AzsSuuWgghsYtUdRviqJhUxixMMeMq0ot+hREKpCg9zA+vLEWYb+IPsNdKBnmQslwF/oMd6J4iBOCO7FD1OMARpdwjC5JLFZtEWBbK0PMvRJitBaX7BbFlhZgW4uAra0CmjI0Q0VvQatR7qrFrVjgOknV+9oNgXHQot3NgW86y1tptyNLXrnuN5ESNIVrUeSKmWcXdQvM+L8utyZG43/3DpdOgNJEjALhNhFON4PTk1s++cqgSxs2h8mHrrO8jcPu0MRchM5iV3znmsobfO0ZoNgDDC0QMaRQxLBCYH/3QvQvDOPEk4IYUsCRl0bWwGBjDA0VETRURFC/Udq2bI9Cf9+W7+kBIAVmChSF2a2QoPcgYkERLTuiAGfY8UsYO37RVk9jAkdRuSTwJcOd6DPciZLhLuSVdf4rzHMB4/pwAFUAqjBpH+N5fwTY0sJQ1cpQ2Spge5v083Y/UOVn2NqS3FPcbJHr96UCSjnNQk9kmcdb8tpDsTNLPnHGOYY1YR9erinD3ME1SX0WO8C6KOaA9DWLIkPQL91HAssNSz0QZfilrUhT8RQsb+OwO48Xfejv2+RFfWihiPJ8jkH5QHkBR3m+tD9YtrLz4wRbng3TJ7XPHmqK4et/NaKhIoJAQ6IodWOPxbwYft3YiD6Fbgzql5faxYiMQoLeg2jcGml3nJSLDE3bomjaFsXmpdpxdz6TBV4W+2GSRd+eNZ+IfBcwsZRjYilHe9NMatqAylaG7X6GKr8gbVuZKv7VQeNCKcbV0ozKolnURp+7RCJLXrIMO7fQtesby0n7b1T3wSWDd8L6xJvZJ2aO92MAczItOCtNnG7A4dIJWQ7AuRTY3hRxaJa0bHmjA8tbjVoXdV+5wdcu7ysvB8r9yoEBeRzlBRyD5G15vvRvUIEk2v2zqJP+nTFU/ZD8sB3P54hERbhcOTR800MhQc8qHQtJ45YEjtBOCPs5an6NoObXiHrswBtKMXjvzqe/pUL/PCloZgraF/3KVsmir2oTsM0P1IYE1IYYasMMOwNAbZihNiyYLPcOLHRF1DuwvON86B1Y8gGntFhLV4ehexyJbivlg2ZgCJQxfXCdnb64xDAG/FLvQ4vDrVnY+mj0dixvpt2AquXd1y2inxfo5xZR5gX6eTj6ejiGFHCU53EMyhMxuMC6z6L3dxcPdmDAbp0/F4LNqc0GcfeR7gm3M4Gg2z0BRA+DBD2rdPwwbKiIdHg+Wer9QXgagLJiD5jpgd5cGcHaj/yyj96JkqEuOLyZebMeXAAMLuAAlAdC4gfDziBDbYhhZwjylmFnmKE2wrAzLKA2AuwMM1SFhISWfEfz2zVLXvGla0LUzFx4aNsAXDO0Gp29XPU6uG7LpKVVKY97mnCGzS0eLeBNZ3kDQLmPo69LRD8XR383UOYW0c8ti7eHo5+Hq+KdTUJNMdRvkvzcDZsiqFf83fKoX9EQJ46539Pp22ywKbVkMK4SqT1XIkG31Ztzz4cEvQfRuDkzgt4ajqByp4jSYk/cK0TFlwGs/aBNO8A4CgdK/vg+w1woGSEN3+f3c1j2x9jPy9HPyzExibLNsrjXRBhaogKaokBjlKEpBjSL0n6TyNAUZWjkApqiHE1cQFMMcSMBnDEsaCnFGcE6DPRGbGNrclHT86gIRKJAnlc6niiITYxBXoXN1I5iZbIujtP3AgQ4wBiDwB0QIIBBgMAECNwBDgG7lBTjkcIQip0cRU6O/i6Ovm6Ooh60HG39+jC2fReQxTuKQH3H/u7mbVF891EDJh5YhHxf+4/+dAXd404vKx2ROUjQs0rHb+wNGRJ0wSX9gSXS4y1fm5LScIaW7TG0bI9h6zdB9bAzj0kCP8whWfMjXCgZ6oTTl90/2iIXUOTiGN3BUH97NCtiH5P+NcYYmkXAF+uLQoQAiBAhgsv/pJ85OBMhcvnnHpy6kotALMql1cDkW0sUAX+QI8/H4sRcFIFAEwcXAbdXir/QEw0BsYgIp4dJWeas1nTlzyGF60jCy8C4JMJMOgKmCrQgl3KAcYck1cwhlxIgcAGMOYzXT9CfI/oBQOousGzCOcfK+anlVtj6UQiluwYwakhhu2VSEXTm5HAWMDgEIXGEOw25ZxUS9B5CW20UkbbOyyWD4IL00DM9kZu2hNFcmZx/LNrGsXN1GDtXA4DyEsBRMMCJgbt7sM8lJdi4qA1ijKOgnwP5/RzI7+tIKRjPaoqcQBE4hsY9ufPlf+1gKs55DCKTxJ1zUf45pv3MRYBxeaifq/8ZfmYcnOt/RvxxtUbiB6pmQcsHGEfIz+GWE9NwLuVxj8aAmJzbXX8PCALgLWSIBDkEF+IC5sQIEI0wRCIcBSXadTjnAGcQYxwOh7wmvQBJVAU53gHy/caZ/DO0n8EAWXrlV01AZIgEAUFgcLkZmCCLLRiYIsCcgTEBjMsijnaEuJ3fW8IXhR428BBsjKG1Jopgo4hgUwxhP4fgZHC4gbxSJ0pHOeErTfyYLhvrwbDpXmz5OpjwfCIC2zh2/BLEoL4++LyJ2w2l4EN3lTCAMbgpIK5HQIKeVdp/mjRUZM4aYG4kfFvenMIffjsto7U6htaaCKJREXXrQ1j38f+z955hklz12ffvVFVX58lhZzZHaaVdBSQho4AAyUKgV1iAH8IDNgYTLPMgTAaRcxTBNtgEiWQhbGyTg4QMEggkC+WwChu0eWd28kzPdHd1V533Q4Wu7umZ6dPbE1Y793X1VV3VVadOhT73+eewxC+Jt3rk3mWQ6tS8ZWmbZiyxEbUGCKET6CXC3VfxE5M1fJ/xUIeQZwDIUqUu2exNHVrcCYQjYXWTRNdB91XnQZU6gTAkJEsdF743oRCINIG9Vfg+CsKX1AWictD2ncTquS4NqPTcrryPTwE/POlIpoZsMn1FJvptJo4UyRz1lv02xdzcL0C6R2fLZUk2Pjs+TUN2+svTHLgri7Rrv0kDtxUZOCPHmp7q3ni58dqlal/dPiOhL9vQFxTLhL5E0Cj7ObjhStX+RtPU7XWi2OLwyJ5RtM5pZyY74pAdcRh8Yvr1/NlVzWx4ziyS8TKqQnhZc6qOjf628HhaaeediSirn0xt+zJwipLJo0Um+otk+mwm+opM9Nlk+l3Sdo5xrj5xxOaeb47z+C8nuegdrTSvMYPf0j0RNl+S5ImbalfvTe6WHN6Ro7s9XtXunRutXUI3W9wXr6qH+zIWHMuEvkTQKPs5eCr3Cgl9dF+hZnX7XIitcNtuXWsCtUv9/ftytI4ZtDSZsyYnyQ4Vufc746S6Pcm+05XyE506+hJS6S/jxIC0Jbkxm1izTm7UZu8fsi5h97kkPjVgIxuRZ3cOZPpsfnXNIJd8rJ32ddFg+7a/TLPntmxN0r6PgdsKDGzLsap7+gQ7N167DT3SOouH+zIWHMuEvkQwur9RhO7aRyvD1fbf0SADPRBb4f55O9abCCFrHsyGD1ns758kETdm9Yjd+etJ9v2x2kRBEmvVSXV4Kv0uLSD8FadND9FbxjJmgk/SuTHH/Yw6ZEftwJad9bblxmzy424mmcs/34FdgPu+O1HR2sK9d3YebvvcMJd+sp1U2pXUYy06p7wgxYP/UdmvmTHxqMPhXVm62+LTEsLkFQjd9FXuyxPtJYETg9Adyy3zF1+92D2pCttymDhcnh+5XoiIa/Ss5LZjt5977RsSs8N1cko1RUivjDB+sDadYmHYXeYte0ZCdwoOO3890+RDkBtxyI04DO4sTYA6TzbpOUMtkc7kQBFpu57ekYSGWI7ZPu5RD0nXBne/4b4CqbWLT1y5fsm9Px/jz17chhlx/0cn/39JnrgpQ26sVildMHhrkYEtOXpD6VqtSUfJRBDx0souaQk9exCinaBF5973OMeJQeg4yJ+vcx9ocgOkN0NqEyK1EVKbwOwAs839GPOYtmkGjB0oNkxlpxnuHzqsch/dV2DicIPU7V2uZ7MZccNUWtfVTujWiNs3qzizBLD/jhx5BaccgNbzNA70TZKMG7Q11/anveebYxz8Uym9pR4VmAlBJKlhxl2SjyQEZtJbJjQi4e8VvxlxsawhCMHOO+TGHfJjDo5d/jwjCUGizSCSVCABKTnyQL7hJK2CA/smaW2NEE0L8hOLG441dEeR/edPsml1EwBGXOO0l6S56+vjNbcx9oDNkSezdLfG0D1CzivYzyEUg75YhF7MgDXsfQYhsxuZ2Q2ZXZDZCZk94OQQL6xde3E848QgdC0G618HT34dJh51P8ziiBvt8gi+HczWgOxF6Dtmu2usVkHmiaqbG5UhDkox6FrIRt1IdXu0x203HnUlg7Z1Bvtur+3YYgYcS2IVZib0x29Si6uNdgoiGyTD43kSM4ThVENhqvzp23lJNi9nKEZRCyRmSiPZoZNo00j3ROjcatJ5kkms5ambcMO2HIZ2FhjaYzG8u8jIXoupEYfi1NyEZ8QFyQ6drq0Rek6L0b0tOjPJC8FtnxnGmfWvMr8TquK4W1EstcIgP9G4/2w9yB6WjB21mOwoBkliNl6c5NGfTTJxpDZSllJw9HcFBjbmWdEeB9Ts52gSIy3QNBFMCKYhswsGbq29TXDjJ62hgKilNRIi7ZHSb/kaCy2t/SvQT4yiMScGoQNi6zXIJ79e2875o1VflmOdk4tYCyR6pm1vnP3cDVkDN+bYR3V7dH2IdbsNxzxCb12nNqkpjDhYbdUHjeHdFkNVvONnQ8eFbka7iKHR2mTOfYAHa6rRCWMEVkZiZYqM7AWweOznk4Ck54wYW56bZOVZc6fdrIbfXzvMyJMFN/Zbww0xE6Vsb+52AZpLaUITCM3LNe4dIxDB8UKDs1/TTKKjzr+/lBx91OLJ26bYd2euJvKuhmJWMnagyNiBIjtvzqIZsPE5CU59Yapq3+LNGpODi5fopzjpXmeyS2No56J1I8DUAcnQynxA6EIXnPGKJn7/uZGa2xi9x6bv4iydLTF0XSgllTGbXa3UrB7uu/4J+fBHam5zPiBO+cCinn8hccIQOok1sOENsOeri92TaRjd17gYdF9p4Aeuje4r1DxjrwW+h3vMrI/QrRHXhl4NT/xKTTo3mqHpDLcf7c1RpVrMlRL6/EFw5P48R+7P073d5Lw3thCvoeRtAE/VXMw2tr/rLyrURehjByzu+to4A49Zc++sCKcIO2+eYvf/TLH9JWlOfVF5NrNYi764hJ5xn0Gia2loXHKHHTJT5RPg1efG6diSqRo2Wg2yKDj6+wJD6/J0tcaUCrPMGYO+FLD2Va6Z9QTBEn4SjYc45f2L3YWqaGTImvASt/gS+r4/Nk7dDhD1PNx9lXu0WSfeWvtrZA3Lqjb0/LgbDqSCjvN0NF2g64KOFjWHF2ty4Ymh/yGLn799gIkjtT/vicPFhpM5wBP3T7Bjz6jSMTt+NMEv3jE4L2QehmPDAzdO8Id/HkaG7O+xlsUdrooZdxntWBrDpjXkli0tVJiwzvyrJqV2hu+yOXI4i+NIcqPqIWu+Y95ShNj24cXuwoJiabyZC4VYD2y8arF7UYbsUBEr07gBW/dV7p5qVyUt5FwwmsBIujazsJe6ipReGHFwHEnRLh84dv9mag77aDm0mKT1bE86b4qi62qvcmEeSLIWWBnJrz8+yNR4bRc73ED/ijCyfU5VMpgJj/z3BPffMIFsnLJnTuy7Lccd3x4O1mPNi0sctvc/jbU3wlYviTRBrNd1yakH1rDbn2y+XMPXeXKUVWfXPsF18jBwu8XIuKUUsrbkY9DXvWbJRjbNF04clbsHsfW9yN3/stjdCDDSQPs5gPC4VdMEI3sbrG737ecVIWet6wwO35evdsg0+IOQVXAwPBKWjmTnzWrq9rZzDbSYW1u9o0UtZM3OOQtKTJXI9Uv+9ONRzntZ+7QY4EoM75kfQs/1uQN3Nm/P2Yf9f5zigRsXx0t4369ytGwb45SnNxNvWdwogoJnQzfb1QmsaZtGYo2G2S48P1vNDTH1kD1gc+DGIoWaw87AGnKfYTUn0zNe0cShe47WniPijzZ9F00ppX01mz1CX6Iqd3HqiWM797E0n8R8ItYDG9+42L0I0Mgc7hDyctca690OJft5vJLQ19cuoVuewBUehA7dk2NyQK3CU/szPBt+2lQeUBrvEKeOgdsL7D2cmXO/4Sfnh9ALQxKnIMnN4M/gwyk43H9D7aFQjYaUgl0/yjIwklt0Cb04IUFKtITAiKtNLtJbddrPN0ifrBPt1hERDTOik0pEaG+Ksua0JBteqGY2srMCe0qSr0LoTasibLy49jTLxSnov7NAZrj28ciX0BctZG02rH/tCSedwwkooQOIre9B7v7yYncDaKxDHIQkdCEaqm4HiHkha76Hu4/WtQqE7sWihx3jVJ3hWs40MNJumcyuNjXpHEqS1mLCGoaxoxYTHQXSyZnv38g8SehSCvJHJbn22Ql9z2+nyBxd3AnQ5C6bA/smaUktbGIQzZDoKYGRFhhJMFI6sghF2yHdrStNxl1pWmd9b4poRMc0tWnpj9vOM3n8W2r/WWvYweqs/gy3/58UT/5uCrtGl4eh3xeVInGXslOcOOV9i92FRcEJSejEemDTm2DXPy12TxpalAVKXu4TB+2GqtshJKHHygk93WNgxERNuaRlAYoZB6vZJYnxQwX6HsxTewyxpP0C9/zNqcisKWRngpVdfAkdIHfYDTuaidAnjxax5nHyke9zyG2Y/R05VKMpZT4hpWDsEZvYuvl7bl2XGkTbwUhp6CmIpECLVSeqYlGS7jGUCL3gmZqipj7jOxtrNdCjAjuvoHYfluSt6vcl3maw9YpkzTXTC0qKGInRLNCEwFhqEvqGN5yQ0jmciCp3D+Lkdy12F3Ash/HDjbahu8R49J7GDsRCl5gd1W3oCEHLmtrnhtZwKbnMEzdNopIQpGmbHngZd7aqS+ewkCFrs8PJw2RuZlKYL/u5j1yfp3KX1e+HdCRHdyw+oQPkjzjk9er3QxiSSAvEVwvSJwtazqzDxn2yoGmbQWKdRrRDw4jrmBGdRNSgOWXS3hSluy3Oyq4EXW0xUt1qspA1VPIdmQ3pbkXz0aAkX3TcmvVVcMoLUkTTjfc9iDQJNF0sSfu52Pqexe7CouHElNDBldI3vxl2fmnRujB2sIh0Gvtn8yX0vrsbG1oU7RIIXWBG9Koe5a3rjJpjXwsjLqEXszZ7blMLVfOl82TcCBJqqKKgaEM3mqD3BRHsnMTJgZ2VOHl3mTsqyR5yoI7nKG1JsehQtEsOgmEMPzm/4WG5oy4R5CxnmhkFYGrQplCnG4YQklivRrRToKcEdk5SHIPMbruue2WNACk47a9TOFGHSYroKTdTs14hSUtHMnZ/TimdcjEDqZUaG1eliRjanDkN0ivUnk3eI/R8wSY9rb5tqN0eg9H9tWvWrBHXrl8oOlXDx4yEzra/THPPNxvrBxGo25eadL7xqhNWOocTmdDxssft/io4jbU114qRBtvPwSX03GGHyf7GqidjFfHnlWhdbwK1kbM17A5Ae27LKmUZS24QJFa7569XOgewFCX0SEqQ3jqzaj8/6HDwRotcn2JHPM6Qrnl1Gob3NP79CCPf596HnGVXJfRivr53qPl0QdfFZlVv8GLG4cjPi4w/qNZ2YUSimYLeZ7p29AP9rhrZV/kamistGrrA0DV2pS0sBY/twgTYjqzZhKMqodtTbnTFTOrx8nZr14pYgyXJf6Z48M2XJnn855mG+kKUYtCXFqGLrSem7dzHCU3omB3ujG7nFxbl9Kr2cy3qqmlng4gIxh9qPBFUZoirhKpjnJSSxxWd4TqeaQR9aE7Vnua1EgXFpDKaN3doa47S0x7HkRLbltiOdGPquyUtr81z98fm9lovb9e9p3KGpMIjih7u0U5BfqB2EitmXILN5mxa0tN/t+vQtjdv11j1ktKzScYjpBIGMVNHCLBtSc8bitx97TiZPbX31fbyBhSKDu3NUU5e20wkMrMknWidwBqv/X9gT7r5ERxH1pRxMN2j7rtRGAarfQ6V+wq1dv0w0LzlkJohXblmuClhb/+CWiKh2bAkY9A3vhFiKxa7F4uKJfQ0Fgdi67tLI/YCQzUGPdox90CjmTD2cOOdhyozxFWiZY2BELUN0IVhyeRum4lDtasWYysgtfnYpXNQD1vzidfQXWnQjOjEYwapRISmlElbc5QtpzchdDXJX/cuo9LbGdyEQyp5tQFanqb+d873zxy6VlklrRb4ky5D19i0Os2m1WlWtMdpSZs0e/eqtyvJKZdUmUHMAj/pkFV0MAyNaFSflXjjrWrEWPTC7CsTHs2ERJuuXJspP+RgFWZ/51Ul/2IGnLwzYzplH2ueEadtY+PkN1/lvpQIXWy9ZrG7sOhYOk9jsWB2wKbFiUtXldAjNWSosgZkEOvdSMwloetRjfTK2ka4wrBk6E41D3yfKCKGRmu6fukc1J3ifOLVZyEQp+AgbTXbsO5NFKq1O/ykupalabselM+tFYFjXLX+RdWHh2iXey3relMk4zO/Dy1r1NjQ8Ty/7RonGbFmtWfhF14pFmu8f0LU4RjnStIzObCBZ35RhDU8e0liAITgzFc2qzc+A0y/bKq5RChk09UnvHQOy4QOgDj5nQsupedGisp1v2M1SOgTj889IgjFQd9IueE8mhCYs/yBa00Ba41JMo+qFIFwvdvBlc6Pte64qlOcT+jaLJXS6vGc1+OudF5N0hzeo+Z0ZSTAbNWIdqn9pfP9rtToONP7b9QR9i0diOjanA6L6pMFgVNOONFgAAAgAElEQVSQs5JhGKpJaHwJvVCjhA7q6vHCsIPE9R+pBulIr0KfGgpjck4JHaB7W5TeMxoTy28GTnFLII+7Fl0SUUtLAcuEDq6UvuUtC3rKehziakk5WYsN1VQopgIQ6ymVTK2mHvbRtq5WiUUoeSB3XGAgdIGuabQ3H/uApBrbrUU9SVqfuc/1FHvRotXJHGBEMYd7tNdtJ9Gr9mxz/X4+8OmEYJjqEyfHkrNO+nxEYvW0DU6Nt1m1kEsx4zZcVDAzpFfUGbpW4RiXH7M5cEeWX79vkCP3qzsu2Bk5ZzicjzNe2QQ1msZmhsRoEQghMIzFTccLuDlFlqVz4ER3igtBnPR25M5/BFt9hlwPVNXtelyiJ449fjrWDU5BrZ1od/UMcZVQLaVaC/S4pOWs+kqkzoR6JfTZVO71SOhabOY2VT3c4x6RN682GLq7du1H7qhEOpJc3p4mVRszJFaZDdmDknT73PsZVQhd6BItAiIq0CKgmwLNdB09Na+UvDNfErrnz1icS3UdgqrKPTcgGbm7yEO3Z7BHJRN9RSb67brryfuQjntfip5/wWxoWRthw0Vx9txaf2SPkRJoETeqYLYJ/oJAT7ga1mUAy4ReQqTFJfUdC1NuT7VkamyFhlM49j9PaovO4O+LqCRzmStkzcd8EHrbeQaa6Wak6mxtjLpQNWzNd4prpISuRUFooiqh58dtpobUfAxinoTuRhvULuVJy/WUzrVVkdDrkKIHbiuSXq3D2tn3izZpXPHFTiYKBfrGsy6Rz3J/fdhVTAPVEG9Wm4zYGTeeW01CV5s02JNw+IdFoMH1G7wJp21LjBpG9NNe2sTeP+SUqhuGEYSsKVY4nBdseQuYNcwgTxAsE3oYW94KO78IhbF5P5VqUZZYj6j7DxhGtFOgQuYwt0Nc0LZXGz070hgvexFxq6oBtDaZDUsxqSqha948Qm+gDV3326xCYqrhalCS0Ds3RAG18Ll8vyS7ejqhC92VlFXeu+x+yY5PZxnePkjX1iidJ5m0b4xMS/4iNEF6ZQQnI4k5rse65vkT6JrnWyDcWvdCuJoMoQkiNZA+QKxFjWylFBSnoJBWsaEvjeEz5mnQRI1/j0SHwUnPS/LoT+rTRkaal0gMutGE2PK2xe3DEsPSeCOXCowU4uR3IR+an/CHyRwkE65H9PhhNUKPdmvIWj1wZ2xDqJcN1SRmV22EDq6Unh1pTLrQ1rM0jKQ7ATnWULUwVKVp3xtdm01CrzMUrrqHu3p+ArPNvU/NXSbRJqHkcJnrc8hVsaEDNPUaygWEpC04cr/Fkftdxz6hSVrXR+jYYtJ5kknHFpNkpzv0NKfMY8opMBNiihI6gJ1xKHYoJDrq1BGabHi2RxUYKTA73WudzSRUiVNflGb3/0xi1cHpQQx6DYSeyUHtNd/UIE56G0Qa57n/VMAyoVdi09Xw+LVujMk8YfywrUyssRWC7IFjI/TmbRrZPjXiiXV6OZsNrSYJWaU2+mwQQtJxgT/o11eEpSqkpJCVqGgptJps6PUlq6lK6Io53OM9AoQgamrouqBlTYT+h2v3ks8fldiOQ6HgTBukW9eqE3olpCMY3l1keHeRJ37p5pKNt2p0nuySe+eWCK3rI2gNlPiiTRpCSOX0r7XGoYOrwUh2GmT6G1sESQVtT9cRmsA0q6dknglmUmPbi9Pc+x31OvdLIu2r0bTgjszHA5aAEWSJQY/Pe4ICVfs5SKJdmrIzWyWatunkjyg6xK2YoSDLDFCpjT4bmk7TiHje+PWUSJ0JxawDCoM8+LbkmT3SAXKKIYiB1N8ACT22stzHQaVQDrgSOlT3dG+ZB78IgOyIw/47ctz77XFueu8Q//GqPn79/kEe+1mG7NCx25iFJog2qTrGzRxSNhPSPYsnE5nt0H6he/6mhPpz2vLcJMkOdQqIeCL3YhK62HoN6PMl+x+/WCb0atjwhnkNgxhVDUnq1NBMAYqJS8ra6BJEuzTy/Yqx714N9Hi0toFLJQXsbGi/0G0nlYiQiDVu0LSydXqj69UzuoFrQjl0j5rXcCChV6jxC5MOmT5V/wqP0L37pJq0pTAkcazqCWZWPz2OtgCc5RRg4DGLe789zg+v6ueWDw4w8NixaXqUQ9cmCNK/1oqUYtx/o2A0wZpXmmimGz7WUUc4p2ZqnPbyJuXj/NDYWsIT5wVmG2x+0+Kce4ljmdCrQY/Pa5J/5ZSvntOLLut/XE3bNAojjnJ+7phXzjEWq03a8WujHwtSmzXiHkl1NdB2Dup53AHGH3YYf8im74EcQzstJg4VyI3aZIeK9D2Q4zcfG2LsgBoJ63FvWTFJcOPPFZ0WV7rLhFmfhC6lIH+0OqGnut2a2gsKKTi6o8AtHxzk0Z+qq4R9KBO6ny1OJblMz/xoMGZDaqNgwxvMIInQivY40TkiUGbC+gvjtKxROzbnafkWK2RNnPL+RUvXvdSxbEOfCRuvgsc+DdkDDW9a1Sbpe5lrx+A83rxNI6uobg+fO1HrgOHVRq+1lGo1dDzTPVcsapBONnbAVA1ZAzjyM/d57aVxOXWNGbzclR3iDBnUh/fzBDSvigBqfgL5fofcxuq24FNfmObJ300xNbSwdeSlI7jvOxOMHinwjNe3KR+vGrpWzPiELjFrfO1S3QuXKS2+UtBxkUHTqaVzdrXFjs0kJQS9Z8YZ3V97ZET2iGeiydlEUgssE0a7XT+nZVTFsoQ+C8SpH2h4m7lRm9yoomOaJ62KOlXu0U5BtFsnr+gQpyfAaPJSvio4LLXWnDFuOmIrBckN7oDV3UDbuQ9V57X5gp6qHtuumvI12qMFTlG+06IR19STnng53WW1FLBxjcs+1UXzpsVJ8/nkr7PsvFddUq87/auCHV01Fv1YEGkVAZkbhsbanhQ9HTOUWFNA63q1d6Uw4la/y+bnt7xvNYhTP7jg5zyesEzos2HdayC5saFNqmaIg5JjmqiTi5pOc4+3BtSOi/eUMsSpqNfc2uj1odOTzs2ITkuq8erMejK6zQd8h79KlbtqURY/oUyiwmmxZa0ioR91i4bkZ0ghGmvRufRDHXQ/2wji8hcOgof/LUPfUFbpqJhiiuOiZ46puUALfra4hXmnxh92GLmnSG9nglPWNdNyjEWKfLTV4fiYO+JUdaKcV8RXuf5Ny5gRy4Q+Bxo9IxxVtJ/rUbcQghD1O8U1bfMIvU815auah7uPeh3jzHZIn+IXYfFyfTYYqnnc5wtRL7mVEdJ82DmH8UOKIWu95ep2H6qOcXnv3Zip8hpAJKpz0es7OPsjKVa/3KDpVA2t8SHkVZE9IDnw6OSc5UfDqDv9q4INXTc14u1q5zG7hHJVPB99Py8ydrhwzAWKwkjV4feSOzJz7oL5gjh1YbJ4Hs9YJvS5sOYVkD65Yc2phqxFPRt2NKJh59VFdLNLEOvScSzJ1IBiOtHAw11twFKpjR5GxwWGmw5V12hrmh8xUDUBzHzAbIZotw6IstCfkX0F5ZA6obk2zcJRGDtgMX6wwMShAlFF22Yx4xYomWuQNgyNTRua2PqcJra8OsHJ74+y8Y0mK64waD5dw1Q3ddeMqcOSI4O1S+nK6V8n1NO/AqQV7ejpjYI1f2MidPX/iJOHh67LMDrWmORN4Ib4KYc6HnG1OSoRAceE1GZY9zcLc67jGMtOcTVAnPph5J0vbUhbyg5xPqnGDIoFdXV9iyedO0NCmSxiijHoPvSoRrzNUMpHbqSg5Uz3PB0tjSnCUg1LQeWe3u6bFbSy66ynBvqh/3KP2YOa7b0a8v2SbHdtz6yjJUZHS4y8ZTPSYZHZWGAqayORFDMOU/slU/sdsvsdcoccnOKxP89cn8NYpoCUsiYT0EKkfwU3BezRHbX/N/NDsGK9zrorYjz5I3Vizh6Q3PO9MS56XUfD0iG3rY8oObJmD0vAtaPPVve+UVi2ndeGZUKvBbIBSdQBaUvGDiqmfA2Rqp1XJyNf3S5GFSU/Ib2877WHrAWQktyYmjag7RkGIuKaFjobUCJ1Jiy2U5wek3Rc6IWXVfgIDD957KR8LMj1SXInqz23qKmzoiMOxJFSks3ZTGaLTK4oMrW9SMF2cGxJ7rBDNkTyhXH1/lmend+ynJrCtOpJ/1qcdJQl9JRqGdVh9x3cekWKiSccBhUmAz76f1PgoVPGOPOiVuVjq0E1IZR11MEpSKZy9oIQOraa/8SJimVCrwHygXc0pJ1Mn1SWVOJ+6VJTx7YUbeCedztAoV/pUMwODRHxUr4qVlXKDts4isJmeot7jvbmKPo8ZqBaXBu6ZMUVJkZKA8Q0p6YRxZSvjUa+38Eq2DiOrEtDIoQgFtFJxA06vW1WwWYyZzPVXmRqc5GpvA2Ow+gDDn0/KSjlRbC93D3ZvF0TodeT/tWeULOhg7qne2HELVmbLzhceHUrP3vrUQpTSk0Agl3fzdG9cYreVY3wdFcjZSmFG+rYvjB2dPnQNYjVL13ODjcHlgl9Ljz+GcgdaUhTYwdVB0kZJJWJx3RsxdSvvnQeM3UGDqqGQ9VnPweYHFT/k/v5oTtb5teFetEkdE2y8kUmLWe497Ot2QwyuwE4lsOoYnKaRiPnZRHMhmqjjzxp8eRtWYp5STHveEtJMStL372PnXVoXm3w/Gu7gzbNiI4Z0Wn1Ji/SkUzli0x22hQOTHD0ztonMY43obWKtb1ffvrX3Fjtz7w4WUf6V8UQQWkLCuOQb3aI9xic+3ct3P75UaU2AApjknuvG6f1XeXvUj1oWWUgdJRqTGSPSLIz5C5oOPIDbo2NUxofSvxUwjKhz4bCCPLRTzSsufFDavub7QItqqHrGhFDU1a5N293Cb05bfLgPrWySvEVpZA1VWSOqv3JtSjoCYGha5iNKsIyA+pJLHNskDSdqtP950ZQFSseNehpj5ftNXqgqF4Jr8HI9buSYy5E6BNHijz281rfHUEhK8lMFTAMrarvhdAEyXiEZDzCxrMdjt5ZO5H5ZVxthfsUaxbkFKohF8dL6V9r1VKk6ohFLww5WD3uhax5RoJ1z8qx91a19MHghrLd+9NRzntx+zF5vmumRvNKndH9td/c3BGHrGXX7NNwrJCPfxax8e8g2jXv5zpesUzos0A+/MFStokGoOcMSLSmOfR4lomDNtagM6s60HdK86XkooLKPaxuN3O6skovWmMN9GqYVCR0s8VbLkCxB1UJve3pOtFegZOT2DlwchInB3Z4WQQckA4IU2A2CyLNgsQ6QWqz5qnYXaSTEdauSE6rjKWaIW4+IAtgDUtybaXnF4mrDdT5rMPugxN0tMRY2TW7KjiiGCrleEomR9b+P4i16KBAUuH0r6ZW27sfSejKJWvzw+Ux/09/TQsDjx5lsl9dg3TgRxa7tk6weZt6XvYwWtebjO6v3VadP+xGBeTy9jFrCGqCPYV8+H2Is742/+c6TrFM6DMhswt2f7mhTbZuEKw6O42x1yFn2TgFSb5fkutzXHvUEfe7nfVC1brLSdVWGPN9dXvU1INUjSooTSbUX5GMYnicX195IYo9qIatJTdpZak264EQgmTMoKstNmMqW9WSqfOFfL8ku7r0/PSoYuiXR7p2DY5lmqIvlfTs7SqEHlfN515H+ldw1e758dqfoTUkKRYdbFui6wIjrnHhW9q46ZoB5frqjgUPXzdJ54eitByDQ2nb+ghP3lYLoUvMNoHZ4fYzu1CEDvDkdbD5amjatjDnO86wTOgzQD7w9nlre+OqNNm8Tc6yybXbZDfaZC0bvIGqOOaQ7XOItpVL6G4cem1/9qZtvie1yeA9isls4pJIs+Y6OdVBspMDarZg0yf0BtbDngmqYWu6l3128+omdF1g2xLbkRQdieN9t22JIyVSSjdnmHRTukZ0DdPUSMWNOWtVjywBCR3c0LBwLLqqFC0t9/11UnPf5/HDahM/34ZeLT3tTKg3uYyqHT21QmdwZ+3PsDDsXkOhYKPr7jDcttFk+0vTPHhj7XnVfWQPSu6+wQ1lq6xpXyuqOsZpkliXINajuZ9eQaxHoMdK51jojHHyvjcjLvqfBT3n8YJlQq+GgdvgyE/nrXnD0EgbWpm0Jh03l3Y2b5Nrtcn1ut+LRSewY1/26S76d+bY98gUuX6HfJ8MBqAwzI6ShN2cirBrn2LKzHD8eR22sck6JfSIoje9KqQj3XroCkVLtFjJl2C+YuOlLZUTDs0X8kcltuNQKDhEIhpGVP2axx5xaOmZnXRty+HJ3ynagbzXQ8UJXbXimu1L6ArpX0G9Lro15F5EruAQC5UsOPXKNIfvyzH4mLqD5NHfFnj41PpD2VrXGXScZBLploh26RJ4t0AY098BTRPEowaJqE6qjlrsx4SBW6H/Zui+dGHPexxgmdCrQN77xgU/p9AE8ZgxTXVVtB0Mj0ha10WIdgsK64qB2rE44bjxw/0OeU9l76uIo6ZOPGaoZ6frqS+hDABSqhO6N+iakfl1iCtk1SqQgS+hi3kjc4Cxg8XA4WuxkfMK+GTzNpGIRiSpPsnq/1WBaIvGxlXpqr9n+ovcff0YI4qJdPw0s0o2dEUJvZAp2dBVoFoMx/IK91kVufOFJrjgH9r4eb2hbN/J0r0pSu9K9VC2SELn0o91MDCS4/BA6eSGoZGI6sSjBvGoTiyqE51n59W5IB94O+LSBxe1D0sRy4ReiX3fhYlHF7sXASpjwBNxg22bWrAKDlOeNJ/tLpKz7GlqwpaUCVKS6jQoTMmaq7zFQ6FyqqgnBt1XuUfn2YZeTy10LSbQ55HMoR77uaT9fAMpQUjpWmocgZS4HsfSs95IN+Z5cm/tBGgNShzL1RY1ESHWoqObJdt4Tb2zBftusBj6TT9rnh4n1iwwooLMgMPovgJHHsgp24nBdTgEUHkcqsllipk6078qero7ljsZt5qmT34T7QbnvqGF279QRyjbONz3jWMLZUsnIqxoj5OIGcSiOpEFcFZVxvgjrj19/d8udk+WFJYJvQLyofcsdhfmhBCCqOnNkkNCULHoOtv5qvvWJhOE4Nnvaydv2Tz88Iibg7nfk+qPOOQHJLKi6EuQnW6BY9Dne+CoJ2RNi00vcdpojOxVyxFgtglWPL82NWfusMPuL6u0L8gfleQ6Ss8x2akzfkj9uWaO2Oz4cTV7cP1lgAGlEKl4q+I77AjsbB3pXxUldHAjCvLd1c+z5rwE6+5TC2XTE26oKzrsemycbae11hXKFovqxKLxuXdcZMiH34tY87LlZDMhLBN6GI99omFJZBYDhqGRMrSqNi1NCHpXJ8l122TzxUCal7bEGvQJXpLrl9O861VwLDHo86nWBvWQNREBTV96EnqstxSB0N0eQwCOdGlSelYFKSVIsNske8SQUra0fL9DLpQwpGmlURehNxrJ9e77qPI86kr/OuFQbFfMytisYyQERYVJozUkp6ncw3j6a1oY2HGUyaP+PhKjWWC2CaJtgki7Wwwn2q4RaaPMUc0BDg1Msar7KUx2+QHk459DnLKc593HMqH7yA80NInMUkMkotHTWZp127ZT8rRvs8muscl5aT/BnRzUIzEv7Rj0+jzc55XQpWREsWBP3KuBnkoYNKfmrl+aXhlhXKGGQK7PVblLRyI0wZpz4xy8q3HVvepFapN69sJoWsO1QdT+DIsZdRs6uFXXVPwCrGGX0GdKzGLENZ79nnZ2PZKhkCxitmpokZmvI2JomBENM6ITjbjfFyrpy6LhsU/DxquWk814WCZ0D/KRD55QBQB0XSOVKJfm/cIXOcvGrrMsYiSp0bLWINNvU8zN3cZSjkHXPQ/3+VS5TxwuUsyq3WtfQq9Vg9Ky2lAjdK8ISr7gRlisOieqbEdvNFKbNeKr3OudKZa/GoQuiKY1paQvxUmp7OUObtW1WghdGNIl5xjA7MVmmlZFOH1FM4/vH6dQlEQMz9xWQdxmRJ9309CShJN387yf/Y3F7smSwDKhA4zvgD1fXexeLDqEEESjek2FL2bClsuSbLksya4DE4wPWxRGJIURiTUiKYw5pe8jYOcXOAZd0SnOl9Dn0xQwvFfdvd0n9ESNTk8tayPsv6N2W2y+zyWznGUTi+oYcZ2TL0/yyA/V0gc3CkJIup/rXmvgO6KAWLNOfrz2CU1xAmzHUS5SE3aM00ww28Bs1zDbBJF2V01utrtZBMPhoFZx9upxuqFx0pomhDa/0RbHLfZ+000203zaYvdk0bFM6IC8/y0Lcp6YM0rfvkmmihFisSimaRKLRYnGTCKRBY7lnGe0pk1ipobV4WAV3LjmynAjOyuRHsfOdww6qDvF+THo86lyV7WfR5oFRlKgCVFzVEDLGrW/eTEDxYyXYMZzutz+l2n235VjYsFt6ZLeF0eIeaGUlTnwa0G8VWPsQO372xn3pVRJ/wqw4dkJep8W43B+EmbppiYEZkQjauqYEQ2jBsl6PisQNgKFQoF8ziKXy2PlLXL5PAmjQGeqUK8PpBLkfW9GPOu383+iJY5lQj/yczh6y4KcStOgO10gVyhwYCDDVEiFqenCJfeo+4nFTKKxKFHTRFsAsms02luiQHkaymLRJXer6JD3wuwsb1s9HvWqUHWK07zuzyuhK2aIi/V6y6hes220ZY36ZDHfL8l2l8hbMzUuensbt3x0kNzwwhS4Ebqk5wURWs50h6lUPEJzem6fgUrU6hinxyRGWkPz8tcrp3/tiZDugfGDFtl8EdPQPeLWiEa87xG97kxuiw3HccjnLfK5PLmchZV3l7lcHscp/bfiEVjTqRFTf1T1Y/B3cPhH0HvlAp506eGEJ/SFks7DiEVgc6/G8ITk8IjEdsCxJVOTOaYmp6tGTTNCNGYSi0YxvWU0amJGF/Ifc+wwDM1NUrFI53eKUqk+tu4N7No82iZVa6DHFdXtAKkuHSMulGz1uT5J7uRyabxpVYTLPtnJzR8bYOrA/JJ6Yr2g9wUm0a6SR/+63vo8tlvXRZgasslrNkYa9JSGkQIjJULL6RnRiorpX32s700d16pxK2+5xJ23yOfz5HJ58jkLy5r9XdU16GkTtKcW59rl/W9BLBP6CYwnPg+Tuxft9G1pQXNCcGhEMpKZeYC0rAKWVWCC6TbMaMwkapp0bTiX1PrLIXsIcgchexgKw/PZ/eMOZ726hbNe3cKjj48yNV6kmJc4Wa9iWp6goppfVS2xzlO5z5OX8OTRItZkfQ5xSnXqhaBllaGUazzf72B5UQ9hckq0GVz28U7u/eUYh3+dxxqsvRtzdtOQpE/WaXmaRvqk0tCUTlSvUFcrtr4gzdYXpHn0yTGsQnWTga5pGIabf98w3DDKevMiLHkyj7RCfCXE3M/k/lvo3/V78pZFwSoEkS4qaEkKVrYJjMVMIDe1Hx7/NJz0rkXsxOLixCX0/AByx4cXuxfoOqzpELSnBQcHHXKKPlL5nEU+Z5F2WkltrNA2OFmX2H2Czx3if+/9KQmGWZ2StMSqt/lUR7o5QiShY3t1r8PFVaphvlTu9VRYi/Wqh26B6xinQui5fvdeZEO10YM+xA3OfUEr+87J0PdInsmdNpndktzh2csBV0KPutcTW6mRWCVIbtaDyAJwNTorOxO01KFmr4aOliiOI4kYrt3aJ23DEE+p0K7RHBycFOS0Ts4+/XkQWwXxXpfA4ytBKzfw5/Y/wPi4ekEYgKgBqzo1UvUXeWso5I6PIta9BqKdi92VRcEJS+jy4fdTtbLJIiEZhZNWagyMS/pGJHVGjZVDi0Nyo/vxkI68gOdd8wr3nBHJmrRkdVqyOu2wIgGrU5KelENvUjJHOevjFqtWVFfd2rZH8E55FbXkPJWGbN8c4eIPtDE6YTE4nPeSwQjwU7c6blrXIGEMEGnyquApEvqGZ8WJtWoMDOdwHD9dLF76WD9VrOekKAnUz7kqhA6uk9aG1U10dxTp35ZlYqqIdByK45LCmKQ4LsvC3AQgTE+9nXRV3HpiOokKIUgnI7Q1mTQlIw0l2s7Wp8YM9ugUHJ4UHMloHMgI+qbgwITGgQnB/gnBZMG9Z7/93DehZ+289EEIWNEi6GpeYhMhO4t86N2Is69b7J4sCk5MQh/fAU9+fbF7URWdTYKWpODgoGRcMT65FpyydgvPOv08bn3gj0wWBI8OCx4dBphOEKl4krs++w0+8e1rmBjeRU/SYWUKehIu4fekJG1PjTEScOPNdV2wUPEGiXaDRLuB1WeT6qidoGNm7Q5xPjpOitJxUpQn9kE2rxCTbs3u1Z6MG2xYlaZoO0xMFcm0FsjlXYfHQtFLKF8FAuGqtg2NaEQjETVIxHVipnFixlN7GM7BkYxwCXtK41AGjkxqWHo7X37HN3nmNW/k4MDhOdu58vzL2DBPZJ6KCdZ0Cua5llL92Pst2PT/oOXMxe7JguOEJHR5798vdhdmRUSH9d2CTA72D0hmMPvVjZdcdAW3PvDHOffLZCf555tv4rkXv5W/+tSbqEb6ABuaHVYkYVXKoScp6U1KViQk3UlJR0zS+RSV9BuF1SuSrOpOuJI5nkTu/eancJXeRinVipNUYs2KpJsFzWszLP0H9dwpnSsyS2ayMAxdozVt0hpWj0tJoSiRFaSua6Jue/jxjIEpGMxp9E9C35Tg0KTGkYzgYEbQPwV7xma+J5953Zv4/h131UTmAC991l80qtsBIjqsahc0VdGsLDXIe9+IeM7cY9xTDSceoR/6Lxj8/WL3oiakYoKtqwR9o5KjY42T1p9zxgU173vdL7/H3172cratO5mH9z5WdZ89Yxp7xiAoWF0FrVFJR1zSEYeOmOMu46FtcYeOmLttnjTcSxpCuOzqD5WlIbOxg6erql8g0UqImicExyOyRRjKCgayMJgVDOUEA1nBUFYwmIXBnGAw635G8vXfh972FVx5/mU84+orato/Goly3iln132+auhsEqxoEWjHyzxs+H/hwPdh9csWuycLihNu6JT3v22xu5xgjCEAACAASURBVKAEIaCnVdCWEhwYdJhsQErteDTGmq6V7D96aM598wWLL/zX1/iHF72O136+/ns3kncHtZ2jMCPxC1cMTUY9kk945J+QtMckzSY0m5JmU9Jk4n4iDs0RaJDf1DJOUExYMFoQjFswXhCMWTBREIzlBaOWYGgKhvLClbKzOkNTksmCRmOcXWbH37/gVVz/qxsZGq8tamXbupMadu5kFFZ1aMSOw7xX8oG3I5YJ/SmMxz4BWYWUUUsI0Qhs6tEYnZQcGpYUj1EN39PWXROhA9z42x/yd1f8NVtWbeCJg3uO7cSzwfMAm7QEmQLsnQCE7nlUCVftLHC9uMrW3U/alLREJU0Rj+xNh2ZT0GRKmg3pLiPQFJGkDUmTIUkakNIhaUjiS9UmuIxZkbUhYwsyRZgswIQtGC/AeEFjrIBL0rbGuAVjFoxZgnGPvMfygnFLIHxzv/cpX5cIKdz3M/hdlGwV84iulg5eeP7zOPdNl9d8zMqOFcd8Xl2DlW2C1kWKKW8Ickdgx0fglA8sdk8WDCcOoeeOPCWqqbUkXRvWoSHJ8Cyx63MhHq3dm812HD76b1/gI696By/7+FV1n7MmhIzIQgjXhuwtw+sE66X9JwruQO0amSUIHemRP7jGZ4lbQUwSMkZrns1a4JK8CUldkopAQpc0GZAyHFK6u54yRLCe0iUpXRLTBDFdYgqJKQSmBhEhiWoQ0SAqJLHjRV3ZYGRtsADLEVgOFKQg70gKEvKOIO8Isg5kbMgUBRlbMGnDZFEwYcOkR9YTRY3JIu5vFkx6JO37AQQkDOBIBMKToEWwLkPk7Hv3C0LHSe+4Uh3amdcXIGHeu176Rj7/X18lk609j34ydmxOK60pN6b8qeDmIHd8GLHhtaUUi09xnDCELh+65ilTTU0TsLpD0NEk2D/okKujClbRVivZedPdt/KKi1/EX5z3XH78x5vUT6gCB4QG0pGudt6RoXXhFnvWhBtipeGth5elUVrgkfe0SYDXjqC0BMaLgvEiIQ2A8DQCBt4so6QZgEA7IMProe3AtP1jmkf0QmLqAlNIIrogKiQRAVEBupAYmmvt1oUrMelINOFuM4S73V/XhXS3ebdA1yQ6AkPIwGJuA0UpsJHYjsAJtoEtBbZ364rS3W5Ld91GYDvuug0UHSgisGyJJTUsKT2ylhQcgSXBciBn+zeAYBmQZ2jbtO1hcg0k4RIJl0g72G2ahE0FCROQOQEZVzvOnQR4x5dNCrz30FsuBJk/bfN2zty0jXd+/aNKx+Ws+uxysQis7tBILJGY8kZBPvBOxLn/ttjdWBCcGIRezMC+7yx2LxqOuAkn9WoMjkv0iFr82NjkuPL5PvpvX+D77/1Xbrn390zmppSPV4KDK0kHJC7nWAc0EN4yIG0ZInWfFDRvcNdKEr8IPL3d48s0BD4paKH2ZPn5RbCbvx/4qoNAgvTay0mNnC3d5P4FCUJzNQfeMtAoeP0vW/cnFSGNhRCC0uWWJi3+ul/Zy+3H9N+Ddii1V0aGlev+fRTu9QuhlW5chSTr/o43aQqRo0fi7u8hSTp8XPh8Zeve+4FAOo63neABziiZh4/3yVt6szl/UlFxXPX1hcG1b/ggH/7utdiOWgraQ0N9Svtruklvq6BzqcWUNwoHboSzvgJG02L3ZN5xYhC6kUI87wnI7ILMLuTEruA7mScWu3dqSG+F1CZIbUKkNkJqE52pTZBcr9TMyMSY8ql3HnqSm+6+lXe/7E28/1ufVj5eGVKGSKlyXYRIl1Ksl0cegUQ/l6TuS2RhyTok6bunkSUy8tsTnoYg2O6Rpre9vN/+zx65++wRkINHFgH5V2gSApKkrP84BOQrAlIShOcC/vWV5galdZ8Ug+OhnMTAVS9UkjklcisjwVL8W+k6IJCkw5KtLxmXnU+Wzlem1vbbCdmwCdoXpW3B9Zb3p1IyL2kEfLIOq90rzk/F+Smdfz7xpitfw67De7n1gTuUj+0bPqq0f+tFX4dz3lsaHzO7YWKnuz65B5wGeOIuFFKbQ+PjpuD7iUDmAELOlO/yREJhBKzhKp8RZNXtw5AfOLZzRru9gsnlH2G2Vt2O2QqRlsZcL7D2FefUdVx7Uyu//vS/8zeffTMP7nm0Yf2ZEYLA9h3YxrUQOQcOciVSDZzofdt4YFMXs9vUQ8fLcDui2n7e8bL6dl+iDwT1sqXXXsWymmQ+bT9Zsb+sWM60vdoyPAsK+yaEJPVZJfdKiT28X0gS95fenKyCTKtJ0FW2T5PsQ+2EJwEzSeaB2tyXxL1+VUriYTW/rFwPXc88YnVnL7/57A+46G0v4vBQv/LxiWicR6//XeM6VBibYXwcRlozjJ159X6XIdo5w/jojYXVxshIa2Ou9zjGiSGhz4VIq/sJpUj18RRVQtWNofERPv3vX+azr/8Az333yxfmpL6kHLap+6QWkiwD8pwmsc8hqfuSduh493yUjhOUS+w+aZRJ6L4kT7Csxp2+pqGaBqJy6ZNWsH8F2ZaRsSPLTzjXkunb/ftTksA9idyXcCskV++LZ7IIS+yUkXmlZB5I5P71TNMEVEjWoXZKkwLwU+VOP366zZzwcfjrItSfEokTOq7UTrWXs/H43Bs+wFd//t26yBxAa3SweKTZ/VTRAi6Pj0sLTwE/xmXUg9Wd9Xt9/vutP2Y0M8bfPm8BCL1y8PUdlmZTi/qDrwRRTZ0alrycEGlCSS0cluS89UA9W3E8CER4XTLNkUr4ZFJJdt55hFO6PuGfX4qy81ZKokIKRHgZ2q66DPe/dB2hpU+aToncBK7vQMmxTJTdL+Hdh/J9yp+X3/8yyVyG73PoPkncfjK9/WnHh9XxZe9PiNzLyF561+NPCkpkXzYJmGdcfu4ldLd28aUf1p+LfEXriVmYZBnLEvoJi6dt3s6BGtNIVsN7rvskP/7IN/nJHTczMDrUwJ5VQUiyDSRuX63tS6aaLxELnrZxO6+9+OUMTgwzMDHM0MQwg5kRBiaGGcwM0z8+SK5oEbaNiwrJ2veaDyT1sPd8mW3d3+5JsoTU4+H2AgE+bGP3tgfe9jIgjzLJPWRrdxdhybx8vSTRi6CfYU1CafIS2j+s0giTrn8+J2T79yVtQvsFZFchCVNByuFJVaXGIBzXXWVyVimR+z9XqukTZpyudBudqTbaU210pt3Pt2/7T0YyYwRkHZ6E+BJ92eSA6T4A84xkLMGH//rtvPGf3kOhqF6Jz8fZW05vYK+WcTxhmdBPUFx85oXHFH6258g+rv/V9/noq97J331pAeoPh1W2Zd7lsmwdKdmyYj1XnH3JjE050uGJI09y154H+NLN19M3PhCor8Pt9bZ0s7V3E6PZcUazE4zlJhjLTmDJYkBKld7uPqkH6vywejzs0BZsryB3CEje1+KHvpTZ0Ete5qH2q6jRq6rjQ/tV9rOaDb2k9i9/HmHzhG8WqKrGd8r7O82rvdIGLn3HOre3aTPBn214Gm2JZtoSLfzyoVvZN3ioXDJH8NDHbyJuTo/46B8Z5MY//LhMQzOtf9PWWTAyB3jHS67itgfv4H8fu++Y2rn07Isa1KNlHG9YJvQTFH9x3nP5yHc/z2CN6SSr4cs/+RY3ffJ7QfW2eUelpF5Bkj6pdqTbZm1GExon927k5N6NvOjs5/K669/NbY/fRYmdXMnvby98KX//rFdOO/7WJ+7kZde/GSpt6yHSvHDjOZyxaivNsTRN8RQT+Sl2D+1j99AB7j74EEXHTfUX5vDptnb/ukvXW5LACZFe6fwlGz+lBqrYvAm145NXIJGGbOEivL9TfnjQ75B5IqpHKdhFHOmUJF/vfj5jzRm0JVppiiZJR5M0RVOkokmaYinS0SRW0WI0O8H9B3bwo/tvpmjbgWS+rn0133n1tcF5D430sW/gIGGbd0eqtSqZA1x25rO48fYflzQGlZK5d72E78MCqdkBtq/fypXnP49nv+3Fx9TOqo4eLj7zwgb1ahnHG5YJ/QTGW178et77zU/VfbxVsHj3Nz7OV67+FJe88yWeSnOeEVb5epJdEB/uScodTSVCtx2be/Y8REe6jfZ0K82JdFlzqViST77kXVz08ZdQdOxSe0guPaV6EZuTujcEpF8WmqYJnrP5GXzyireztm3ljJdwcKyPL/zum3zvvp9iS5urnvEK/t95r8SyC1h2gYJd9JYF8kWLglNat+wilm1xw/0/5a5DD/GqM69E4tZtl0hklaUjnUB7/cNHbibvWLxw65+zvm0VhjAYnBrh+nv+s6S+Dk8qgkkKocmDS9L/9tLPsm3FFuKRGDEjSjwSRSB4y08+wQ33/HiaJP6lK98/630J45rL/p4rv/IGDgwdAgQjmdGy31tiTQhZLlmvbS9ve2RyjNZkMwAXnHwOKTPBZG6SsC9CcLxTIZn7KvkFQNyM8c9v+jgf/u61x/wfuub/Xt2gXi3jeMQyoZ/AeOUlL+bme27jtgfVY119/O9j9/Fv//Nf/MubPzX/aWF9hG22FZI6QtCeLoWvDIwP86LPvN7zPHNDei7efj6ffPm7aPEG+3Udqzi1dwv3H9gRkNiazpVs6loXtDNlZUmYcQB6mrtImQkyVii5joAzek/mG//3kyTmSPKzqnkF117xHnqbuvn0b79G2kzQmZxdq1CJ2/few0N9T/CJS9+qdNwtO/9AfsriZaddznM2/BkAD/Y9zvV3/ydhGzj4S1FyEKRkEzeEzrM2nktUn14V58L1Z/G9e34Sijt3SX08n6m5n73NXXz9rz7BZV/8G5CSkYpESK3JFmSF5mFNBaF/57b/5M3P/1sAoobJc7afx0/vuqU2yXwBpfPPX/Uh7n78AX54+y+PqZ0XXfB8Lj93ZlPTMp76WPZyP8Hx5as/ycaetcfUxpf++xs4UvKWF7++Qb2qASGbetgrWziSzpCEPjg+XOYNPZXL8tN7buFzP/taWXOtiWbPW9yVvC/Zen7Z79+788dl6xvbVwfe275X+tXP+psyMp/IT/If9/6Cf/zdt7nh7p+wb7i8GM5bnvk3bOvahKmpl7KyigW0gGZrh+M4CAlFu1Tdx9D0cu916Xufl5Yl73B3ubl9TRmZ206pvQvXn1PVO34iV8pHPjI1zg/u+wXX3/ED/vG33+IL/3M9tzz6hxJJA6ev2sra1l6EFEzlprDskqNYW6LJ884Hf9KxtqOc0L9963+SK5SSolx25rMDybwUf146viwN7ALh5c++ks0rN/C+bx5boqbTN57KF676cIN6tYzjFcsS+gmOdDzJ99/3r7zlXz7I7Q/fVVcbjnR481fezy8/fgN3Pnovd+y4u8G9nOnElNyfQ5J62IY+OD5M2Lvc917f07e/rCktkPABR3LJKSVCH54c4wd/+gWvfWapFOOmrnU8ePDxQHQVwNPXnhb8vm/4EJf/y2sZnBwOdtA0nU9e8XZe9fQXeefUOGvVNq678wf8YsdtRHQD04gQ0SN8+cUfoj3hJhK699AjfP/+nxPRI5i6gaEbPHzkCTRZTui7hvZxYKwPTQgEAiFE8F0TGgLh5vCX4MgwoRuB5F1qMUR2wXrJc+/U7i1l5/7Zjt/yF9tc6bAz1cZJnet5vP9JoCT5TuRKEnr/+ABv+v6Hy23VEt56yd/yjueWJoZnr93O/sFDIAWjk+N0NbUD0JJoCiYX/jKsch+aGOHo6BC/2/G/XHr6MwF4zvbzMHUTq2CFHPAI+SawoGS+dc1mPvjXb+OK9/01WStXdztXnn8ZH3nVOxvYs2Ucr1gm9GXQ1dLBDe/5Mr/802/41k3/wZ2P3qPcxsDoEG/+yvv58ps+waXvfhmDY/U72ymhik29ozlE6GPDgdo38LLWBE3xclv6wPiwa5OVkngszjM2nxX89psdf2Bn35OB/RhgY8dazyHMtbm3JproSJXOe+OffsrQxEipc9Kd+HziV18JCB1gfdtq+sYH6RsfKDMbhCXenQN7+dZd/zUtQ1x7sjwz1nfu+RH/esf3ytqZaRmW0HVRnoN9toxx/u/bV2wOjnekw9f/+P2A0AEu2HAOT/TvLYX6SRgPSeipWDKk7i5NJr5/10/KCL0z3R7YvEcmxwJCb002h2zobvtrQhL6vsFDCOCX9/wmIPRULMmFW8/hNw/+cVFt5uCGqF33tmt5/zc/w85DT9bVxgXbns5VV7yKC7Y9vcG9W8bximWV+zICPO+c5/Dv7/tXvnL1J3napu3Kx//hkT/xnV//gK/+w2fmoXezIFCVSjSh0ZpqDn4aHB+iFOdMoGbtqvCEHxofDtS9F245h6hRUiff8vDt5CyLgyNHgm2bu9a5Er/XXtIsL1l5eLTfba/MJi0Zy06UkbUmtPIkLt5+Eb2khs8XPYkypL521c3lErqsTAbjJ6MJ0qGW1sN90DU9uD+E2g/ivMPJXzz1+6krShL6rsF93L3/YYamSo5rz9xwdii5jnsPJrIlCb0plgolCQoum6MVE8GmWAo/1Gx0quQw5tvQwxJ+WOW+f+AQOHDLA7eXTV4uO+vZi24zB/jHN36MP+64hx/87qfKx561+TS+cvWnuOE9X14m82WUYZnQlzENl597CT/88PV85epPKddW/scfXsf45ATXvHyBvW29Qbkt1eySpIeBseFSfLFvC4YyT3hwU9q6NmO4ZFvJu73o2Nz22P8iHMnu/pKafmPXmpKNGUhE4hX9kdNs7EJCRDMCKR9gKj9VTppehrRoiNALxWJZBjqfXCtt6FLK8kxpkoAMwxnVhBTYFTb0wGZeuf8MGeO29ZQI/eHDT4Aj+cPukmbnvA1noaGVZb4Lq9xT0UToekpL2y6WqZ9T0WRwPWHHuNZEU9AuEkzNoLulI/h9/1HXX2F0Yow7H7832P7nZz4TXeiLZjMHeM1lL2NFWyfvU4wwSceTXP/2L/DfH7qOy8+9eJ56t4zjGcuEvowZcfm5F/OrT36PTb3raj7GkQ5Xf+X9XPK0C3nW6c+Yv85Vg6xC1GMjIYnTl1QlG7tLjoDj2QxWoRAM7M859bzgt7t238/45AQAu/r3Bts3dK4J1Pw4knxFDer/c9blJCM+abnkIR0oFov0vvsZrHvfMzn1o8/lK7+7oYJsAadcQreKhYD8SuRKUPI1uHy/lGgZqVdfhktyuir3MGn7kvX0dSGhK9Ue2PfBI3QJt+8q+U40xVKc1ntSmYtD2ClOExpJM1Gy3YfOP5mfKmvH1wyEQ9dak81lcfEr23rLJnKuhO6q1X95z2+C7e3pVs7adNqiSebb12/l//3Fq3nd59+hVLd865rN3Pzpf+fiM6uHUi5jGbBM6MuYA2u6VvKjj3xLSQU/MZXhdV94B599/QdYdQw54+tBZVIZ1ykuRGaOZPuak3nOaSWntwODhwMyPaV3Mz0tXcFvtzx4e0DKu/v3BdtjkSirWnoCEjo83MfAREldfOHmc7jv/T/jX/7vR7ni9ItJRhKlZC0Sclae4cwomexkyGQgAokzopfcWwp2IZTbvOSdrVX7+wbqdVlGkpXLolMMDjE0o0KSL2kKSjnjCbZv7yl3iHv40BPgwB92/6ls+wUbzy7TLExkJ8t+b46WyNq/rqgWoTlRKnUZi5jB/RkNSejNiXTZ/VzXXv6e7T96KJjc3HzPbWXe8887+1mLQuZNiTRf/YdPc9WX3s1hhZrl5596Dj/80PX0tnfPY++W8VTAslPcMuZEOp7kW+/8Is+/5pUcHDwy9wHA7sN7+dgNX+K77/pH/uIDr2Z8amKee+ki7BAH8O23fZGhiVGGxocZnhglZkY5Y8Oprt3Ywx2P3e1K8MAl28sloFse+j1+kpVdfXvLftvUtZYDQ4cBSdFx+MB/X8s//9VHgrbTsSRXnnkpV555Kfmixe93/olfPHwrNz18G8PZsUByLfmhuRsiWvnf0ioWPIlSli0rJfT2RCsb2lbjSN9G7HhcKTk6MUjeD/uSEicsoWt6SUMQPk8oY5x3IADbVpQT+iOHn0AAe44e4PDYUXqb3QnRBRvP5su/+S5+PHsloafMJOGMbVHD5BP/5x1lk5nxbCaIgw8nXdE1nXQ05f4uJWs6V5W1vf/ooaDf/SMD3Lf74WBS+tyzn81HvvsFFhLRiMm33vFFrvvVjUqpXTf1ruMbb7uWeHT23AbLWAYsE/oyakRzsol/ftMnuPKDr675mB//8VdsXbOJ7777n3j5x69iKp+dxx66aK9QueuaTldzO13N7VX3zxct/vOOXwQS4iWnlQh978BB9vTtD3KY7+nbV3bsxq613LrjDnzv+p/cewt7Bw/x9xf/FZeccn5ZGtKoYXLJ1vO5ZOv55F/4Dm6480d88KdfpOgUQ4VUXEe0qFmerKVQLJRC9CR+0vRpEvpbn/0a3vrs11S9ziu/9gbu3PuA30C5l7umlbcfeLNTkmKDSQdl9vMjY0cZzowGpHz7zrt5ydnPB+Dc9WcQETpFaXsSenlimQ9d+WbyRYt0LElzvIlN3WuJRaJl+9z+2J+8SQXTsqi1pZqZmJwABGs6ShK6Ix029azjnM1nuMVZmttIREs+Dqs6ejh17Uk8su/xqvdqPvCNt13L7iP7uO6XNyod97W3fq6s78tYxmxYJvRl1IwzN23jRRc8n/++/Rc1H/OZf/8K//ymj3Pd267l5Z/4+3nsnYuOpta5d/IwOjnGe7/7aR7Z+zgIQWuyiTPWnxr8PpwZ5S//7HLGpsYZz2YYz06QK+QD0tnUtbakLvaMsg/ue/T/b+++o6OoGjaAP5PeE5KQBBJCDWCC1ASEhF6kg2BBEUWkKEgRUUAF8bMgWLCBvICCYsEKKEiTIgQUAoQqEDohCamk9+x8f+zu7MymJ7tJmDy/czib3Z25c+Ec8sy9d+69mLZ+Ieyt7dD7vm4Y0r4vBgaFaedN69ha2WBS2KOwtbLFvF/eNYS0LkNtBKMWun58X/a0PAT5nPHyifoxeF2XgLLL3dKoC1r2dLqOPlQFAIGNDFPWzsdeVsxXD78cIQW6vY0dujS9H0evRgIQkGHUS9P3vrKfsTh8KQK7Ig9I9Ug1Xi3OwRU3EaNroRuecLcQLPDtvM/KLPvBkD41FuifzngbTnaOWPjli5U6b/KQJ6q96BPVLwx0qpQXx06tVKBrRA3mrl6CzUu+wqpZSzH904VmrB3gKWuJp2VlYPQbz8DDpQE8Xd3h4eoOe1s75BbkITk9BX+dDkdeQZ40v7vf/aGKB6s6N2+Hzs3blXqtlt5NIW21qm/ZQtvSz8nPxa4zB7HzzN+wtLRC95adMLrLgxjXbbh0jce6DseSrR8jKz9bMd/b2mjluIKiAgjyRXSgbckbLyxTFv2a5foNXDRFyi5347XalTcPgjTsYG9li+aehu7tczGXYCVYwtbaBvbWdriZGK24blirYBy9cgoQRWTKHnYrz7Ktq7B27w8oLCyEfmpbqvF67o6u0oNvTRtWbI14vSEhffHRL/+r1DlV8c6kBWjfIhBjlkzSLupTCdNHTjRPpUi1GOhUKf5evghr17VSq8rl5ufh2Q/n4tc3vsTyKa/jlbVvm61+nq6yddzTknEt7iauxem6ygVI054FQTt8q6UNBfmDchXRyruZbnEZ7RipCFG7PKl8NzQBKCosxOGo4wiPikBqdhqm95sAQNsybuTqhSvx16XudggCbCxLaKFrqwnDEjqAYNTlvmDzMnx3dKtuhTgL3Wpx2qNzC/NkY+SQdnsDAEvBUprCpZ/vbiAoniYPbBSguOmZM2AS5gwouZsfAMJah+DDHWshQJBmC+jtOXcI4Rcj0NDFAw93Gwof14bSd9fjo5Gblwf5ojN3M5Rd7g10y78CyhZ6bn4e4lLikZx+F0npKUhKTUFSegrub95W2omstV9LNPNughvxyhsQU3ph1DMY3WMwhr8+ASkZqeWfIDMmbCg8KtHbRAQw0KkKerfvXullYmOT4/Hsh3Pxy+K1iEtJwIpf15R/UhXIx9CTjbeG1YeWrkUtwLDymiUs0LudoQv4ZmIMomKvwdXBGa6OLnB1cIabgwvsbAxjvN6unnCycURmfhbmDZuK6YOeQpGmCHez0tBhwWDtrm26len0Y+TXjQJEU1QE6al03SC18YYn2jH0EvYtN3oorrCoSNuiVawMB+Mn77Qr0RUadbkb75dutEKc/rrtjJ5wL0/npu3gYG2PnLwcZOYoW+hHL0di3b5NEAD8fmw3ti3YABsrbe/ESyOm4s+T+6Ap0kjrCKRmFt+gBaKIBk5ucLJzlD7/ePNafPHH18WeYu/Uqp1ia9HBIX2xets3lfr7VNQjvUbg5Uen46lls3D9TuVvGvp2rNzNJRHAaWtUBSFtOlbpvP9uRuHp5bMxZeh4PDXwERPXSqvYsq8l0U0Nky9qEhzQQbG16pqd32HSJ3Mx9r2pGLBoHELmDUPA9J6YtW6xoih9t7t+JzZLC0vDE/TSSmm6V1Estl93dl6ubPlT7ZQya6Mx9ILCAsUUMv0KdYLxwjLyFeHkLWvFe+1roewpd0EQtK19aSU5GJZVVaywJyKocQDKk19o2ETF2tIK3Zp3BETtdEY5FzsnaXGY/25fxk//bJO+C2jUHKNDHjT0GIgC7mYYd7m7ACIUrXMAuBV/u8QpaZFXziH+bqL0/sGQPuX+XapiSNd+eG/ya3j+kwVV3smwaxX/j1H9xkCnSmvl27zK50ZcOoWnl8/G6+PnmGWrR/nCMmWuJy89za2d/tW/g7JFtO/UoWIrrAFAVOw1xXEtvfwBEYppYE52jrCGpTRvWz+PHaIAHxdPxfk5udnK+d+iCBsrZQs9X1opTj+fXrtCXbGV4jSiYnc0aZ52Ca/ypV8BwEq3c5l+5Tv5vHRpURsICPI1tND/i72MsLceRvDiEQhaMBAtX+oF35ld0WXRcMW879DWwYBGOz4vXzTGyc5RdrMDrNyxAQWycea5I6bCEhbSg4cFhYWKmCu50gAAGYBJREFUmRINnFwBEcXGz2/G30Zpdh0/IP3cqWU7eLl5lnpsVXQP7ILPX3gXMz9/DX8e21vlcnzcvco/iMgIA50qzdnesVrjexGXTmHqinlY8fybJl1NztHOQdElnmTc5W5MttZ6/46G6WqXbl9FTFK8cl62Ltyuxd1ShFUrn2aARrcymY61pRVmDZkkC1/tTYOHgxtGdhkoHZeQnoz07EzpOP3NQ7F56AW6sWT5ym2iUOyhOFHUQLmIjnJxGPl7+dKvAGBlaV3CMq+yHgZd4N/XqJV0zqmb53E94Rbi7sYjNSsNuXm5gAikpN/Fhdgr0nFhbYKlmwn5XHQXOyfoewwEEbidGIdf/tkufd/Myw+Pho5QLJIjf9K9gaM20P2Ntk3VL/takp0R+6WfBUHAoODepR5bWff5B2Dd3A+rHeamvsmg+oOBTlVS3VWrDpz+B1NXzMMn099G7/amCXU3Jxdk5RpagElpdyt0np9HIwT4tpDe7zsVLoWmfEMTAQJycnMQdzdBOralt3bXtTM3/lOUOXf4FOx8dSMWjZmNmYMnYum4+fj7jZ/g595IOubYlUipO1neHV58DL1Qur483Iqv5Q6jFeJQbLlY/fdFRk9cW8JCsTyshSjA1sIG9lZ2cLZ1gqOVHVp6NlUMGZyLjlLWX9cTIUBA+EXDqnHtmrSBm522e1w+F13fQpfvt/75H+sVc+Rnj3gWNvqbDSi73d0cteu5+3sZAj01M017k1SKfy+cxO2kONyIj8bxqNNwtncq9djKuL/5ffj+1VV4ec1b1QpzoPr/t6j+4kNxVCUBvi1w9vrFapVx4PQ/eOHzV/G/OcuxaMNy/Hpoe/knlSEm6Q4Cn+0NOxtbNHT1qPDqdP2M1sfeGxmuXXtdsaoKpAfTrsTdQGN37S/dlo2aARoREZfPYOOBXzGhz1ipnHZN2qBdkzYlXjO3IA//2/Od9jqyfdiB4i30goKC4iu5yRd90Vk4fDqm95sAURShETUQIUK7X4sGoihCFDUY+uEzEDWiYtoaAJx9ZxcEQYCV/BkAmd1nD2JzxE7FZ+dvXZK6w/X0LfHDFyMwtf8TALTzwh8I6Iydpw4o1nN3sXdSjJEDIm4lxmLzvzvwSOhwAICvhw8e7zUa3+z9GdCIisVl9F3ufp6NkJx+F8npKTh55VyJ/956RZoihM4eWeYxldXz/m74YtZ7eH3D8mqHOQC0bdKq/IOISsBApyoZ2KV3peajl+bQ2aOYsGwmNs7/DF5untqnk6spNz8P0YmxFT7+mz0/47fwP+Hi4ARXRxdcir4KwPAUvOEhce3T3kf+Ow4/Dx+4OrqgiUcjWAgW0Gg0+L9NKxCXkoCpDz6hnSNdirjUBCz8fhkib5yHfgU2/Vw6EaJipzVA95CZBrKn1LXHWwjK4PV28YS3S+ndtRpRI7X0C4263I1XaDNmaWGJID/DzYkoirgQc9UwP14+bx0C/r0UiUJNkfYJegChbYOxK/KA4sE4Z3snxQOB+qfZP/tjPdo3uw+ZOdnIyM5AMy8/bctfEPDZlq/w1c5NSM1IQ0JqEgBg/NIZZdbdnIZ1G4CPn38TMz57FbtP/G2SMgcF9zFJOVT/MNCpSoZ27Qd3Z7dKz68tyYmoM5iwbCbWz1sBX08fvL5+mQlqWDmZOVnIzMlCbHK84UNZS1g7A0ybWqu2bcCq7V9DarlDGza5+Xn4bPt6rN/7Ix5o2wUtvP3R0qcp7G1skZ6ThbScDJy4dhb7zx6BRv8IulEYCoK2iz32bjysLa1gY2WD3Pw83Xx3UXG88bS18kj7s0NUzEOvCEvBAkG+rZFXmI/c/Dxcjb+B7Nxs6RkE7QX0fyEgKy8b729ZDTcHZ+QW5OF6QjSgAVbv3IgfD/2OjJwsJKYlG8b89U/5A7gRdwsDXx0H4w4SaET8+98J1BXTR07Ei2OmYOL7c3D4fET5J1RAYw9v7qhGVSaI8id8iCph/a5NWPLNhyYrL7Bpa2yc/xlOXjmLKR/NM1m51SYYXrUNacP8dRi9ihDL/F46TjQcpzheVF6vtPeiCDjY2qFLi/awsNCukmNpoVtuRrDQTkXTLSpjaWEB6BaZ+TNyPwRBQENndzTxaISCoiIUidr560WaIhRqilBUpP1TKPs8v6BAtziNri6yee7aHgzlvHX5fHbD2vCG+faibN699MBfse+hWNSmLnn7mfkY23MYJn/4ksnCHACWT1mEx/qYdkiA6g8GOlXL1BUvK6YCVVdznyb4dsFK3E6Kw6QPXlQ85FYnCJACVpQHrfQq6JrOZYW60Xm6nxX/EUsLdZTzeUn1Fct4X5LSvjf+XNZhoOgtMOp+B0RpjFzeEle27GXl6Vvkxt/XEWvnfoCOLYMwdcXLiCxnzL4yHuszEsunLDJZeVT/MNCp2sa+ORnHo06brDw3JxesnLkUXm6eGPfOc0hOr9jT6jVGClt9SJfRchdFwELZIi/2fUVa8NLhhpsCxXspO2U3Dfr3KOU9ZMcbn1+s5a37WN6yFmQt6xJa5OW12KUV6PSXLSns6xBHOwd8NW8FXB2dMWHZTCSmJpus7AGde+HLl0zX20X1E6etUbV9/con6BEYbLLyUjPT8dSymdgXGY4/3voaTb39yj+pJunHjaWpYNoWqljSVDHAMOVMMd9cNlWtlCly2kVvBNnULsg+h3bFOKkcGMawpfrpvi/tvf54+Ypy0nx1XciWdH2NrL4lzI+XxsQVU9L030N6lcb0pRa5KKtX3dLQzQNb3lyPxLRkjFo80aRhPqhLb4Y5mQRb6GQymw5sxedbvqrUE+blGR06BIuffBHz172NPScOmqxcs9DvulZWi9yoZS4fQxeEEs4zbsGLJXyOEsoVjcozei1Wjrx7HCV8LnsvHwM3Xuu93LFzsZxu9zoopE1HrJz5LtZs/xbrdnxvsnJb+7XESw9Pw+CQviYrk+o3BjqZ3LGLkbgadxN/n/4HOyL2Vbu8Tq3ux8qZ72DX8b/x5sY63pIRiv8slvCZ4ThDt732rS7MUUJYywfNjbvXtVcyqoCxCn4vGr2HUUhD3l0uG5SXeghEZZGyn+vy2HhJZj00Gc8OfhzTPn4Z/144We3yhoT0Q9+OoWjbpCU6tAwyQQ2JDBjoZFa5+Xk4evEkfj64DX/8s7vK5TRwcsWqWUvh6uiCaR+/YtJeALMRSghr3dQ0acxdN8ZeakvceEy92Ni6UctZdp60mxzKeF/C+Yb59yW06DVG9ZO9l4e84nyg5LCvw9yd3bDmxfdhbWWN5z9ZgNjkO1Uua3ToYIwJG4pubTsrliYmMjUGOtWYhNQkfL37Z3y18wfFJhsVZWlhgdkPTcGzQx43yRKbNcq4YSwYMq7k72UtX+kA2c2BrGWsuDmQ7gHKCHN5t77svTJsdQWJxa9nqLjhvfROXsV7qCUuF9KmI1bPXob9p49g4ZfvarevrSRne0dMHjoeTw4Yq9gwiMicGOhU467G3cSE915ATFLVWj39O/XEx9PfxJbDu7BoQ80vQlNtRr3nZT/dXsqYejlj6FV6NR47N/q8pDFzxZi4/B7kHv2t8tLD0zBt+FN49aul+OXgtvJPKEGLRk2x4eWP697DnKR6DHSqFYlpyRi56GnlymyV4OPuhY+eWwIPlwZ47uNXcP1OtIlrWMNKaKnLR7BLHfoua0i8shQXLH4ZUTS6nPFx9/BvEk9Xd6yevQwOtvaYtWoRrsRcr1I5Ab4t8Osb6+Dq6GziGhKVj9PWqFY0dPXAD699AWd7xyqdfyclAeOXzsCWwzvx+1tfY1SPwSauYQ3TT9fSGP4IuilmAqDbglWQtmLVfm6YYmbYGlV2nmwKmvJ9Cd9rlOUJotH1ZOUbpsAZ/blHdQ8Mxq6lP+DoxUiMXDyxymHu4+6FTa9/wTCnWsMWOtWqA6eP4Onls6tVRlCzNvh0+luIiDqNJd98gNz8PBPVrg4qq6Vu/HC8XmnvK/I/X+W/HeY/NgNjwoZi+mcLcSLqTLXK2vb2RtzfvK2JakZUeWyhU63q06EHBnbpVa0yzt+4hKGvPYmUjFTsfm8T+nfqaaLa1UHGrWJ5y974Vf8HpXxfWlkqaHWXJ7h1B+xZ9iPcnd0wcP64aof5kwPGMsyp1rGFTrXu6MWTePStaSYpq22TVnh/6mJk5GRiwbp3cCshxiTlkjp4uXni9fFz0L5FIF5Z+xaOXYw0SbmHVmyBv5evScoiqiq20KnWdWvbGc19/E1S1sXoKxi1eCL2nzqMXe/9gPmPzYC9jZ1JyqZ724yRE7Fn2Y+4EnsDgxaMM1mYhwaFMMypTmCgU53w9KBHTFaWRtRg7Z/fYcArj6FFo6b4+6PfMKrHgyYrn+4toUEhOLRiC0LbdcXoNybi083rkF+Qb7Lyhz8wwGRlEVUHu9ypTkjNTEOHaeb5xfjAfZ2xYNxMAMAra99C1O1rZrkO1S3+Xr5486l5aObjj0UbliH83DGzXOfMmr1wdXQxS9lElcEWOtUJbk6u6NX+AbOU/e+Fk3hoySR8vecnfDP/M7w1cT6cHZzMci2qffY2dnjlsRnY9vY3CD9/DAPnP2q2MO/fKYxhTnUGW+hUZ5y7cQnDXnvSrNewt7HD1OFPYlyf0fgt/E98tfOHurffOlWJo50DJg56FE8OeBhbDu/A6m0bkZaVbtZr/rX8RwT4tjDrNYgqioFOdco733+CNdu/Nft1XByc8czgxzCh/8PYdnQP/rdtI+JSEsx+XTI9D5cGmDT4cYzrMwpbj+zC6m3fICE1yezXnTNmCl4cO9Xs1yGqKAY61TljljyLE5erNy+4ovTBPnnIE9gZcQArt67Hjfh7fBnZeqKRuxeeG/4URocOwa+HttdYkANAWLuu+G7hyhq5FlFFMdCpzsnKzcYz77+Ioxerv/90Rbk4OOPpQY9i8pAncPj8Maz8fQPO37hUY9enimvm3QQzRj2D4Q8MwLd//Yo1f36LxNTkGrv+gM698OVLH9bY9YgqioFOddaq3zfgiz++Rnp2Zo1d08HWHpMGj8PkoeNx+up/WPn7epPNV6bqadukFWaPmYye7bphw+4fsW7H90jNNO8YuVwDJ1e8OHYqnh70aI1dk6gyGOhU5x29eBJ7T4bj2KVIXL8TjdTMNLRt0gqWFpa4fudWlfZWL4+9jR2eHDAW04ZNQHLGXWw+vAObw3cg/m6iya9FpXNzcsGoHoPxUOgQtGrcDBt2/4jV2zYiMyfL5NdytHNAM+8mKNQU4lL0Vbg7u6Fl42boHtgFfTr0QJeA9ia/JpEpMdDpnpeSkYob8dH4/cgu/LB/i0k3Z7GytMKQkL4Y13c0QoNC8O+FE/jl0HbsOLYPWbnZJrsOGdha22Bgl94YGzYU/TqFIfLKOWw6sBW/H9ll0ps3RzsHjO8/BsO6DUBTbz80cHI1WdlEtYGBTqqSkZOFHw9sxaeb1yEtK8OkZTf28MYT/R7Cw71GwN3ZDXtO/I3fwndgb+Qhk16nvgoNCsFDYUMxtGs/5BcWYHP4Dny377cqb2daGg+XBpgzZgoe6TUC9rZcFpjUg4FOqhSdGIvxS2fgZvxts5Tfp0N39O0Qiv6de8LRzgHb/t2D38J3IPLKWbNcT63u8w/AmLChGNXjQQiCgP2nDmNvZDh2HT9glusFNW2D9S+vgHeDhmYpn6g2MdBJtdKyMjB+6XScvX7RrNdp5dsc/TuFYUCnnmji5YujF07g8PkIhJ+LQGzyHbNe+17T0M0DoUFd0SMwGD2CgnE3Iw37ToVjb+QhnL1+Eeb8ddQ9sAs2vPwJ7GxszXYNotrEQCdVy87LwajFzyDq9tUauZ6rowt6t38AfTuGok+HHsjMycKR8xE4fD4Ch88fR3J6So3Uo65wcXBGj6BghAaFoEdgMHzcvXDo7FHsP61tiSel1cy/R4/AYPzw2hc1ci2i2sJAJ9W7lRCDBxc8bpan4cvTOeB+9OsYip73P4COLYMQdfuaFPD/XDiBjBqcklcTHGzt0bVtJ22ABwWjXbO2uHDrMsLPHcO+U4dx5HxEjdfJy80Du97bBHdntxq/NlFNYqBTvbDq9w1Y9mPtruzlaOeAkDYd0LVtZzzQtjM6tAxEXEoCLt++hssx1xEVc036uTZuPirD1toGrXybo7VfCwT4tkCAb3ME+LaAv5cvLtyKwtELkTh68SSO/He81m9alj77Kp7o91Ct1oGoJjDQqd4InT0St5PiarsaEltrG3QOaK8Lw+Zo1bgZWvk2h5ebJ2KT7yDq9nVcjrmGyzHXpJ/NMf+6LPY2dgjw04Z1a98W0s/+Xr5ITk/B5ZgbuBJ7HVdibuByzDVEXjlXp6bz+Xv54tCKLbVdDaIawUCneuPA6SN4evns2q5GuZwdnNCqcXP4efqgsacP/DwbobGHD3w9fWBtaYWk9LvIyctBTn4ucvJypdfs3BzkFeQhW/ZZru61SFMERzsH2Nvawc7GDva2drC30f2xlb3XvTrY2cPTxR0aUURs8h3EJN1BbPId3E66g+jEGFyJuWH2ncxM4buFKxHWrmttV4OoRjDQqV554+v3sWH3T7VdjWrzcHGHi4MjnB2c4GzvBGcHJzjZO8LW2ga21jawsbaBjZXuZytrCIKAvIJ8FBQWIK8gH/mF+cjLz0deQT4ycjKRkZ0pe81CRnYm8grya/uvWS3Thk3Aq0/Mqu1qENUYBjrVOy98/hr++Gd3bVeDzGhsz2H46LkltV0NohrFQKd66f2fvsDnW7+q7WqQGSwY9wKeH/F0bVeDqMYx0KneOnYxEu9t+rzMvdfdnFzR1NsPTRo2hr+XL7Jzs5GUfheJqck1ur1rfdI9sAs8XT3g4ewGBzsH3EqIQXRiLG7G30ZqZlqp54W164pXn5iFoKZtarC2RHUHA53qvRvx0Yi4dAoxSXcgiiIaeXgjwLc52vi1hJO9Y6nnpWdnYvvRv7Bp/xacunq+BmusPsGtO+DR3iMxrFv/Mv/NM3OycOn2VUTdvoY7KQkQBAFNvf3QrW1nNPbwrsEaE9U9DHQiE/hmz8945/tPTLrTW33gaOeA18fP4TxxIhNgoBOZyK2EGDzz/hxcib1R21W5JwQ2bY0vX/qILWsiE2GgE5lQcvpdjFnyLG7ER9d2Veq0Vo2b4dc31sGNe5ATmYxFbVeASE08XBrg58Vr0KRh49quSp3l7+WLTa+vZpgTmRgDncjEvNw88fPiNWjq7VfbValz/L188duSL9HQ1aO2q0KkOuxyJzKThNQkPPfx/DKnxZXE1toWfTp0x4PBfTCgc0+4OroA0I7Rx6XE48y1Czh5+Qz2RoabfDU3W2tbDOgchuDWHRDUrA0auXvD38sXAJCWlY49Jw5iR8R+/HXyYKXLDmnTEatmvQcvN4Y5kTkw0InMbNOBrfjgpy+QmJZc5nHDuvXHiO6D0K9jKGytbcstNzUzDV/u/AFr//wOOXm51aqjk70jpgwdj0mDH4eLg1O5x+fk5WLfqcPYfnQPth/dW+axPu5emP/YDIwJG1qtOhJR2RjoRDXkl4Pb8Ouh7YhOjEV0Yiz8PBshqFkbdGndHo/0GlHl/bovx1zH9E8XIur21Sqd37ZJK6yd+4HUEq+slIxU/HzwDxy/dBr/3YxCYloyvBs0hL+XLx7uNRwPhQ6pUrlEVDkMdCIVyM3Pw/KfVuHLHd9X6rxpwyZg7sPTYGdTfo8AEdVtDHQiFTl/8xIWrV9e7rh917ad8OZT8xDYtHUN1YyIzI2BTqRCB8/8iz0nD+JStLIbPrBpAAZ07sU9wolUiIFORESkApyHTkREpAIMdCIiIhVgoBMREakAA52IiEgFGOhEREQqwEAnIiJSAQY6ERGRCjDQiYiIVICBTkREpAIMdCIiIhVgoBMREakAA52IiEgFGOhEREQqwEAnIiJSAQY6ERGRCjDQiYiIVICBTkREpAIMdCIiIhVgoBMREakAA52IiEgFGOhEREQqwEAnIiJSAQY6ERGRCjDQiYiIVICBTkREpAIMdCIiIhVgoBMREakAA52IiEgFGOhEREQqwEAnIiJSAQY6ERGRCjDQiYiIVICBTkREpAIMdCIiIhVgoBMREakAA52IiEgFGOhEREQqwEAnIiJSAQY6ERGRCjDQiYiIVICBTkREpAIMdCIiIhVgoBMREakAA52IiEgFGOhEREQqwEAnIiJSAQY6ERGRCjDQiYiIVICBTkREpAIMdCIiIhVgoBMREakAA52IiEgFGOhEREQqwEAnIiJSAQY6ERGRCjDQiYiIVICBTkREpAIMdCIiIhVgoBMREakAA52IiEgFGOhEREQqwEAnIiJSAQY6ERGRCjDQiYiIVICBTkREpAIMdCIiIhVgoBMREakAA52IiEgFGOhEREQqwEAnIiJSAQY6ERGRCjDQiYiIVICBTkREpAIMdCIiIhVgoBMREakAA52IiEgFGOhEREQqwEAnIiJSAQY6ERGRCjDQiYiIVICBTkREpAIMdCIiIhVgoBMREakAA52IiEgFGOhEREQqwEAnIiJSAQY6ERGRCjDQiYiIVICBTkREpAIMdCIiIhVgoBMREakAA52IiEgFGOhEREQqwEAnIiJSAQY6ERGRCjDQiYiIVICBTkREpAIMdCIiIhVgoBMREakAA52IiEgFGOhEREQqwEAnIiJSAQY6ERGRCjDQiYiIVICBTkREpAIMdCIiIhVgoBMREakAA52IiEgF/h9LkBtzYd0dJwAAAABJRU5ErkJggg==;" parent="1" vertex="1">
          <mxGeometry x="377.81" y="-2229" width="84.37" height="80" as="geometry" />
        </mxCell>
        <mxCell id="L57hU3vJhA9-MwYrpEn6-33" value="" style="verticalLabelPosition=bottom;verticalAlign=top;html=1;shadow=0;dashed=0;strokeWidth=1;shape=mxgraph.android.phone2;strokeColor=#c0c0c0;" parent="1" vertex="1">
          <mxGeometry x="50" y="-1777" width="200" height="390" as="geometry" />
        </mxCell>
        <mxCell id="L57hU3vJhA9-MwYrpEn6-38" value="" style="endArrow=classic;html=1;rounded=0;entryX=0.01;entryY=0.41;entryDx=0;entryDy=0;entryPerimeter=0;" parent="1" target="L57hU3vJhA9-MwYrpEn6-30" edge="1">
          <mxGeometry width="50" height="50" relative="1" as="geometry">
            <mxPoint x="240" y="-2160" as="sourcePoint" />
            <mxPoint x="490" y="-2160" as="targetPoint" />
          </mxGeometry>
        </mxCell>
        <mxCell id="L57hU3vJhA9-MwYrpEn6-45" value="&lt;font color=&quot;#a6a6a6&quot;&gt;&lt;span style=&quot;white-space: pre;&quot;&gt;&#x9;&lt;/span&gt;&amp;nbsp;Nome&lt;/font&gt;" style="text;html=1;strokeColor=default;fillColor=none;align=left;verticalAlign=middle;whiteSpace=wrap;rounded=1;perimeterSpacing=0;shadow=0;glass=0;" parent="1" vertex="1">
          <mxGeometry x="70" y="-1626" width="160" height="30" as="geometry" />
        </mxCell>
        <mxCell id="L57hU3vJhA9-MwYrpEn6-48" value="" style="sketch=0;pointerEvents=1;shadow=0;dashed=0;html=1;strokeColor=#36393d;fillColor=#eeeeee;labelPosition=center;verticalLabelPosition=bottom;verticalAlign=top;outlineConnect=0;align=center;shape=mxgraph.office.users.user;rounded=0;glass=0;fontFamily=Helvetica;fontSize=12;" parent="1" vertex="1">
          <mxGeometry x="78" y="-1620" width="16" height="16" as="geometry" />
        </mxCell>
        <mxCell id="L57hU3vJhA9-MwYrpEn6-55" value="&lt;font color=&quot;#cccccc&quot;&gt;&amp;nbsp;&lt;span style=&quot;white-space: pre;&quot;&gt;&#x9;&lt;/span&gt;&amp;nbsp;&lt;/font&gt;&lt;font color=&quot;#a6a6a6&quot;&gt;E-mail&lt;/font&gt;" style="text;html=1;strokeColor=default;fillColor=none;align=left;verticalAlign=middle;whiteSpace=wrap;rounded=1;perimeterSpacing=0;shadow=0;glass=0;" parent="1" vertex="1">
          <mxGeometry x="70" y="-1585" width="160" height="30" as="geometry" />
        </mxCell>
        <mxCell id="L57hU3vJhA9-MwYrpEn6-57" value="&lt;font color=&quot;#a6a6a6&quot;&gt;&lt;span style=&quot;white-space: pre;&quot;&gt;&#x9;&lt;/span&gt;&amp;nbsp;Password&lt;/font&gt;" style="text;html=1;strokeColor=default;fillColor=none;align=left;verticalAlign=middle;whiteSpace=wrap;rounded=1;perimeterSpacing=0;shadow=0;glass=0;" parent="1" vertex="1">
          <mxGeometry x="70" y="-1545" width="160" height="30" as="geometry" />
        </mxCell>
        <mxCell id="L57hU3vJhA9-MwYrpEn6-60" value="&lt;h1&gt;&lt;font color=&quot;#334354&quot; style=&quot;font-size: 15px;&quot;&gt;Criar Conta&lt;/font&gt;&lt;/h1&gt;" style="text;strokeColor=none;fillColor=none;html=1;fontSize=12;fontStyle=1;verticalAlign=middle;align=center;fontFamily=Helvetica;fontColor=default;rounded=0;" parent="1" vertex="1">
          <mxGeometry x="91.37" y="-1705" width="117.25" height="30" as="geometry" />
        </mxCell>
        <mxCell id="L57hU3vJhA9-MwYrpEn6-64" value="" style="dashed=0;outlineConnect=0;html=1;align=center;labelPosition=center;verticalLabelPosition=bottom;verticalAlign=top;shape=mxgraph.webicons.facebook;fillColor=#6294E4;gradientColor=#1A2665;rounded=0;shadow=0;glass=0;strokeColor=default;fontFamily=Helvetica;fontSize=12;fontColor=default;" parent="1" vertex="1">
          <mxGeometry x="119" y="-1660" width="20" height="20" as="geometry" />
        </mxCell>
        <mxCell id="L57hU3vJhA9-MwYrpEn6-67" value="" style="verticalLabelPosition=bottom;verticalAlign=top;html=1;shadow=0;dashed=0;strokeWidth=1;shape=mxgraph.android.phone2;strokeColor=#c0c0c0;" parent="1" vertex="1">
          <mxGeometry x="600" y="-2320" width="200" height="390" as="geometry" />
        </mxCell>
        <mxCell id="L57hU3vJhA9-MwYrpEn6-70" value="&lt;font color=&quot;#cccccc&quot;&gt;&lt;span style=&quot;white-space: pre;&quot;&gt;&#x9;&lt;/span&gt;&amp;nbsp;&lt;/font&gt;&lt;font color=&quot;#a6a6a6&quot;&gt;E-mail&lt;/font&gt;" style="text;html=1;strokeColor=default;fillColor=none;align=left;verticalAlign=middle;whiteSpace=wrap;rounded=1;perimeterSpacing=0;shadow=0;glass=0;" parent="1" vertex="1">
          <mxGeometry x="620" y="-2163" width="160" height="30" as="geometry" />
        </mxCell>
        <mxCell id="L57hU3vJhA9-MwYrpEn6-71" value="" style="sketch=0;pointerEvents=1;shadow=0;dashed=0;html=1;strokeColor=#36393d;fillColor=#eeeeee;labelPosition=center;verticalLabelPosition=bottom;verticalAlign=top;outlineConnect=0;align=center;shape=mxgraph.office.users.user;rounded=0;glass=0;fontFamily=Helvetica;fontSize=12;" parent="1" vertex="1">
          <mxGeometry x="628" y="-2157" width="16" height="16" as="geometry" />
        </mxCell>
        <mxCell id="L57hU3vJhA9-MwYrpEn6-72" value="&lt;font color=&quot;#cccccc&quot;&gt;&lt;span style=&quot;white-space: pre;&quot;&gt;&#x9;&lt;/span&gt;&amp;nbsp;&lt;/font&gt;&lt;font color=&quot;#a6a6a6&quot;&gt;Password&lt;/font&gt;" style="text;html=1;strokeColor=default;fillColor=none;align=left;verticalAlign=middle;whiteSpace=wrap;rounded=1;perimeterSpacing=0;shadow=0;glass=0;" parent="1" vertex="1">
          <mxGeometry x="620" y="-2123" width="160" height="30" as="geometry" />
        </mxCell>
        <mxCell id="L57hU3vJhA9-MwYrpEn6-81" value="" style="sketch=0;pointerEvents=1;shadow=0;dashed=0;html=1;strokeColor=#36393d;fillColor=#eeeeee;labelPosition=center;verticalLabelPosition=bottom;verticalAlign=top;outlineConnect=0;align=center;shape=mxgraph.office.security.lock_with_key_security;rounded=0;glass=0;fontFamily=Helvetica;fontSize=12;fontColor=default;" parent="1" vertex="1">
          <mxGeometry x="627" y="-2117" width="20" height="20" as="geometry" />
        </mxCell>
        <mxCell id="L57hU3vJhA9-MwYrpEn6-82" value="" style="sketch=0;pointerEvents=1;shadow=0;dashed=0;html=1;strokeColor=#36393d;fillColor=#eeeeee;labelPosition=center;verticalLabelPosition=bottom;verticalAlign=top;outlineConnect=0;align=center;shape=mxgraph.office.security.lock_with_key_security;rounded=0;glass=0;fontFamily=Helvetica;fontSize=12;fontColor=default;" parent="1" vertex="1">
          <mxGeometry x="78" y="-1540" width="20" height="20" as="geometry" />
        </mxCell>
        <mxCell id="L57hU3vJhA9-MwYrpEn6-85" value="" style="sketch=0;outlineConnect=0;fontColor=default;gradientColor=none;fillColor=#36393d;strokeColor=none;verticalLabelPosition=bottom;verticalAlign=top;align=center;html=1;fontSize=12;fontStyle=0;aspect=fixed;pointerEvents=1;shape=mxgraph.aws4.email_2;rounded=0;shadow=0;glass=0;fontFamily=Helvetica;" parent="1" vertex="1">
          <mxGeometry x="76" y="-1576.2800000000002" width="20" height="12.56" as="geometry" />
        </mxCell>
        <mxCell id="L57hU3vJhA9-MwYrpEn6-87" value="Login" style="rounded=1;html=1;shadow=0;dashed=0;whiteSpace=wrap;fontSize=10;fillColor=#666666;align=center;strokeColor=#4D4D4D;fontColor=#ffffff;" parent="1" vertex="1">
          <mxGeometry x="620" y="-2076" width="160" height="20" as="geometry" />
        </mxCell>
        <mxCell id="L57hU3vJhA9-MwYrpEn6-101" value="" style="rounded=0;whiteSpace=wrap;html=1;shadow=0;glass=0;strokeColor=none;align=left;verticalAlign=middle;fontFamily=Helvetica;fontSize=12;fontColor=default;fillColor=#FFFFFF;gradientColor=#BCC7D9;" parent="1" vertex="1">
          <mxGeometry x="610" y="-2024" width="180" height="58" as="geometry" />
        </mxCell>
        <mxCell id="tWc4xuuW74gezJHSD0tG-6" style="edgeStyle=orthogonalEdgeStyle;rounded=0;orthogonalLoop=1;jettySize=auto;html=1;exitX=0;exitY=0.5;exitDx=0;exitDy=0;entryX=0.719;entryY=0.002;entryDx=0;entryDy=0;entryPerimeter=0;" edge="1" parent="1" source="L57hU3vJhA9-MwYrpEn6-102" target="L57hU3vJhA9-MwYrpEn6-33">
          <mxGeometry relative="1" as="geometry">
            <mxPoint x="280.4853192497703" y="-1869.5293758616729" as="targetPoint" />
            <Array as="points">
              <mxPoint x="560" y="-1980" />
              <mxPoint x="560" y="-1870" />
              <mxPoint x="194" y="-1870" />
            </Array>
          </mxGeometry>
        </mxCell>
        <mxCell id="L57hU3vJhA9-MwYrpEn6-102" value="&lt;font style=&quot;font-size: 8px;&quot;&gt;Registe-se&lt;/font&gt;" style="rounded=1;html=1;shadow=0;dashed=0;whiteSpace=wrap;fontSize=10;fillColor=#666666;align=center;strokeColor=#4D4D4D;fontColor=#ffffff;" parent="1" vertex="1">
          <mxGeometry x="720" y="-1988" width="52" height="15" as="geometry" />
        </mxCell>
        <mxCell id="L57hU3vJhA9-MwYrpEn6-103" value="&lt;font color=&quot;#636363&quot; style=&quot;font-size: 9px;&quot;&gt;Ainda nÃ£o tem conta?&lt;/font&gt;" style="text;html=1;strokeColor=none;fillColor=none;align=center;verticalAlign=middle;whiteSpace=wrap;rounded=0;fontSize=12;fontFamily=Helvetica;fontColor=default;" parent="1" vertex="1">
          <mxGeometry x="686.75" y="-2004" width="97.25" height="13" as="geometry" />
        </mxCell>
        <mxCell id="L57hU3vJhA9-MwYrpEn6-109" value="" style="endArrow=none;html=1;rounded=0;fontFamily=Helvetica;fontSize=12;fontColor=default;strokeColor=#A7ABB3;" parent="1" edge="1">
          <mxGeometry width="50" height="50" relative="1" as="geometry">
            <mxPoint x="629" y="-2210" as="sourcePoint" />
            <mxPoint x="769" y="-2210" as="targetPoint" />
          </mxGeometry>
        </mxCell>
        <mxCell id="L57hU3vJhA9-MwYrpEn6-110" value="Registar" style="rounded=1;html=1;shadow=0;dashed=0;whiteSpace=wrap;fontSize=10;fillColor=#666666;align=center;strokeColor=#4D4D4D;fontColor=#ffffff;" parent="1" vertex="1">
          <mxGeometry x="70" y="-1494" width="160" height="20" as="geometry" />
        </mxCell>
        <mxCell id="L57hU3vJhA9-MwYrpEn6-113" value="" style="endArrow=none;html=1;rounded=0;fontFamily=Helvetica;fontSize=12;fontColor=default;strokeColor=#A7ABB3;" parent="1" edge="1">
          <mxGeometry width="50" height="50" relative="1" as="geometry">
            <mxPoint x="81" y="-1673" as="sourcePoint" />
            <mxPoint x="221" y="-1673" as="targetPoint" />
          </mxGeometry>
        </mxCell>
        <mxCell id="L57hU3vJhA9-MwYrpEn6-114" value="" style="dashed=0;outlineConnect=0;html=1;align=center;labelPosition=center;verticalLabelPosition=bottom;verticalAlign=top;shape=mxgraph.weblogos.google;rounded=0;shadow=0;glass=0;strokeColor=default;fontFamily=Helvetica;fontSize=12;fontColor=default;fillColor=none;gradientColor=none;" parent="1" vertex="1">
          <mxGeometry x="159" y="-1659" width="20" height="20" as="geometry" />
        </mxCell>
        <mxCell id="L57hU3vJhA9-MwYrpEn6-116" value="" style="dashed=0;outlineConnect=0;html=1;align=center;labelPosition=center;verticalLabelPosition=bottom;verticalAlign=top;shape=mxgraph.webicons.facebook;fillColor=#6294E4;gradientColor=#1A2665;rounded=0;shadow=0;glass=0;strokeColor=default;fontFamily=Helvetica;fontSize=12;fontColor=default;" parent="1" vertex="1">
          <mxGeometry x="669.63" y="-2197" width="20" height="20" as="geometry" />
        </mxCell>
        <mxCell id="L57hU3vJhA9-MwYrpEn6-117" value="" style="dashed=0;outlineConnect=0;html=1;align=center;labelPosition=center;verticalLabelPosition=bottom;verticalAlign=top;shape=mxgraph.weblogos.google;rounded=0;shadow=0;glass=0;strokeColor=default;fontFamily=Helvetica;fontSize=12;fontColor=default;fillColor=none;gradientColor=none;" parent="1" vertex="1">
          <mxGeometry x="709.63" y="-2196" width="20" height="20" as="geometry" />
        </mxCell>
        <mxCell id="krdt0gxx7XLF9q-CUn_L-5" style="edgeStyle=orthogonalEdgeStyle;rounded=0;orthogonalLoop=1;jettySize=auto;html=1;exitX=0;exitY=0.5;exitDx=0;exitDy=0;entryX=0.24;entryY=0;entryDx=0;entryDy=0;entryPerimeter=0;" parent="1" source="L57hU3vJhA9-MwYrpEn6-19" target="L57hU3vJhA9-MwYrpEn6-33" edge="1">
          <mxGeometry relative="1" as="geometry">
            <Array as="points">
              <mxPoint x="280" y="-2100" />
              <mxPoint x="280" y="-1909" />
              <mxPoint x="98" y="-1909" />
            </Array>
          </mxGeometry>
        </mxCell>
        <mxCell id="krdt0gxx7XLF9q-CUn_L-8" value="" style="strokeWidth=1;html=1;shadow=0;dashed=0;shape=mxgraph.android.action_bar_landscape;strokeWidth=2;whiteSpace=wrap;" parent="1" vertex="1">
          <mxGeometry x="64.5" y="-1724" width="171" height="23.5" as="geometry" />
        </mxCell>
        <mxCell id="krdt0gxx7XLF9q-CUn_L-9" value="&lt;pre style=&quot;line-height: 60%; font-size: 11px;&quot;&gt;&lt;font face=&quot;Verdana&quot; color=&quot;#585a5e&quot; style=&quot;font-weight: normal; font-size: 11px;&quot;&gt;Por favor, digite o cÃ³digo&lt;/font&gt;&lt;/pre&gt;&lt;pre style=&quot;line-height: 60%; font-size: 11px;&quot;&gt;&lt;font face=&quot;Verdana&quot; color=&quot;#585a5e&quot; style=&quot;font-weight: normal; font-size: 11px;&quot;&gt;&lt;font style=&quot;font-size: 11px;&quot;&gt;que&amp;nbsp;&lt;/font&gt;enviamos para:&lt;/font&gt;&lt;/pre&gt;" style="text;strokeColor=none;fillColor=none;html=1;fontSize=12;fontStyle=1;verticalAlign=middle;align=center;fontFamily=Helvetica;fontColor=default;rounded=0;" parent="1" vertex="1">
          <mxGeometry x="344.90999999999997" y="-1705" width="150.18" height="59" as="geometry" />
        </mxCell>
        <mxCell id="krdt0gxx7XLF9q-CUn_L-10" value="" style="verticalLabelPosition=bottom;verticalAlign=top;html=1;shadow=0;dashed=0;strokeWidth=1;shape=mxgraph.android.phone2;strokeColor=#c0c0c0;" parent="1" vertex="1">
          <mxGeometry x="320" y="-1777" width="200" height="390" as="geometry" />
        </mxCell>
        <mxCell id="krdt0gxx7XLF9q-CUn_L-13" value="&lt;font color=&quot;#cccccc&quot;&gt;&lt;span style=&quot;white-space: pre;&quot;&gt;&#x9;&lt;/span&gt;&amp;nbsp;&lt;/font&gt;&lt;font color=&quot;#a6a6a6&quot;&gt;CÃ³digo&lt;/font&gt;" style="text;html=1;strokeColor=default;fillColor=none;align=left;verticalAlign=middle;whiteSpace=wrap;rounded=1;perimeterSpacing=0;shadow=0;glass=0;" parent="1" vertex="1">
          <mxGeometry x="340" y="-1594" width="160" height="30" as="geometry" />
        </mxCell>
        <mxCell id="krdt0gxx7XLF9q-CUn_L-14" value="" style="sketch=0;pointerEvents=1;shadow=0;dashed=0;html=1;strokeColor=#36393d;fillColor=#eeeeee;labelPosition=center;verticalLabelPosition=bottom;verticalAlign=top;outlineConnect=0;align=center;shape=mxgraph.office.security.lock_with_key_security;rounded=0;glass=0;fontFamily=Helvetica;fontSize=12;fontColor=default;" parent="1" vertex="1">
          <mxGeometry x="347" y="-1588" width="20" height="20" as="geometry" />
        </mxCell>
        <mxCell id="krdt0gxx7XLF9q-CUn_L-15" value="Confirmar" style="rounded=1;html=1;shadow=0;dashed=0;whiteSpace=wrap;fontSize=10;fillColor=#666666;align=center;strokeColor=#4D4D4D;fontColor=#ffffff;" parent="1" vertex="1">
          <mxGeometry x="340" y="-1547" width="160" height="20" as="geometry" />
        </mxCell>
        <mxCell id="krdt0gxx7XLF9q-CUn_L-16" value="" style="rounded=0;whiteSpace=wrap;html=1;shadow=0;glass=0;strokeColor=none;align=left;verticalAlign=middle;fontFamily=Helvetica;fontSize=12;fontColor=default;fillColor=#FFFFFF;gradientColor=#BCC7D9;" parent="1" vertex="1">
          <mxGeometry x="330" y="-1481" width="180" height="58" as="geometry" />
        </mxCell>
        <mxCell id="krdt0gxx7XLF9q-CUn_L-17" value="&lt;font style=&quot;font-size: 8px;&quot;&gt;Reenviar&lt;/font&gt;" style="rounded=1;html=1;shadow=0;dashed=0;whiteSpace=wrap;fontSize=10;fillColor=#666666;align=center;strokeColor=#4D4D4D;fontColor=#ffffff;" parent="1" vertex="1">
          <mxGeometry x="440" y="-1445" width="52" height="15" as="geometry" />
        </mxCell>
        <mxCell id="krdt0gxx7XLF9q-CUn_L-18" value="&lt;font color=&quot;#636363&quot; style=&quot;font-size: 9px;&quot;&gt;NÃ£o recebeu nenhum cÃ³digo?&lt;/font&gt;" style="text;html=1;strokeColor=none;fillColor=none;align=center;verticalAlign=middle;whiteSpace=wrap;rounded=0;fontSize=12;fontFamily=Helvetica;fontColor=default;" parent="1" vertex="1">
          <mxGeometry x="370" y="-1467" width="134" height="26" as="geometry" />
        </mxCell>
        <mxCell id="krdt0gxx7XLF9q-CUn_L-27" value="" style="verticalLabelPosition=bottom;verticalAlign=top;html=1;shadow=0;dashed=0;strokeWidth=1;shape=mxgraph.android.phone2;strokeColor=#c0c0c0;" parent="1" vertex="1">
          <mxGeometry x="584" y="-1777" width="200" height="390" as="geometry" />
        </mxCell>
        <mxCell id="krdt0gxx7XLF9q-CUn_L-40" value="&lt;font color=&quot;#324252&quot; style=&quot;font-size: 13px;&quot;&gt;exemplo@yahoo.com&lt;/font&gt;" style="text;strokeColor=none;fillColor=none;html=1;fontSize=24;fontStyle=1;verticalAlign=middle;align=center;shadow=0;" parent="1" vertex="1">
          <mxGeometry x="325" y="-1658" width="190" height="40" as="geometry" />
        </mxCell>
        <mxCell id="krdt0gxx7XLF9q-CUn_L-42" style="edgeStyle=orthogonalEdgeStyle;rounded=0;orthogonalLoop=1;jettySize=auto;html=1;exitX=1;exitY=0.5;exitDx=0;exitDy=0;" parent="1" source="L57hU3vJhA9-MwYrpEn6-110" edge="1">
          <mxGeometry relative="1" as="geometry">
            <mxPoint x="320" y="-1585" as="targetPoint" />
            <Array as="points">
              <mxPoint x="280" y="-1484" />
              <mxPoint x="280" y="-1585" />
            </Array>
          </mxGeometry>
        </mxCell>
        <mxCell id="krdt0gxx7XLF9q-CUn_L-43" value="" style="strokeWidth=1;html=1;shadow=0;dashed=0;shape=mxgraph.android.action_bar_landscape;strokeWidth=2;whiteSpace=wrap;" parent="1" vertex="1">
          <mxGeometry x="613" y="-2267.5" width="171" height="23.5" as="geometry" />
        </mxCell>
        <mxCell id="krdt0gxx7XLF9q-CUn_L-71" style="edgeStyle=orthogonalEdgeStyle;rounded=0;orthogonalLoop=1;jettySize=auto;html=1;exitX=1;exitY=0.5;exitDx=0;exitDy=0;entryX=0.5;entryY=0.001;entryDx=0;entryDy=0;entryPerimeter=0;" parent="1" source="L57hU3vJhA9-MwYrpEn6-87" target="krdt0gxx7XLF9q-CUn_L-27" edge="1">
          <mxGeometry relative="1" as="geometry">
            <Array as="points">
              <mxPoint x="820" y="-2066" />
              <mxPoint x="820" y="-1900" />
              <mxPoint x="684" y="-1900" />
            </Array>
          </mxGeometry>
        </mxCell>
        <mxCell id="krdt0gxx7XLF9q-CUn_L-72" style="edgeStyle=orthogonalEdgeStyle;rounded=0;orthogonalLoop=1;jettySize=auto;html=1;exitX=1;exitY=0.5;exitDx=0;exitDy=0;entryX=-0.002;entryY=0.495;entryDx=0;entryDy=0;entryPerimeter=0;" parent="1" source="krdt0gxx7XLF9q-CUn_L-15" target="krdt0gxx7XLF9q-CUn_L-27" edge="1">
          <mxGeometry relative="1" as="geometry">
            <Array as="points">
              <mxPoint x="550" y="-1537" />
              <mxPoint x="550" y="-1584" />
            </Array>
          </mxGeometry>
        </mxCell>
        <mxCell id="tWc4xuuW74gezJHSD0tG-1" value="" style="sketch=0;html=1;aspect=fixed;strokeColor=#267a38;shadow=0;align=center;fillColor=#2D9C5E;verticalAlign=top;labelPosition=center;verticalLabelPosition=bottom;shape=mxgraph.gcp2.check" vertex="1" parent="1">
          <mxGeometry x="662.38" y="-1648" width="46.25" height="37" as="geometry" />
        </mxCell>
        <mxCell id="tWc4xuuW74gezJHSD0tG-2" value="&lt;pre&gt;&lt;font face=&quot;Verdana&quot; style=&quot;font-size: 14px;&quot;&gt;Bem Vindo&lt;/font&gt;&lt;/pre&gt;" style="html=1;shadow=0;dashed=0;shape=mxgraph.bootstrap.rrect;rSize=5;strokeColor=none;strokeWidth=1;fillColor=#267A38;fontColor=#FFFFFF;whiteSpace=wrap;align=center;verticalAlign=middle;spacingLeft=0;fontStyle=0;fontSize=16;spacing=5;" vertex="1" parent="1">
          <mxGeometry x="622.13" y="-1587" width="125" height="40" as="geometry" />
        </mxCell>
        <mxCell id="tWc4xuuW74gezJHSD0tG-4" style="edgeStyle=orthogonalEdgeStyle;rounded=0;orthogonalLoop=1;jettySize=auto;html=1;exitX=1;exitY=0.5;exitDx=0;exitDy=0;entryX=0;entryY=0.474;entryDx=0;entryDy=0;entryPerimeter=0;" edge="1" parent="1" source="L57hU3vJhA9-MwYrpEn6-20" target="L57hU3vJhA9-MwYrpEn6-67">
          <mxGeometry relative="1" as="geometry" />
        </mxCell>
        <mxCell id="tWc4xuuW74gezJHSD0tG-9" value="" style="verticalLabelPosition=bottom;verticalAlign=top;html=1;shadow=0;dashed=0;strokeWidth=1;shape=mxgraph.android.phone2;strokeColor=#c0c0c0;" vertex="1" parent="1">
          <mxGeometry x="900" y="-1777" width="200" height="390" as="geometry" />
        </mxCell>
      </root>
    </mxGraphModel>
  </diagram>
</mxfile>
